<svg width="24" height="24" viewBox="0 0 24 24" fill="none" xmlns="http://www.w3.org/2000/svg">
<g clip-path="url(#clip0_1405_9098)">
<path d="M6.54911 11.9999C6.54911 10.72 6.6185 9.46709 6.75205 8.271H0.591993C0.205215 9.45926 0.00390625 10.7141 0.00390625 11.9999C0.00390625 12.9832 0.121852 13.9483 0.350058 14.8794H6.66864C6.58969 13.9443 6.54911 12.98 6.54911 11.9999Z" fill="#EFDBC4"/>
<path d="M6.81946 16.2852H0.788452C1.38263 17.8426 2.30384 19.2711 3.51755 20.4852C5.11851 22.0867 7.09261 23.179 9.24346 23.6825C8.77636 23.0347 8.35219 22.2127 7.98425 21.2283C7.45291 19.8067 7.05896 18.1207 6.81946 16.2852Z" fill="#EFDBC4"/>
<path d="M17.0569 6.86535H22.8493C22.2672 5.63683 21.4719 4.50452 20.4824 3.5147C18.8814 1.91318 16.9073 0.820935 14.7565 0.317383C15.2236 0.965216 15.6478 1.78718 16.0157 2.77165C16.464 3.97093 16.8144 5.35862 17.0569 6.86535Z" fill="#EFDBC4"/>
<path d="M6.94311 6.86535C7.18561 5.35862 7.53598 3.97093 7.98428 2.77165C8.35222 1.78723 8.77635 0.965216 9.24349 0.317383C7.09264 0.820935 5.11859 1.91318 3.51763 3.5147C2.5281 4.50452 1.73285 5.63683 1.15076 6.86535H6.94311Z" fill="#EFDBC4"/>
<path d="M17.1804 16.2852C16.941 18.1207 16.547 19.8067 16.0157 21.2283C15.6477 22.2127 15.2236 23.0347 14.7565 23.6825C16.9073 23.179 18.8814 22.0867 20.4823 20.4852C21.696 19.2711 22.6172 17.8426 23.2114 16.2852H17.1804Z" fill="#EFDBC4"/>
<path d="M23.408 8.271H17.2479C17.3815 9.46713 17.4508 10.72 17.4508 11.9999C17.4508 12.98 17.4102 13.9443 17.3313 14.8794H23.6499C23.8781 13.9483 23.996 12.9832 23.996 11.9999C23.996 10.7141 23.7948 9.45926 23.408 8.271Z" fill="#EFDBC4"/>
<path d="M15.7631 16.2852H8.23682C8.46362 17.9416 8.82303 19.4573 9.30104 20.7361C10.0649 22.7797 11.0738 23.9998 12 23.9998C12.9261 23.9998 13.935 22.7797 14.6989 20.7361C15.1769 19.4573 15.5363 17.9416 15.7631 16.2852Z" fill="#EFDBC4"/>
<path d="M8.36694 6.8653H15.6331C15.4079 5.53931 15.0939 4.32059 14.6989 3.26377C13.935 1.22013 12.9261 0 12 0C11.0738 0 10.0649 1.22013 9.30104 3.26377C8.90606 4.32059 8.5921 5.53931 8.36694 6.8653Z" fill="#EFDBC4"/>
<path d="M15.8336 8.271H8.16628C8.02729 9.46034 7.9549 10.7143 7.9549 11.9999C7.9549 12.9832 7.9974 13.9478 8.0794 14.8794H15.9205C16.0025 13.9478 16.045 12.9832 16.045 11.9999C16.0451 10.7143 15.9727 9.46034 15.8336 8.271Z" fill="#EFDBC4"/>
</g>
<defs>
<clipPath id="clip0_1405_9098">
<rect width="24" height="24" fill="white"/>
</clipPath>
</defs>
</svg>
