<svg width="24" height="24" viewBox="0 0 24 24" fill="none" xmlns="http://www.w3.org/2000/svg">
<g clip-path="url(#clip0_605_810)">
<mask id="mask0_605_810" style="mask-type:luminance" maskUnits="userSpaceOnUse" x="0" y="0" width="24" height="24">
<path d="M24 0H0V24H24V0Z" fill="white"/>
</mask>
<g mask="url(#mask0_605_810)">
<path d="M6.54911 11.9999C6.54911 10.72 6.6185 9.46709 6.75205 8.271H0.591993C0.205215 9.45926 0.00390625 10.7141 0.00390625 11.9999C0.00390625 12.9832 0.121852 13.9483 0.350058 14.8794H6.66864C6.58969 13.9443 6.54911 12.98 6.54911 11.9999Z" fill="#5F3AAC"/>
<path d="M6.82007 16.2852H0.789062C1.38324 17.8426 2.30445 19.2711 3.51816 20.4852C5.11912 22.0867 7.09322 23.179 9.24407 23.6825C8.77697 23.0347 8.3528 22.2127 7.98486 21.2283C7.45352 19.8067 7.05957 18.1207 6.82007 16.2852Z" fill="#5F3AAC"/>
<path d="M17.0563 6.86535H22.8487C22.2666 5.63683 21.4713 4.50452 20.4818 3.5147C18.8808 1.91318 16.9067 0.820935 14.7559 0.317383C15.223 0.965216 15.6472 1.78718 16.0151 2.77165C16.4634 3.97093 16.8138 5.35862 17.0563 6.86535Z" fill="#5F3AAC"/>
<path d="M6.94274 6.86535C7.18524 5.35862 7.53561 3.97093 7.98391 2.77165C8.35185 1.78723 8.77598 0.965216 9.24312 0.317383C7.09227 0.820935 5.11822 1.91318 3.51726 3.5147C2.52773 4.50452 1.73248 5.63683 1.15039 6.86535H6.94274Z" fill="#5F3AAC"/>
<path d="M17.1798 16.2852C16.9404 18.1207 16.5464 19.8067 16.0151 21.2283C15.6471 22.2127 15.223 23.0347 14.7559 23.6825C16.9067 23.179 18.8808 22.0867 20.4817 20.4852C21.6954 19.2711 22.6166 17.8426 23.2108 16.2852H17.1798Z" fill="#5F3AAC"/>
<path d="M23.4081 8.271H17.248C17.3816 9.46713 17.4509 10.72 17.4509 11.9999C17.4509 12.98 17.4103 13.9443 17.3314 14.8794H23.65C23.8782 13.9483 23.9961 12.9832 23.9961 11.9999C23.9961 10.7141 23.7949 9.45926 23.4081 8.271Z" fill="#5F3AAC"/>
<path d="M15.7626 16.2852H8.23633C8.46313 17.9416 8.82254 19.4573 9.30055 20.7361C10.0644 22.7797 11.0733 23.9998 11.9995 23.9998C12.9256 23.9998 13.9345 22.7797 14.6984 20.7361C15.1764 19.4573 15.5358 17.9416 15.7626 16.2852Z" fill="#5F3AAC"/>
<path d="M8.36719 6.8653H15.6333C15.4081 5.53931 15.0941 4.32059 14.6991 3.26377C13.9352 1.22013 12.9263 0 12.0002 0C11.074 0 10.0651 1.22013 9.30129 3.26377C8.90631 4.32059 8.59235 5.53931 8.36719 6.8653Z" fill="#5F3AAC"/>
<path d="M15.8338 8.271H8.16646C8.02747 9.46034 7.95508 10.7143 7.95508 11.9999C7.95508 12.9832 7.99758 13.9478 8.07958 14.8794H15.9207C16.0027 13.9478 16.0452 12.9832 16.0452 11.9999C16.0453 10.7143 15.9729 9.46034 15.8338 8.271Z" fill="#5F3AAC"/>
</g>
</g>
<defs>
<clipPath id="clip0_605_810">
<rect width="24" height="24" fill="white"/>
</clipPath>
</defs>
</svg>
