<svg width="24" height="24" viewBox="0 0 24 24" fill="none" xmlns="http://www.w3.org/2000/svg">
<g clip-path="url(#clip0_605_802)">
<mask id="mask0_605_802" style="mask-type:luminance" maskUnits="userSpaceOnUse" x="0" y="0" width="24" height="24">
<path d="M24 0H0V24H24V0Z" fill="white"/>
</mask>
<g mask="url(#mask0_605_802)">
<g opacity="0.8">
<path d="M15.913 12.7826H0.782609C0.350607 12.7826 0 12.432 0 12C0 11.568 0.350607 11.2174 0.782609 11.2174H15.913C16.345 11.2174 16.6956 11.568 16.6956 12C16.6956 12.432 16.345 12.7826 15.913 12.7826Z" fill="#5F3AAC"/>
<path d="M11.7394 16.9565C11.539 16.9565 11.3388 16.8804 11.1863 16.727C10.8806 16.4213 10.8806 15.9256 11.1863 15.6198L14.8072 11.999L11.1863 8.37814C10.8806 8.07243 10.8806 7.57661 11.1863 7.27091C11.4922 6.9652 11.9878 6.9652 12.2935 7.27091L16.4674 11.4449C16.7731 11.7507 16.7731 12.2463 16.4674 12.552L12.2935 16.7258C12.1401 16.8804 11.9399 16.9565 11.7394 16.9565Z" fill="#5F3AAC"/>
<path d="M12.521 23.4784C7.77203 23.4784 3.57947 20.6214 1.8379 16.1989C1.67931 15.7983 1.87745 15.3433 2.27926 15.1848C2.67993 15.0283 3.136 15.2233 3.29459 15.6273C4.79828 19.4453 8.42013 21.9132 12.521 21.9132C17.9867 21.9132 22.4341 17.4657 22.4341 12.0001C22.4341 6.5344 17.9867 2.08695 12.521 2.08695C8.42013 2.08695 4.79828 4.55476 3.29459 8.37285C3.13486 8.77676 2.67993 8.97184 2.27926 8.81536C1.87745 8.65677 1.67931 8.20184 1.8379 7.80118C3.57947 3.37875 7.77203 0.521729 12.521 0.521729C18.8497 0.521729 23.9994 5.67136 23.9994 12.0001C23.9994 18.3288 18.8497 23.4784 12.521 23.4784Z" fill="#5F3AAC"/>
</g>
</g>
</g>
<defs>
<clipPath id="clip0_605_802">
<rect width="24" height="24" fill="white"/>
</clipPath>
</defs>
</svg>
