<svg width="24" height="24" viewBox="0 0 24 24" fill="none" xmlns="http://www.w3.org/2000/svg">
<g opacity="0.8" clip-path="url(#clip0_56_2095)">
<path d="M15.913 12.7826H0.782609C0.350607 12.7826 0 12.432 0 12C0 11.568 0.350607 11.2174 0.782609 11.2174H15.913C16.345 11.2174 16.6956 11.568 16.6956 12C16.6956 12.432 16.345 12.7826 15.913 12.7826Z" fill="#EFDBC4"/>
<path d="M11.7391 16.9565C11.5387 16.9565 11.3385 16.8804 11.186 16.727C10.8803 16.4213 10.8803 15.9256 11.186 15.6198L14.8069 11.999L11.186 8.37814C10.8803 8.07243 10.8803 7.57661 11.186 7.27091C11.4919 6.9652 11.9875 6.9652 12.2932 7.27091L16.4671 11.4449C16.7728 11.7507 16.7728 12.2463 16.4671 12.552L12.2932 16.7258C12.1398 16.8804 11.9396 16.9565 11.7391 16.9565Z" fill="#EFDBC4"/>
<path d="M12.5217 23.4784C7.77277 23.4784 3.5802 20.6214 1.83863 16.1989C1.68004 15.7983 1.87818 15.3433 2.27999 15.1848C2.68066 15.0283 3.13673 15.2233 3.29532 15.6273C4.79901 19.4453 8.42087 21.9132 12.5217 21.9132C17.9874 21.9132 22.4348 17.4657 22.4348 12.0001C22.4348 6.5344 17.9874 2.08695 12.5217 2.08695C8.42087 2.08695 4.79901 4.55476 3.29532 8.37285C3.13559 8.77676 2.68066 8.97184 2.27999 8.81536C1.87818 8.65677 1.68004 8.20184 1.83863 7.80118C3.5802 3.37875 7.77277 0.521729 12.5217 0.521729C18.8504 0.521729 24.0001 5.67136 24.0001 12.0001C24.0001 18.3288 18.8504 23.4784 12.5217 23.4784Z" fill="#EFDBC4"/>
</g>
<defs>
<clipPath id="clip0_56_2095">
<rect width="24" height="24" fill="white"/>
</clipPath>
</defs>
</svg>
