<svg width="38" height="38" viewBox="0 0 38 38" fill="none" xmlns="http://www.w3.org/2000/svg">
<path d="M11.875 13.0625H26.125M11.875 17.8125H19M3.5625 20.2033C3.5625 22.7367 5.34058 24.9438 7.84858 25.3128C9.63617 25.5756 11.4428 25.7767 13.2683 25.9128C13.8225 25.954 14.3292 26.2453 14.6379 26.7061L19 33.25L23.3621 26.7061C23.5151 26.4785 23.718 26.2888 23.9553 26.1513C24.1926 26.0139 24.4581 25.9323 24.7317 25.9128C26.5448 25.7775 28.3526 25.5773 30.1514 25.3128C32.6594 24.9438 34.4375 22.7382 34.4375 20.2017V10.6732C34.4375 8.13675 32.6594 5.93117 30.1514 5.56225C26.459 5.0203 22.732 4.74882 19 4.75C15.2127 4.75 11.4887 5.02708 7.84858 5.56225C5.34058 5.93117 3.5625 8.13833 3.5625 10.6732V20.2017V20.2033Z" stroke="white" stroke-width="3" stroke-linecap="round" stroke-linejoin="round"/>
</svg>
