<svg width="250" height="250" viewBox="0 0 250 250" fill="none" xmlns="http://www.w3.org/2000/svg">
<g clip-path="url(#clip0_552_40)">
<path d="M0 54.1826H4.44919L14.3041 66.5479V57.0362C14.3829 56.3823 14.2666 55.7195 13.9705 55.1338C13.7867 54.9517 13.566 54.8127 13.3239 54.7266C13.0818 54.6406 12.8241 54.6095 12.569 54.6356H12.0128V54.1826H17.641V54.6356H17.0849C16.8026 54.5997 16.5159 54.6369 16.2515 54.7438C15.9871 54.8507 15.7534 55.0238 15.5722 55.247C15.3405 55.8121 15.2489 56.4265 15.3052 57.0362V70.9415H14.927L4.24898 57.6476V67.8162C4.19305 68.4449 4.30045 69.0775 4.56042 69.6506C4.74667 69.829 4.96769 69.9656 5.20913 70.0514C5.45058 70.1372 5.70705 70.1704 5.96192 70.1488H6.54031V70.6018H0.889838V70.1488H1.46823C1.73433 70.1947 2.00742 70.1732 2.26345 70.0863C2.51948 69.9994 2.7506 69.8498 2.93647 69.6506C3.14961 69.0886 3.23332 68.4842 3.18117 67.8841V56.3341C2.89483 55.9364 2.57474 55.5651 2.2246 55.2244C1.85464 55.0066 1.45825 54.8391 1.04556 54.7261C0.702301 54.6504 0.350894 54.62 0 54.6356L0 54.1826Z" fill="white"/>
<path d="M40.6878 65.1214H34.4145L33.3689 67.7485C33.1467 68.1951 33.0036 68.6781 32.9462 69.1752C32.9513 69.3085 32.986 69.4389 33.0477 69.5565C33.1093 69.6742 33.1963 69.7761 33.3022 69.8547C33.7759 70.1046 34.3037 70.2292 34.8372 70.217V70.67H29.7206V70.217C30.1999 70.1858 30.6615 70.0213 31.0553 69.7414C31.63 69.074 32.0821 68.3069 32.3901 67.4767L38.0406 53.7979H38.4632L44.1137 67.522C44.3674 68.3532 44.7836 69.1235 45.3372 69.7867C45.7864 70.1318 46.3318 70.3222 46.8945 70.3302V70.7832H40.5099V70.3302C40.9616 70.3607 41.4118 70.2501 41.8001 70.0132C41.9072 69.9359 41.9951 69.8342 42.0569 69.7163C42.1187 69.5983 42.1526 69.4674 42.1561 69.3338C42.0983 68.7415 41.9323 68.1655 41.6667 67.6352L40.6878 65.1214ZM40.3541 64.2155L37.6179 57.5799L34.7927 64.2382L40.3541 64.2155Z" fill="white"/>
<path d="M72.7442 54.1826L62.0884 69.6506H68.7622C69.6212 69.7284 70.4796 69.4959 71.187 68.9938C71.9006 68.2193 72.3996 67.2659 72.633 66.2309H73.0334L72.2548 70.6018H58.974V70.1488L69.3851 55.1564H64.1796C63.5357 55.1138 62.8905 55.2143 62.2886 55.4509C61.9214 55.6214 61.6174 55.9071 61.4211 56.2662C61.1208 56.9075 60.9326 57.5972 60.8649 58.3044H60.3977L60.7537 54.1826H72.7442Z" fill="white"/>
<path d="M88.1829 68.315C88.3563 68.3107 88.5286 68.3427 88.6893 68.4089C88.85 68.4751 88.9957 68.5742 89.1173 68.7C89.2408 68.8238 89.3382 68.9721 89.4032 69.1357C89.4682 69.2993 89.4996 69.4747 89.4955 69.6511C89.4998 70.0137 89.364 70.3635 89.1173 70.625C88.8659 70.8707 88.5314 71.0085 88.1829 71.01C87.9988 71.0296 87.8127 71.0087 87.6372 70.9486C87.4618 70.8886 87.301 70.7908 87.166 70.6619C87.0309 70.533 86.9247 70.376 86.8545 70.2016C86.7843 70.0272 86.7518 69.8395 86.7592 69.6511C86.7576 69.4751 86.7901 69.3004 86.855 69.1371C86.9199 68.9739 87.0159 68.8253 87.1374 68.7C87.2715 68.5592 87.4353 68.4513 87.6165 68.3846C87.7977 68.3179 87.9914 68.2941 88.1829 68.315Z" fill="white"/>
<path d="M113.922 65.1214H107.67L106.558 67.7258C106.34 68.1727 106.205 68.6562 106.158 69.1526C106.159 69.2866 106.193 69.4182 106.254 69.5364C106.316 69.6546 106.405 69.756 106.514 69.832C106.978 70.0858 107.5 70.2108 108.026 70.1944V70.6473H102.932V70.1944C103.41 70.1402 103.865 69.9521 104.245 69.6508C104.82 68.9802 105.279 68.2143 105.602 67.3861L111.23 53.7979H111.652L117.281 67.522C117.54 68.3555 117.964 69.1262 118.526 69.7867C118.967 70.1315 119.506 70.3221 120.061 70.3302V70.7832H113.744V70.3302C114.202 70.3518 114.656 70.242 115.056 70.0132C115.157 69.9313 115.239 69.8281 115.296 69.7108C115.354 69.5935 115.386 69.4649 115.39 69.3338C115.332 68.7443 115.174 68.1696 114.923 67.6352L113.922 65.1214ZM113.588 64.2155L110.852 57.5799L108.026 64.2382L113.588 64.2155Z" fill="white"/>
<path d="M134.966 68.3145C135.316 68.3144 135.653 68.4545 135.902 68.7044C136.152 68.9544 136.295 69.2942 136.301 69.6507C136.304 69.8323 136.27 70.0127 136.201 70.1803C136.132 70.3479 136.03 70.4992 135.901 70.6245C135.779 70.7503 135.633 70.8493 135.473 70.9155C135.312 70.9818 135.139 71.0137 134.966 71.0095C134.793 71.0112 134.622 70.978 134.461 70.9119C134.301 70.8459 134.155 70.7482 134.032 70.6245C133.903 70.4992 133.8 70.3479 133.731 70.1803C133.662 70.0127 133.628 69.8323 133.631 69.6507C133.629 69.4724 133.663 69.2955 133.732 69.1316C133.801 68.9677 133.903 68.8204 134.032 68.6995C134.152 68.5714 134.297 68.4709 134.458 68.4045C134.619 68.3381 134.793 68.3074 134.966 68.3145Z" fill="white"/>
<path d="M166.066 70.6696H161.617L156.256 62.8563H155.255H154.565V67.7481C154.484 68.4093 154.601 69.0799 154.899 69.6731C155.07 69.8624 155.281 70.0096 155.516 70.1038C155.751 70.1979 156.004 70.2365 156.256 70.2166H156.878V70.6696H149.938V70.2166H150.561C150.842 70.2411 151.125 70.1915 151.382 70.0725C151.639 69.9535 151.862 69.7692 152.029 69.5372C152.243 68.9676 152.327 68.3556 152.274 67.7481V57.1039C152.353 56.4354 152.237 55.7579 151.94 55.1563C151.761 54.9719 151.545 54.8297 151.307 54.7397C151.069 54.6497 150.814 54.6141 150.561 54.6354H149.938V54.1825H155.855C157.135 54.1243 158.416 54.254 159.659 54.5675C160.48 54.8434 161.201 55.3642 161.728 56.0622C162.266 56.6919 162.573 57.4924 162.596 58.3269C162.607 59.3038 162.258 60.2496 161.617 60.9766C160.798 61.8132 159.738 62.3608 158.591 62.5392L161.951 67.3857C162.47 68.2502 163.132 69.0164 163.908 69.6504C164.585 70.057 165.348 70.2902 166.133 70.3299L166.066 70.6696ZM154.565 62.1995H155.232C156.478 62.2918 157.716 61.9307 158.725 61.1804C159.102 60.8654 159.404 60.4673 159.608 60.0162C159.813 59.565 159.914 59.0726 159.904 58.576C159.916 58.1133 159.838 57.6528 159.674 57.2212C159.51 56.7896 159.263 56.3956 158.947 56.0622C158.615 55.7356 158.22 55.481 157.788 55.3136C157.356 55.1463 156.895 55.0696 156.434 55.0883C155.804 55.1127 155.179 55.1961 154.565 55.3375V62.1995Z" fill="white"/>
<path d="M182.417 55.0659V61.5882H185.976C186.629 61.6633 187.287 61.5117 187.845 61.1579C188.311 60.6137 188.558 59.9096 188.534 59.1876H189.091V64.94H188.646C188.598 64.4146 188.486 63.8973 188.312 63.4C188.156 63.0986 187.906 62.8593 187.6 62.7206C187.119 62.5301 186.603 62.4452 186.087 62.4715H182.417V67.9294C182.371 68.366 182.371 68.8063 182.417 69.2429C182.485 69.4111 182.612 69.5481 182.773 69.6279C183.055 69.7422 183.36 69.7887 183.663 69.7638H186.421C187.093 69.7843 187.765 69.7235 188.423 69.5827C188.87 69.4234 189.274 69.1597 189.602 68.8127C190.222 68.1402 190.74 67.3768 191.137 66.5479H191.604L190.203 70.6924H177.968V70.2394H178.546C178.925 70.2386 179.299 70.1454 179.636 69.9677C179.872 69.8415 180.054 69.6321 180.148 69.3788C180.262 68.8589 180.307 68.3257 180.281 67.7935V57.0362C180.353 56.3775 180.246 55.7114 179.97 55.1111C179.778 54.9362 179.552 54.8036 179.307 54.7217C179.062 54.6399 178.803 54.6105 178.546 54.6356H177.968V54.1826H190.448L190.626 57.7835H190.158C190.03 57.1765 189.804 56.5951 189.491 56.0623C189.275 55.7279 188.965 55.4674 188.601 55.315C188.038 55.1434 187.453 55.0594 186.866 55.0659H182.417Z" fill="white"/>
<path d="M203.484 54.1826H207.933L217.788 66.5479V57.0362C217.867 56.3823 217.75 55.7195 217.454 55.1338C217.268 54.9554 217.047 54.8188 216.806 54.733C216.564 54.6471 216.308 54.614 216.053 54.6356H215.474V54.1826H221.125V54.6356H220.546C220.274 54.6072 220 54.6483 219.747 54.7551C219.495 54.8618 219.273 55.0309 219.1 55.247C218.869 55.8121 218.777 56.4265 218.833 57.0362V70.9415H218.411L207.71 57.6476V67.8162C207.635 68.4699 207.751 69.132 208.044 69.7185C208.228 69.9007 208.449 70.0396 208.691 70.1257C208.933 70.2118 209.191 70.2429 209.446 70.2168H210.002V70.6697H204.374V70.2168H204.93C205.201 70.2543 205.478 70.2222 205.734 70.1234C205.991 70.0245 206.219 69.862 206.398 69.6506C206.633 69.0945 206.725 68.4865 206.665 67.8841V56.3341C206.343 55.9315 205.986 55.56 205.597 55.2244C205.262 55.0153 204.904 54.848 204.529 54.7261C204.182 54.6806 203.831 54.6806 203.484 54.7261V54.1826Z" fill="white"/>
<path d="M238.032 55.0659V61.5882H241.613C242.259 61.6635 242.911 61.5117 243.46 61.1579C243.936 60.6198 244.184 59.9114 244.149 59.1876H244.594V64.94H244.149C244.101 64.4146 243.989 63.8973 243.816 63.4C243.66 63.0986 243.409 62.8593 243.104 62.7206C242.63 62.5293 242.122 62.4443 241.613 62.4715H238.032V67.9294C237.969 68.3649 237.969 68.8074 238.032 69.2429C238.098 69.4054 238.215 69.5409 238.365 69.6279C238.656 69.7417 238.967 69.7882 239.277 69.7638H242.014C242.686 69.7843 243.358 69.7235 244.016 69.5827C244.467 69.4186 244.877 69.1558 245.217 68.8127C245.829 68.1384 246.339 67.3752 246.73 66.5479H247.197L245.796 70.6924H233.583V70.2394H234.161C234.54 70.2386 234.914 70.1454 235.251 69.9677C235.486 69.8415 235.668 69.6321 235.763 69.3788C235.877 68.8589 235.922 68.3257 235.896 67.7935V57.0362C235.981 56.3773 235.872 55.7076 235.585 55.1111C235.394 54.9338 235.168 54.7996 234.923 54.7177C234.678 54.6357 234.418 54.6077 234.161 54.6356H233.583V54.1826H246.062L246.263 57.7835H245.796C245.698 57.1624 245.511 56.5594 245.239 55.9944C245.006 55.6668 244.691 55.4088 244.327 55.247C243.726 55.0847 243.102 55.0235 242.481 55.0659H238.032Z" fill="white"/>
<path d="M1.09003 74.7695H250" stroke="white" stroke-miterlimit="10"/>
<path d="M1.09003 172.673H250" stroke="white" stroke-width="2" stroke-miterlimit="10"/>
<path d="M13.3476 178.946V184.653H12.9694C12.8776 183.734 12.6133 182.842 12.1908 182.026C11.8095 181.377 11.2639 180.845 10.6113 180.486C9.93112 180.102 9.16411 179.907 8.38672 179.919C8.01261 179.905 7.63928 179.965 7.28809 180.097C6.9369 180.229 6.61476 180.43 6.3401 180.689C6.082 180.903 5.87409 181.172 5.73165 181.478C5.58921 181.783 5.51587 182.118 5.517 182.456C5.52158 182.957 5.70322 183.439 6.02865 183.815C7.07092 184.818 8.26527 185.644 9.56576 186.261C10.6461 186.807 11.6804 187.443 12.6579 188.163C13.1992 188.577 13.6405 189.112 13.9482 189.726C14.2384 190.308 14.3908 190.952 14.3931 191.605C14.3928 192.217 14.2658 192.821 14.0205 193.379C13.7752 193.937 13.417 194.436 12.9694 194.844C11.9611 195.772 10.6349 196.26 9.27656 196.203C8.83675 196.202 8.39777 196.164 7.96405 196.09C7.71935 196.09 7.20769 195.886 6.42908 195.637C5.94716 195.454 5.44749 195.325 4.9386 195.252C4.7657 195.248 4.59822 195.313 4.47144 195.433C4.3229 195.662 4.23832 195.928 4.22673 196.203H3.78181V190.541H4.22673C4.35225 191.465 4.63055 192.361 5.04983 193.191C5.44741 193.824 6.00946 194.334 6.67379 194.663C7.39943 195.056 8.20995 195.258 9.03186 195.252C9.89178 195.3 10.7367 195.008 11.3899 194.436C11.6641 194.205 11.8841 193.914 12.0342 193.585C12.1842 193.256 12.2605 192.897 12.2575 192.534C12.2519 192.104 12.1369 191.682 11.9238 191.311C11.6719 190.853 11.3222 190.458 10.9005 190.156C10.0841 189.595 9.2374 189.081 8.36448 188.616C7.33421 188.056 6.34536 187.42 5.40577 186.714C4.86659 186.285 4.41345 185.754 4.07101 185.151C3.77524 184.578 3.62244 183.941 3.62609 183.294C3.61913 182.716 3.73479 182.144 3.96516 181.617C4.19554 181.089 4.53518 180.618 4.96085 180.237C5.4169 179.804 5.95229 179.467 6.53634 179.246C7.12039 179.024 7.74163 178.922 8.36448 178.946C9.31792 178.954 10.2585 179.17 11.123 179.58C11.4206 179.743 11.7446 179.85 12.0796 179.897C12.1706 179.9 12.2614 179.883 12.3457 179.848C12.4301 179.813 12.5062 179.76 12.569 179.693C12.7497 179.483 12.8657 179.223 12.9027 178.946H13.3476Z" fill="white"/>
<path d="M60.9094 179.331L61.0874 183.181H60.6202C60.5918 182.679 60.4711 182.188 60.2643 181.732C60.0471 181.293 59.7063 180.93 59.2854 180.69C58.7802 180.441 58.2221 180.324 57.6615 180.35H55.4369V192.965C55.3722 193.616 55.4797 194.272 55.7483 194.867C55.9346 195.045 56.1556 195.182 56.397 195.268C56.6385 195.354 56.895 195.387 57.1498 195.365H57.706V195.818H50.7875V195.365H51.3659C51.6433 195.395 51.9236 195.352 52.1805 195.241C52.4373 195.13 52.6622 194.955 52.8341 194.731C53.0694 194.175 53.1613 193.567 53.1011 192.965V180.35H51.1657C50.6258 180.326 50.0855 180.387 49.564 180.531C49.1253 180.703 48.7515 181.013 48.4962 181.415C48.1644 181.943 47.9798 182.554 47.9623 183.181H47.5173L47.6953 179.331H60.9094Z" fill="white"/>
<path d="M104.333 179.761V179.331H110.051V179.761H109.45C109.156 179.749 108.864 179.818 108.605 179.962C108.346 180.105 108.131 180.318 107.982 180.577C107.76 181.136 107.676 181.743 107.737 182.343V189.137C107.779 190.439 107.613 191.739 107.248 192.987C106.856 193.926 106.188 194.717 105.335 195.252C104.178 195.966 102.836 196.306 101.486 196.226C100.084 196.312 98.6877 195.99 97.4595 195.297C96.5686 194.69 95.8907 193.809 95.5241 192.783C95.1965 191.452 95.069 190.077 95.1459 188.707V182.23C95.2148 181.537 95.0668 180.839 94.7232 180.237C94.5485 180.063 94.3384 179.93 94.1078 179.848C93.8772 179.766 93.6316 179.736 93.3885 179.761H92.7878V179.331H99.7731V179.761H99.1724C98.8964 179.736 98.6186 179.783 98.3655 179.898C98.1124 180.013 97.8924 180.192 97.7264 180.418C97.4779 180.986 97.3783 181.611 97.4372 182.23V189.432C97.4369 190.189 97.4889 190.946 97.593 191.696C97.6663 192.379 97.8866 193.036 98.2381 193.621C98.5577 194.118 99.0036 194.517 99.5284 194.776C100.188 195.094 100.912 195.249 101.642 195.229C102.663 195.238 103.668 194.972 104.556 194.459C105.306 194.062 105.908 193.426 106.269 192.648C106.628 191.438 106.779 190.173 106.714 188.911V182.23C106.789 181.569 106.673 180.9 106.38 180.305C106.205 180.115 105.99 179.968 105.751 179.874C105.512 179.78 105.256 179.741 105.001 179.761H104.333Z" fill="white"/>
<path d="M141.684 195.818V195.365H142.374C142.653 195.392 142.933 195.343 143.187 195.224C143.441 195.105 143.66 194.919 143.82 194.685C144.054 194.121 144.146 193.506 144.087 192.896V182.229C144.162 181.568 144.046 180.899 143.753 180.304C143.577 180.116 143.362 179.969 143.123 179.876C142.885 179.782 142.629 179.742 142.374 179.761H141.751V179.331H148.425C150.3 179.235 152.176 179.52 153.942 180.168C155.169 180.742 156.188 181.692 156.856 182.886C157.624 184.264 158.002 185.832 157.946 187.416C158.007 189.528 157.275 191.585 155.9 193.168C155.002 194.071 153.929 194.774 152.749 195.23C151.569 195.686 150.308 195.887 149.048 195.818H141.684ZM146.312 194.617C147.15 194.821 148.008 194.935 148.87 194.957C149.735 194.988 150.596 194.827 151.395 194.487C152.194 194.147 152.911 193.635 153.497 192.987C154.692 191.453 155.342 189.554 155.342 187.597C155.342 185.64 154.692 183.74 153.497 182.207C152.898 181.557 152.169 181.044 151.36 180.704C150.55 180.365 149.678 180.205 148.803 180.236C147.977 180.262 147.155 180.383 146.356 180.599L146.312 194.617Z" fill="white"/>
<path d="M197.455 195.365V195.818H190.514V195.365H191.093C191.362 195.39 191.634 195.35 191.885 195.248C192.137 195.145 192.361 194.984 192.539 194.776C192.797 194.187 192.897 193.538 192.828 192.897V182.23C192.862 181.674 192.809 181.116 192.672 180.577C192.565 180.356 192.394 180.174 192.183 180.056C191.847 179.872 191.474 179.771 191.093 179.761H190.514V179.331H197.455V179.761H196.877C196.605 179.735 196.331 179.777 196.079 179.884C195.827 179.99 195.604 180.158 195.431 180.373C195.16 180.951 195.053 181.593 195.119 182.23V192.897C195.084 193.453 195.136 194.011 195.275 194.55C195.379 194.78 195.561 194.965 195.787 195.071C196.116 195.271 196.493 195.373 196.877 195.365H197.455Z" fill="white"/>
<path d="M238.032 178.946C239.058 178.942 240.073 179.158 241.012 179.579C241.951 180 242.793 180.618 243.482 181.392C244.234 182.2 244.819 183.154 245.201 184.196C245.583 185.239 245.755 186.35 245.707 187.461C245.803 189.762 245.003 192.008 243.482 193.712C242.755 194.49 241.88 195.109 240.91 195.532C239.941 195.955 238.897 196.173 237.843 196.173C236.788 196.173 235.744 195.955 234.775 195.532C233.805 195.109 232.93 194.49 232.203 193.712C230.679 192.001 229.879 189.747 229.979 187.439C229.936 186.241 230.149 185.048 230.602 183.942C231.055 182.836 231.738 181.842 232.604 181.03C234.082 179.649 236.026 178.903 238.032 178.946ZM237.787 179.829C237.121 179.805 236.459 179.943 235.856 180.23C235.253 180.518 234.725 180.947 234.317 181.483C233.109 183.223 232.527 185.335 232.67 187.461C232.526 189.665 233.123 191.853 234.361 193.667C234.766 194.201 235.29 194.629 235.889 194.916C236.489 195.204 237.147 195.342 237.809 195.32C238.531 195.338 239.247 195.183 239.9 194.868C240.553 194.554 241.124 194.088 241.569 193.508C242.701 191.839 243.228 189.822 243.059 187.801C243.229 185.569 242.657 183.344 241.435 181.483C240.989 180.927 240.419 180.488 239.774 180.2C239.128 179.913 238.424 179.786 237.72 179.829H237.787Z" fill="white"/>
<path d="M160.104 80.0684V101.198H206.576L157.791 168.302H250V148.508H200.058L250 80.0684H160.104Z" fill="white"/>
<path d="M141.729 80.0684H83.8895L68.562 95.6722V127.378L2.80298 80.0684V168.392H23.8254V121.082L90.3186 168.302V151.52H136.279V168.302H157.791V96.4196L141.729 80.0684ZM136.279 130.141H90.5633V100.451H136.279V130.141Z" fill="white"/>
</g>
<defs>
<clipPath id="clip0_552_40">
<rect width="250" height="142.405" fill="white" transform="translate(0 53.7979)"/>
</clipPath>
</defs>
</svg>
