<svg width="79" height="79" viewBox="0 0 79 79" fill="none" xmlns="http://www.w3.org/2000/svg">
<g clip-path="url(#clip0_106_25)">
<path d="M0 17.1217H1.40594L4.52011 21.0291V18.0234C4.54498 17.8168 4.50824 17.6073 4.41466 17.4222C4.3566 17.3647 4.28687 17.3208 4.21036 17.2936C4.13385 17.2664 4.05242 17.2565 3.97179 17.2648H3.79605V17.1217H5.57457V17.2648H5.39883C5.30961 17.2534 5.21903 17.2652 5.13547 17.299C5.05191 17.3328 4.97808 17.3875 4.9208 17.458C4.84761 17.6366 4.81864 17.8307 4.83645 18.0234V22.4175H4.71694L1.34268 18.2166V21.4299C1.325 21.6285 1.35894 21.8284 1.44109 22.0095C1.49995 22.0659 1.56979 22.1091 1.64609 22.1362C1.72238 22.1633 1.80343 22.1738 1.88397 22.167H2.06674V22.3101H0.281189V22.167H0.463962C0.548049 22.1815 0.634344 22.1747 0.71525 22.1472C0.796156 22.1198 0.86919 22.0725 0.927923 22.0095C0.995275 21.8319 1.02173 21.641 1.00525 21.4513V17.8015C0.914765 17.6759 0.813617 17.5585 0.702972 17.4509C0.586065 17.382 0.460808 17.3291 0.330397 17.2934C0.221927 17.2695 0.110883 17.2599 0 17.2648L0 17.1217Z" fill="white"/>
<path d="M12.8573 20.5782H10.875L10.5446 21.4084C10.4744 21.5495 10.4291 21.7021 10.411 21.8593C10.4126 21.9014 10.4236 21.9426 10.443 21.9797C10.4625 22.0169 10.49 22.0491 10.5235 22.074C10.6732 22.1529 10.84 22.1923 11.0085 22.1885V22.3316H9.39169V22.1885C9.54314 22.1786 9.68903 22.1266 9.81348 22.0382C9.99506 21.8273 10.1379 21.5849 10.2353 21.3225L12.0208 17H12.1544L13.9399 21.3368C14.0201 21.5995 14.1516 21.8429 14.3266 22.0525C14.4685 22.1615 14.6408 22.2217 14.8186 22.2242V22.3674H12.8011V22.2242C12.9439 22.2339 13.0861 22.1989 13.2088 22.124C13.2427 22.0996 13.2704 22.0675 13.29 22.0302C13.3095 21.993 13.3202 21.9516 13.3213 21.9094C13.303 21.7222 13.2506 21.5402 13.1667 21.3726L12.8573 20.5782ZM12.7519 20.292L11.8872 18.1951L10.9945 20.2991L12.7519 20.292Z" fill="white"/>
<path d="M22.9872 17.1217L19.62 22.0095H21.7289C22.0003 22.0341 22.2716 21.9607 22.4951 21.802C22.7206 21.5573 22.8783 21.256 22.9521 20.9289H23.0786L22.8325 22.3101H18.6358V22.167L21.9257 17.4294H20.2808C20.0773 17.4159 19.8734 17.4477 19.6832 17.5224C19.5672 17.5763 19.4711 17.6666 19.4091 17.7801C19.3142 17.9827 19.2547 18.2007 19.2333 18.4241H19.0857L19.1982 17.1217H22.9872Z" fill="white"/>
<path d="M27.8658 21.5873C27.9206 21.586 27.975 21.5961 28.0258 21.617C28.0766 21.6379 28.1226 21.6692 28.1611 21.709C28.2001 21.7481 28.2309 21.7949 28.2514 21.8466C28.272 21.8983 28.2819 21.9538 28.2806 22.0095C28.2819 22.1241 28.239 22.2346 28.1611 22.3173C28.0816 22.3949 27.9759 22.4385 27.8658 22.4389C27.8076 22.4451 27.7488 22.4385 27.6934 22.4195C27.6379 22.4006 27.5871 22.3697 27.5445 22.3289C27.5018 22.2882 27.4682 22.2386 27.446 22.1835C27.4238 22.1284 27.4136 22.0691 27.4159 22.0095C27.4154 21.9539 27.4257 21.8987 27.4462 21.8471C27.4667 21.7955 27.497 21.7486 27.5354 21.709C27.5778 21.6645 27.6296 21.6304 27.6868 21.6093C27.7441 21.5882 27.8053 21.5807 27.8658 21.5873Z" fill="white"/>
<path d="M35.9992 20.5782H34.0239L33.6724 21.4012C33.6036 21.5424 33.5607 21.6952 33.5458 21.8521C33.5464 21.8944 33.5568 21.936 33.5764 21.9734C33.596 22.0107 33.6241 22.0428 33.6583 22.0668C33.805 22.147 33.9699 22.1865 34.1363 22.1813V22.3244H32.5265V22.1813C32.6777 22.1642 32.8213 22.1047 32.9413 22.0095C33.1232 21.7976 33.2683 21.5556 33.3701 21.2939L35.1486 17H35.2822L37.0607 21.3368C37.1426 21.6002 37.2766 21.8438 37.4544 22.0525C37.5936 22.1614 37.7638 22.2217 37.9394 22.2242V22.3674H35.943V22.2242C36.0877 22.2311 36.2314 22.1963 36.3577 22.124C36.3895 22.0982 36.4154 22.0656 36.4336 22.0285C36.4518 21.9914 36.4619 21.9508 36.4632 21.9094C36.4448 21.7231 36.3949 21.5415 36.3155 21.3726L35.9992 20.5782ZM35.8938 20.292L35.0291 18.1951L34.1363 20.2991L35.8938 20.292Z" fill="white"/>
<path d="M42.6493 21.5873C42.76 21.5873 42.8662 21.6315 42.9451 21.7105C43.024 21.7895 43.0693 21.8969 43.0711 22.0095C43.0721 22.067 43.0613 22.1239 43.0395 22.1769C43.0178 22.2299 42.9854 22.2777 42.9446 22.3173C42.9061 22.357 42.8601 22.3883 42.8093 22.4092C42.7585 22.4302 42.7041 22.4403 42.6493 22.4389C42.5947 22.4395 42.5404 22.429 42.4898 22.4081C42.4391 22.3872 42.393 22.3564 42.3541 22.3173C42.3132 22.2777 42.2809 22.2299 42.2591 22.1769C42.2373 22.1239 42.2266 22.067 42.2275 22.0095C42.2267 21.9532 42.2375 21.8973 42.2593 21.8455C42.2811 21.7937 42.3134 21.7472 42.3541 21.709C42.392 21.6685 42.4379 21.6367 42.4888 21.6157C42.5397 21.5948 42.5944 21.5851 42.6493 21.5873Z" fill="white"/>
<path d="M52.4769 22.3316H51.0709L49.3767 19.8626H49.0604H48.8425V21.4084C48.8171 21.6173 48.8538 21.8292 48.9479 22.0167C49.002 22.0765 49.0687 22.123 49.1429 22.1528C49.2172 22.1825 49.2972 22.1947 49.3767 22.1885H49.5736V22.3316H47.3803V22.1885H47.5771C47.6661 22.1962 47.7555 22.1805 47.8367 22.1429C47.918 22.1053 47.9884 22.0471 48.0411 21.9738C48.1088 21.7938 48.1352 21.6004 48.1184 21.4084V18.0448C48.1436 17.8336 48.1069 17.6195 48.013 17.4294C47.9566 17.3711 47.8884 17.3262 47.813 17.2977C47.7377 17.2693 47.6572 17.2581 47.5771 17.2648H47.3803V17.1217H49.2502C49.6546 17.1033 50.0594 17.1443 50.4523 17.2433C50.7118 17.3305 50.9395 17.4951 51.1061 17.7156C51.2762 17.9146 51.3731 18.1676 51.3802 18.4313C51.3839 18.74 51.2735 19.0389 51.0709 19.2686C50.8122 19.533 50.4772 19.706 50.1149 19.7624L51.1764 21.2939C51.3404 21.5671 51.5497 21.8092 51.795 22.0095C52.0088 22.138 52.25 22.2117 52.4979 22.2242L52.4769 22.3316ZM48.8425 19.6551H49.0534C49.4471 19.6842 49.8383 19.5701 50.157 19.333C50.2762 19.2335 50.3717 19.1077 50.4362 18.9651C50.5008 18.8226 50.5327 18.667 50.5296 18.51C50.5335 18.3638 50.5088 18.2183 50.4569 18.0819C50.405 17.9455 50.327 17.821 50.2273 17.7156C50.1222 17.6125 49.9976 17.532 49.8611 17.4791C49.7246 17.4262 49.5789 17.402 49.433 17.4079C49.2342 17.4156 49.0365 17.442 48.8425 17.4866V19.6551Z" fill="white"/>
<path d="M57.6437 17.4008V19.4618H58.7685C58.9747 19.4856 59.1828 19.4376 59.359 19.3259C59.5064 19.1539 59.5843 18.9314 59.5769 18.7032H59.7526V20.521H59.612C59.5968 20.355 59.5614 20.1915 59.5066 20.0344C59.4574 19.9391 59.3782 19.8635 59.2816 19.8197C59.1295 19.7595 58.9666 19.7326 58.8036 19.7409H57.6437V21.4656C57.6292 21.6036 57.6292 21.7428 57.6437 21.8807C57.6654 21.9339 57.7054 21.9771 57.7562 22.0024C57.8454 22.0385 57.9416 22.0532 58.0374 22.0453H58.9091C59.1214 22.0518 59.3338 22.0326 59.5417 21.9881C59.6829 21.9378 59.8105 21.8544 59.9143 21.7448C60.1103 21.5323 60.2738 21.291 60.3994 21.0291H60.547L60.1041 22.3387H56.2378V22.1956H56.4205C56.5404 22.1953 56.6585 22.1659 56.765 22.1097C56.8394 22.0699 56.8969 22.0037 56.9267 21.9237C56.9628 21.7594 56.977 21.5909 56.9689 21.4227V18.0234C56.9917 17.8153 56.9576 17.6048 56.8704 17.4151C56.8097 17.3598 56.7384 17.3179 56.6609 17.292C56.5835 17.2662 56.5017 17.2569 56.4205 17.2648H56.2378V17.1217H60.1814L60.2377 18.2595H60.0901C60.0494 18.0677 59.9782 17.884 59.8792 17.7156C59.8109 17.61 59.7129 17.5277 59.598 17.4795C59.4201 17.4253 59.2353 17.3987 59.0497 17.4008H57.6437Z" fill="white"/>
<path d="M64.3008 17.1217H65.7068L68.821 21.0291V18.0234C68.8458 17.8168 68.8091 17.6073 68.7155 17.4222C68.6567 17.3659 68.5868 17.3227 68.5105 17.2956C68.4342 17.2685 68.3532 17.258 68.2726 17.2648H68.0899V17.1217H69.8754V17.2648H69.6926C69.6067 17.2558 69.5199 17.2688 69.4402 17.3026C69.3604 17.3363 69.2901 17.3897 69.2357 17.458C69.1625 17.6366 69.1335 17.8307 69.1514 18.0234V22.4175H69.0178L65.6365 18.2166V21.4299C65.6125 21.6365 65.6492 21.8457 65.7419 22.031C65.8 22.0886 65.8697 22.1325 65.9462 22.1597C66.0227 22.1869 66.1042 22.1967 66.1848 22.1885H66.3606V22.3316H64.582V22.1885H64.7578C64.8436 22.2003 64.931 22.1902 65.0121 22.1589C65.0931 22.1277 65.1652 22.0763 65.2217 22.0095C65.2961 21.8338 65.3251 21.6417 65.3061 21.4513V17.8015C65.2045 17.6743 65.0915 17.5569 64.9687 17.4509C64.8628 17.3848 64.7495 17.3319 64.6312 17.2934C64.5216 17.279 64.4105 17.279 64.3008 17.2934V17.1217Z" fill="white"/>
<path d="M75.218 17.4008V19.4618H76.3498C76.5538 19.4856 76.7597 19.4376 76.9333 19.3259C77.0839 19.1558 77.1623 18.932 77.1512 18.7032H77.2918V20.521H77.1512C77.136 20.355 77.1006 20.1915 77.0457 20.0344C76.9965 19.9391 76.9173 19.8635 76.8208 19.8197C76.6712 19.7592 76.5105 19.7323 76.3498 19.7409H75.218V21.4656C75.1982 21.6033 75.1982 21.7431 75.218 21.8807C75.2389 21.9321 75.276 21.9749 75.3235 22.0024C75.4152 22.0383 75.5137 22.053 75.6117 22.0453H76.4763C76.6887 22.0518 76.9011 22.0326 77.109 21.9881C77.2515 21.9362 77.3811 21.8532 77.4886 21.7448C77.682 21.5317 77.8431 21.2905 77.9666 21.0291H78.1143L77.6714 22.3387H73.8121V22.1956H73.9948C74.1147 22.1953 74.2328 22.1659 74.3393 22.1097C74.4137 22.0699 74.4712 22.0037 74.501 21.9237C74.5371 21.7594 74.5513 21.5909 74.5432 21.4227V18.0234C74.5699 17.8152 74.5357 17.6036 74.4447 17.4151C74.3845 17.359 74.3132 17.3166 74.2357 17.2907C74.1581 17.2648 74.076 17.256 73.9948 17.2648H73.8121V17.1217H77.7557L77.819 18.2595H77.6714C77.6407 18.0633 77.5814 17.8727 77.4956 17.6942C77.422 17.5907 77.3225 17.5091 77.2074 17.458C77.0173 17.4067 76.8202 17.3874 76.624 17.4008H75.218Z" fill="white"/>
<path d="M0.344452 23.6269H79" stroke="white" stroke-miterlimit="10"/>
<path d="M0.344452 54.5644H79" stroke="white" stroke-width="2" stroke-miterlimit="10"/>
<path d="M4.21783 56.5468V58.3502H4.09833C4.06934 58.06 3.98581 57.7781 3.85229 57.52C3.7318 57.3152 3.55941 57.1471 3.35318 57.0334C3.13823 56.9123 2.89586 56.8506 2.65021 56.8545C2.53199 56.8498 2.41401 56.8688 2.30304 56.9106C2.19206 56.9523 2.09027 57.016 2.00347 57.0978C1.92191 57.1652 1.85621 57.2503 1.8112 57.3469C1.76619 57.4435 1.74301 57.5491 1.74337 57.656C1.74482 57.8143 1.80222 57.9667 1.90506 58.0854C2.23441 58.4025 2.61183 58.6635 3.02278 58.8583C3.36418 59.031 3.69099 59.2321 3.99991 59.4594C4.17096 59.5903 4.31041 59.7592 4.40764 59.9532C4.49935 60.1374 4.5475 60.3408 4.54823 60.5472C4.54812 60.7404 4.508 60.9314 4.43048 61.1078C4.35295 61.2841 4.23978 61.4418 4.09833 61.5706C3.77972 61.864 3.36064 62.0182 2.93139 62C2.79241 61.9997 2.6537 61.9877 2.51664 61.9642C2.43931 61.9642 2.27763 61.8998 2.03159 61.8211C1.8793 61.7636 1.72141 61.7228 1.5606 61.6994C1.50596 61.6983 1.45304 61.7188 1.41298 61.7567C1.36604 61.8292 1.33931 61.9133 1.33565 62H1.19505V60.2109H1.33565C1.37531 60.5029 1.46325 60.786 1.59575 61.0482C1.72138 61.2485 1.89899 61.4095 2.10892 61.5134C2.33822 61.6375 2.59434 61.7015 2.85407 61.6994C3.1258 61.7147 3.3928 61.6223 3.59922 61.4418C3.68585 61.3686 3.75539 61.2766 3.8028 61.1727C3.85022 61.0687 3.87433 60.9553 3.87338 60.8406C3.87159 60.7047 3.83527 60.5716 3.76793 60.4542C3.68831 60.3095 3.57781 60.1847 3.44456 60.0892C3.18657 59.9119 2.91902 59.7494 2.64318 59.6026C2.31761 59.4256 2.00513 59.2246 1.70822 59.0014C1.53784 58.8659 1.39465 58.6982 1.28644 58.5076C1.19298 58.3267 1.14469 58.1252 1.14585 57.9208C1.14365 57.7383 1.1802 57.5575 1.25299 57.3908C1.32579 57.224 1.43312 57.0753 1.56763 56.9547C1.71174 56.818 1.88092 56.7116 2.06549 56.6416C2.25005 56.5716 2.44636 56.5394 2.64318 56.5468C2.94446 56.5494 3.2417 56.6177 3.51486 56.7471C3.60892 56.7987 3.7113 56.8326 3.81714 56.8473C3.84592 56.8483 3.87459 56.8431 3.90125 56.832C3.9279 56.8209 3.95195 56.8042 3.97179 56.7829C4.02891 56.7164 4.06558 56.6343 4.07724 56.5468H4.21783Z" fill="white"/>
<path d="M19.2474 56.6684L19.3036 57.885H19.156C19.147 57.7265 19.1089 57.5712 19.0435 57.427C18.9749 57.2884 18.8672 57.1738 18.7342 57.0978C18.5745 57.0192 18.3982 56.9823 18.221 56.9905H17.5181V60.9766C17.4976 61.1824 17.5316 61.3899 17.6165 61.5778C17.6753 61.6341 17.7452 61.6773 17.8215 61.7044C17.8978 61.7315 17.9788 61.742 18.0593 61.7352H18.2351V61.8783H16.0488V61.7352H16.2316C16.3193 61.7446 16.4079 61.7311 16.489 61.696C16.5702 61.661 16.6413 61.6055 16.6956 61.5348C16.7699 61.3591 16.799 61.167 16.7799 60.9766V56.9905H16.1683C15.9977 56.9828 15.827 57.0021 15.6622 57.0477C15.5236 57.1021 15.4055 57.1998 15.3248 57.3268C15.2199 57.4939 15.1616 57.6868 15.1561 57.885H15.0155L15.0717 56.6684H19.2474Z" fill="white"/>
<path d="M32.9694 56.8044V56.6684H34.776V56.8044H34.5862C34.4932 56.8004 34.4009 56.8223 34.3192 56.8677C34.2374 56.9131 34.1694 56.9803 34.1223 57.062C34.052 57.2389 34.0255 57.4305 34.0449 57.6202V59.7672C34.0581 60.1785 34.0058 60.5894 33.8903 60.9838C33.7666 61.2804 33.5553 61.5305 33.2857 61.6994C32.9203 61.9251 32.4962 62.0324 32.0696 62.0072C31.6267 62.0345 31.1853 61.9327 30.7972 61.7137C30.5157 61.5218 30.3015 61.2435 30.1856 60.9194C30.0821 60.4986 30.0418 60.0643 30.0661 59.6312V57.5844C30.0879 57.3654 30.0411 57.145 29.9325 56.9547C29.8773 56.8997 29.8109 56.8578 29.7381 56.8318C29.6652 56.8058 29.5876 56.7965 29.5108 56.8044H29.321V56.6684H31.5283V56.8044H31.3385C31.2513 56.7964 31.1635 56.8113 31.0835 56.8476C31.0035 56.8839 30.934 56.9405 30.8816 57.0119C30.803 57.1915 30.7715 57.3888 30.7902 57.5844V59.8602C30.7901 60.0996 30.8065 60.3388 30.8394 60.5759C30.8626 60.7914 30.9322 60.9991 31.0432 61.1842C31.1442 61.3411 31.2851 61.4672 31.451 61.5491C31.6594 61.6496 31.8882 61.6986 32.1188 61.6923C32.4414 61.695 32.7591 61.6111 33.0397 61.4489C33.2767 61.3234 33.4668 61.1223 33.581 60.8764C33.6945 60.4941 33.7421 60.0945 33.7216 59.6956V57.5844C33.7453 57.3756 33.7087 57.1641 33.6161 56.9761C33.5607 56.9162 33.4928 56.8696 33.4173 56.8399C33.3419 56.8102 33.2609 56.798 33.1803 56.8044H32.9694Z" fill="white"/>
<path d="M44.7723 61.8783V61.7352H44.9902C45.0782 61.7438 45.1669 61.7285 45.2472 61.6908C45.3275 61.6531 45.3965 61.5943 45.4472 61.5205C45.5212 61.3422 45.5502 61.1478 45.5315 60.9552V57.5844C45.5553 57.3756 45.5186 57.1641 45.4261 56.9761C45.3703 56.9166 45.3024 56.8703 45.227 56.8406C45.1517 56.8109 45.0708 56.7986 44.9902 56.8044H44.7934V56.6684H46.9023C47.4949 56.6382 48.0875 56.7282 48.6457 56.9332C49.0333 57.1143 49.3554 57.4147 49.5666 57.792C49.8093 58.2274 49.9285 58.7229 49.911 59.2233C49.9303 59.8909 49.6991 60.5409 49.2643 61.041C48.9807 61.3265 48.6415 61.5485 48.2687 61.6927C47.8958 61.8369 47.4974 61.9001 47.0991 61.8783H44.7723ZM46.2345 61.499C46.4996 61.5634 46.7705 61.5993 47.0429 61.6064C47.3163 61.616 47.5885 61.5654 47.8409 61.4579C48.0933 61.3504 48.3198 61.1887 48.5051 60.9838C48.8826 60.4992 49.088 59.899 49.088 59.2805C49.088 58.6621 48.8826 58.0618 48.5051 57.5773C48.3158 57.3718 48.0855 57.21 47.8296 57.1026C47.5738 56.9952 47.2984 56.9448 47.0218 56.9547C46.7606 56.9626 46.5012 57.001 46.2486 57.0692L46.2345 61.499Z" fill="white"/>
<path d="M62.3958 61.7352V61.8783H60.2025V61.7352H60.3853C60.4705 61.7432 60.5563 61.7304 60.6357 61.6981C60.7152 61.6658 60.7859 61.6147 60.8422 61.5491C60.9238 61.3629 60.9553 61.1579 60.9336 60.9552V57.5844C60.9443 57.4088 60.9277 57.2324 60.8844 57.062C60.8506 56.9923 60.7966 56.9349 60.7297 56.8974C60.6237 56.8393 60.5057 56.8074 60.3853 56.8044H60.2025V56.6684H62.3958V56.8044H62.213C62.1271 56.7961 62.0406 56.8094 61.9609 56.843C61.8812 56.8767 61.8109 56.9298 61.7561 56.9976C61.6707 57.1802 61.6366 57.3833 61.6577 57.5844V60.9552C61.6465 61.1308 61.6631 61.3072 61.7069 61.4776C61.7398 61.5503 61.7971 61.6086 61.8686 61.6422C61.9726 61.7054 62.0919 61.7376 62.213 61.7352H62.3958Z" fill="white"/>
<path d="M75.218 56.5468C75.5423 56.5455 75.8632 56.6136 76.1599 56.7468C76.4566 56.8799 76.7225 57.0751 76.9403 57.3197C77.1779 57.5749 77.3627 57.8763 77.4834 58.2058C77.6042 58.5353 77.6586 58.8862 77.6433 59.2376C77.6736 59.9645 77.421 60.6743 76.9403 61.2128C76.7105 61.4585 76.434 61.6542 76.1277 61.7879C75.8214 61.9216 75.4915 61.9905 75.1583 61.9905C74.825 61.9905 74.4951 61.9216 74.1888 61.7879C73.8825 61.6542 73.606 61.4585 73.3762 61.2128C72.8944 60.6721 72.6418 59.9597 72.6732 59.2304C72.6599 58.8519 72.7271 58.475 72.8703 58.1254C73.0135 57.7758 73.2292 57.4619 73.5028 57.2052C73.9699 56.769 74.5843 56.5331 75.218 56.5468ZM75.1407 56.8259C74.9303 56.8183 74.7212 56.8617 74.5305 56.9525C74.3398 57.0433 74.1731 57.179 74.044 57.3483C73.6623 57.8984 73.4786 58.5657 73.5238 59.2376C73.4783 59.934 73.6667 60.6254 74.0581 61.1985C74.1861 61.3672 74.3516 61.5026 74.5411 61.5934C74.7305 61.6842 74.9384 61.7279 75.1477 61.7209C75.3759 61.7265 75.6022 61.6776 75.8085 61.5782C76.0148 61.4788 76.1953 61.3316 76.3357 61.1484C76.6935 60.621 76.86 59.9835 76.8067 59.3449C76.8603 58.6396 76.6796 57.9365 76.2936 57.3483C76.1525 57.1728 75.9725 57.0338 75.7684 56.943C75.5643 56.8522 75.3419 56.812 75.1196 56.8259H75.1407Z" fill="white"/>
<path d="M50.5929 25.3015V31.9785H65.278L49.8618 53.1832H79V46.9284H63.2183L79 25.3015H50.5929Z" fill="white"/>
<path d="M44.7863 25.3015H26.5091L21.6656 30.2323V40.2514L0.885742 25.3015V53.2118H7.52883V38.2619L28.5407 53.1832V47.8802H43.0641V53.1832H49.8618V30.4685L44.7863 25.3015ZM43.0641 41.1245H28.618V31.7424H43.0641V41.1245Z" fill="white"/>
</g>
<defs>
<clipPath id="clip0_106_25">
<rect width="79" height="45" fill="white" transform="translate(0 17)"/>
</clipPath>
</defs>
</svg>
