<svg width="50" height="55" viewBox="0 0 50 55" fill="none" xmlns="http://www.w3.org/2000/svg">
<g clip-path="url(#clip0_23_6)">
<path d="M0 11.9201H0.889838L2.86083 14.6405V12.5479C2.87657 12.4041 2.85332 12.2583 2.79409 12.1294C2.75734 12.0893 2.71321 12.0588 2.66478 12.0398C2.61636 12.0209 2.56483 12.0141 2.51379 12.0198H2.40256V11.9201H3.52821V12.0198H3.41698C3.36051 12.0119 3.30318 12.0201 3.2503 12.0436C3.19741 12.0671 3.15068 12.1052 3.11443 12.1543C3.06811 12.2786 3.04977 12.4138 3.06104 12.5479V15.6071H2.98541L0.849795 12.6824V14.9195C0.83861 15.0578 0.860091 15.197 0.912084 15.3231C0.949333 15.3624 0.993537 15.3924 1.04183 15.4113C1.09012 15.4302 1.14141 15.4375 1.19238 15.4327H1.30806V15.5324H0.177968V15.4327H0.293647C0.346866 15.4428 0.401484 15.4381 0.45269 15.419C0.503896 15.3998 0.55012 15.3669 0.587293 15.3231C0.629921 15.1995 0.646664 15.0665 0.636234 14.9345V12.3935C0.578965 12.306 0.514948 12.2243 0.444919 12.1493C0.370927 12.1014 0.291651 12.0646 0.209112 12.0397C0.14046 12.0231 0.0701788 12.0164 0 12.0198L0 11.9201Z" fill="white"/>
<path d="M8.13754 14.3266H6.88287L6.67376 14.9046C6.62932 15.0028 6.60071 15.1091 6.58922 15.2185C6.59024 15.2478 6.59718 15.2765 6.60951 15.3024C6.62184 15.3282 6.63924 15.3507 6.66041 15.3679C6.75515 15.4229 6.86072 15.4503 6.96741 15.4477V15.5473H5.94409V15.4477C6.03995 15.4408 6.13228 15.4046 6.21104 15.343C6.32597 15.1962 6.41639 15.0274 6.47799 14.8448L7.60809 11.8354H7.69262L8.82272 14.8548C8.87345 15.0376 8.95669 15.2071 9.06742 15.353C9.15725 15.4289 9.26634 15.4708 9.37887 15.4726V15.5722H8.10195V15.4726C8.1923 15.4793 8.28233 15.4549 8.36 15.4028C8.38142 15.3858 8.399 15.3634 8.41136 15.3375C8.42371 15.3116 8.4305 15.2827 8.43119 15.2533C8.41963 15.123 8.38643 14.9963 8.33331 14.8797L8.13754 14.3266ZM8.0708 14.1273L7.52355 12.6675L6.95851 14.1323L8.0708 14.1273Z" fill="white"/>
<path d="M14.5488 11.9201L12.4177 15.3231H13.7524C13.9242 15.3402 14.0959 15.2891 14.2374 15.1786C14.3801 15.0082 14.4799 14.7985 14.5266 14.5708H14.6067L14.451 15.5324H11.7948V15.4327L13.877 12.1344H12.8359C12.7071 12.125 12.5781 12.1471 12.4577 12.1992C12.3843 12.2367 12.3235 12.2995 12.2842 12.3785C12.2242 12.5196 12.1865 12.6714 12.173 12.8269H12.0795L12.1507 11.9201H14.5488Z" fill="white"/>
<path d="M17.6366 15.0291C17.6713 15.0282 17.7058 15.0352 17.7379 15.0498C17.7701 15.0644 17.7992 15.0862 17.8235 15.1138C17.8482 15.1411 17.8677 15.1737 17.8807 15.2097C17.8937 15.2457 17.9 15.2843 17.8991 15.3231C17.9 15.4029 17.8728 15.4798 17.8235 15.5373C17.7732 15.5914 17.7063 15.6217 17.6366 15.622C17.5998 15.6264 17.5626 15.6218 17.5275 15.6086C17.4924 15.5953 17.4603 15.5738 17.4332 15.5455C17.4062 15.5171 17.385 15.4826 17.371 15.4442C17.3569 15.4058 17.3504 15.3645 17.3519 15.3231C17.3516 15.2844 17.3581 15.2459 17.3711 15.21C17.384 15.1741 17.4032 15.1414 17.4275 15.1138C17.4543 15.0829 17.4871 15.0591 17.5233 15.0445C17.5596 15.0298 17.5983 15.0245 17.6366 15.0291Z" fill="white"/>
<path d="M22.7843 14.3266H21.5341L21.3116 14.8996C21.2681 14.9979 21.241 15.1043 21.2316 15.2135C21.2319 15.243 21.2385 15.2719 21.2509 15.2979C21.2633 15.3239 21.2811 15.3462 21.3027 15.363C21.3956 15.4188 21.4999 15.4463 21.6053 15.4427V15.5423H20.5864V15.4427C20.6821 15.4308 20.773 15.3894 20.8489 15.3231C20.9641 15.1756 21.0559 15.0071 21.1203 14.8249L22.246 11.8354H22.3305L23.4562 14.8548C23.508 15.0381 23.5928 15.2077 23.7053 15.353C23.7935 15.4288 23.9011 15.4708 24.0123 15.4726V15.5722H22.7487V15.4726C22.8403 15.4773 22.9313 15.4532 23.0112 15.4028C23.0314 15.3848 23.0477 15.3621 23.0593 15.3363C23.0708 15.3105 23.0772 15.2822 23.078 15.2533C23.0664 15.1237 23.0348 14.9972 22.9845 14.8797L22.7843 14.3266ZM22.7176 14.1273L22.1703 12.6675L21.6053 14.1323L22.7176 14.1273Z" fill="white"/>
<path d="M26.9932 15.0291C27.0632 15.0291 27.1305 15.0599 27.1804 15.1149C27.2303 15.1699 27.259 15.2447 27.2601 15.3231C27.2607 15.3631 27.2539 15.4028 27.2402 15.4396C27.2264 15.4765 27.2059 15.5098 27.1801 15.5373C27.1557 15.565 27.1266 15.5868 27.0945 15.6014C27.0623 15.6159 27.0278 15.623 26.9932 15.622C26.9586 15.6224 26.9243 15.6151 26.8922 15.6006C26.8601 15.586 26.8309 15.5646 26.8063 15.5373C26.7805 15.5098 26.76 15.4765 26.7462 15.4396C26.7324 15.4028 26.7256 15.3631 26.7262 15.3231C26.7257 15.2839 26.7326 15.245 26.7463 15.2089C26.7601 15.1729 26.7806 15.1405 26.8063 15.1138C26.8303 15.0857 26.8594 15.0635 26.8916 15.0489C26.9238 15.0343 26.9585 15.0276 26.9932 15.0291Z" fill="white"/>
<path d="M33.2132 15.5473H32.3234L31.2511 13.8284H31.0509H30.913V14.9046C30.8969 15.05 30.9201 15.1976 30.9797 15.3281C31.0139 15.3697 31.0561 15.4021 31.1031 15.4228C31.1501 15.4435 31.2007 15.452 31.2511 15.4477H31.3757V15.5473H29.9875V15.4477H30.1121C30.1684 15.453 30.225 15.4421 30.2764 15.416C30.3278 15.3898 30.3724 15.3492 30.4058 15.2982C30.4486 15.1729 30.4654 15.0382 30.4547 14.9046V12.5629C30.4706 12.4158 30.4474 12.2667 30.388 12.1344C30.3523 12.0938 30.3091 12.0625 30.2614 12.0427C30.2138 12.0229 30.1628 12.0151 30.1121 12.0198H29.9875V11.9201H31.171C31.427 11.9074 31.6832 11.9359 31.9318 12.0048C32.0961 12.0656 32.2402 12.1801 32.3456 12.3337C32.4533 12.4722 32.5146 12.6483 32.5191 12.8319C32.5215 13.0468 32.4516 13.2549 32.3234 13.4149C32.1597 13.5989 31.9476 13.7194 31.7183 13.7586L32.3901 14.8249C32.4939 15.015 32.6264 15.1836 32.7816 15.3231C32.9169 15.4125 33.0696 15.4638 33.2266 15.4726L33.2132 15.5473ZM30.913 13.6839H31.0465C31.2957 13.7042 31.5432 13.6248 31.745 13.4597C31.8204 13.3904 31.8808 13.3028 31.9217 13.2036C31.9625 13.1043 31.9827 12.996 31.9808 12.8867C31.9833 12.7849 31.9676 12.6836 31.9348 12.5887C31.9019 12.4937 31.8525 12.407 31.7895 12.3337C31.7229 12.2618 31.6441 12.2058 31.5577 12.169C31.4712 12.1322 31.3791 12.1153 31.2867 12.1194C31.1609 12.1248 31.0358 12.1431 30.913 12.1742V13.6839Z" fill="white"/>
<path d="M36.4833 12.1145V13.5494H37.1952C37.3258 13.5659 37.4575 13.5325 37.5689 13.4547C37.6623 13.335 37.7115 13.1801 37.7069 13.0212H37.8181V14.2868H37.7291C37.7195 14.1712 37.6971 14.0574 37.6624 13.948C37.6312 13.8817 37.5811 13.829 37.52 13.7985C37.4237 13.7566 37.3206 13.7379 37.2175 13.7437H36.4833V14.9444C36.4742 15.0405 36.4742 15.1374 36.4833 15.2334C36.4971 15.2704 36.5224 15.3005 36.5545 15.3181C36.611 15.3432 36.6719 15.3535 36.7325 15.348H37.2842C37.4186 15.3525 37.553 15.3391 37.6846 15.3082C37.774 15.2731 37.8547 15.2151 37.9204 15.1388C38.0444 14.9908 38.1479 14.8229 38.2274 14.6405H38.3209L38.0406 15.5523H35.5935V15.4526H35.7092C35.7851 15.4525 35.8598 15.432 35.9272 15.3929C35.9743 15.3651 36.0107 15.319 36.0295 15.2633C36.0524 15.1489 36.0613 15.0316 36.0562 14.9145V12.5479C36.0707 12.403 36.0491 12.2565 35.9939 12.1244C35.9555 12.0859 35.9103 12.0568 35.8613 12.0387C35.8123 12.0207 35.7605 12.0143 35.7092 12.0198H35.5935V11.9201H38.0895L38.1251 12.7123H38.0317C38.0059 12.5788 37.9608 12.4509 37.8982 12.3337C37.855 12.2601 37.7929 12.2028 37.7202 12.1693C37.6077 12.1315 37.4907 12.113 37.3732 12.1145H36.4833Z" fill="white"/>
<path d="M40.6968 11.9201H41.5866L43.5576 14.6405V12.5479C43.5733 12.4041 43.5501 12.2583 43.4909 12.1294C43.4536 12.0902 43.4094 12.0601 43.3611 12.0412C43.3128 12.0223 43.2615 12.015 43.2106 12.0198H43.0949V11.9201H44.225V12.0198H44.1093C44.0549 12.0136 44 12.0226 43.9495 12.0461C43.899 12.0696 43.8545 12.1068 43.8201 12.1543C43.7738 12.2786 43.7554 12.4138 43.7667 12.5479V15.6071H43.6822L41.5421 12.6824V14.9195C41.5269 15.0634 41.5502 15.209 41.6089 15.338C41.6456 15.3781 41.6897 15.4087 41.7382 15.4276C41.7866 15.4466 41.8381 15.4534 41.8892 15.4477H42.0004V15.5473H40.8747V15.4477H40.986C41.0403 15.4559 41.0956 15.4489 41.1469 15.4271C41.1982 15.4054 41.2438 15.3696 41.2796 15.3231C41.3267 15.2008 41.3451 15.067 41.333 14.9345V12.3935C41.2687 12.3049 41.1972 12.2232 41.1194 12.1493C41.0524 12.1033 40.9807 12.0665 40.9059 12.0397C40.8365 12.0297 40.7662 12.0297 40.6968 12.0397V11.9201Z" fill="white"/>
<path d="M47.6064 12.1145V13.5494H48.3227C48.4518 13.5659 48.5822 13.5325 48.692 13.4547C48.7873 13.3363 48.8369 13.1805 48.8299 13.0212H48.9189V14.2868H48.8299C48.8203 14.1712 48.7979 14.0574 48.7632 13.948C48.732 13.8817 48.6819 13.829 48.6208 13.7985C48.5261 13.7564 48.4244 13.7377 48.3227 13.7437H47.6064V14.9444C47.5939 15.0403 47.5939 15.1376 47.6064 15.2334C47.6196 15.2692 47.6431 15.299 47.6731 15.3181C47.7312 15.3432 47.7935 15.3534 47.8555 15.348H48.4028C48.5372 15.3525 48.6716 15.3391 48.8032 15.3082C48.8934 15.2721 48.9754 15.2142 49.0435 15.1388C49.1659 14.9904 49.2678 14.8225 49.346 14.6405H49.4395L49.1592 15.5523H46.7166V15.4526H46.8322C46.9081 15.4525 46.9829 15.432 47.0502 15.3929C47.0973 15.3651 47.1337 15.319 47.1526 15.2633C47.1754 15.1489 47.1844 15.0316 47.1793 14.9145V12.5479C47.1962 12.403 47.1745 12.2556 47.117 12.1244C47.0788 12.0854 47.0337 12.0559 46.9846 12.0379C46.9356 12.0198 46.8836 12.0137 46.8322 12.0198H46.7166V11.9201H49.2125L49.2526 12.7123H49.1592C49.1397 12.5757 49.1022 12.443 49.0479 12.3187C49.0013 12.2467 48.9383 12.1899 48.8655 12.1543C48.7452 12.1186 48.6204 12.1051 48.4962 12.1145H47.6064Z" fill="white"/>
<path d="M0.218018 16.4491H50" stroke="white" stroke-miterlimit="10"/>
<path d="M0.218018 37.9879H50" stroke="white" stroke-width="2" stroke-miterlimit="10"/>
<path d="M2.66945 39.368V40.6236H2.59382C2.57547 40.4215 2.5226 40.2253 2.4381 40.0456C2.36184 39.903 2.25273 39.786 2.1222 39.7068C1.98616 39.6225 1.83276 39.5795 1.67728 39.5822C1.60246 39.579 1.52779 39.5922 1.45756 39.6213C1.38732 39.6504 1.32289 39.6947 1.26796 39.7516C1.21634 39.7985 1.17476 39.8578 1.14627 39.925C1.11778 39.9923 1.10311 40.0658 1.10334 40.1403C1.10425 40.2504 1.14058 40.3566 1.20567 40.4392C1.41412 40.66 1.65299 40.8417 1.91309 40.9773C2.12916 41.0975 2.33601 41.2375 2.53153 41.3958C2.63979 41.4869 2.72804 41.6045 2.78958 41.7396C2.84763 41.8678 2.8781 42.0094 2.87857 42.1531C2.8785 42.2876 2.8531 42.4206 2.80404 42.5434C2.75497 42.6661 2.68334 42.7759 2.59382 42.8656C2.39216 43.0699 2.12692 43.1772 1.85525 43.1646C1.76729 43.1643 1.67949 43.156 1.59275 43.1396C1.54381 43.1396 1.44148 43.0948 1.28576 43.04C1.18937 42.9999 1.08944 42.9715 0.987659 42.9553C0.95308 42.9545 0.919583 42.9688 0.894226 42.9952C0.864518 43.0456 0.847603 43.1042 0.845285 43.1646H0.756301V41.919H0.845285C0.870388 42.1223 0.926048 42.3194 1.00991 42.5019C1.08942 42.6413 1.20183 42.7534 1.3347 42.8258C1.47983 42.9122 1.64193 42.9567 1.80631 42.9553C1.97829 42.9659 2.14728 42.9016 2.27792 42.7759C2.33275 42.7249 2.37677 42.6609 2.40678 42.5886C2.43679 42.5162 2.45205 42.4372 2.45144 42.3574C2.45031 42.2628 2.42732 42.1701 2.38471 42.0884C2.33431 41.9876 2.26437 41.9008 2.18004 41.8343C2.01675 41.7108 1.84742 41.5977 1.67283 41.4955C1.46678 41.3722 1.26901 41.2323 1.08109 41.0769C0.973257 40.9826 0.882628 40.8659 0.814141 40.7332C0.754987 40.6072 0.724426 40.4669 0.725157 40.3246C0.723765 40.1976 0.746897 40.0717 0.792972 39.9556C0.839046 39.8395 0.906975 39.736 0.992108 39.652C1.08332 39.5568 1.1904 39.4828 1.30721 39.4341C1.42402 39.3853 1.54827 39.3629 1.67283 39.368C1.86352 39.3698 2.05164 39.4174 2.22453 39.5075C2.28407 39.5434 2.34886 39.567 2.41585 39.5773C2.43407 39.5779 2.45221 39.5743 2.46908 39.5666C2.48595 39.5589 2.50117 39.5472 2.51373 39.5324C2.54988 39.4861 2.57309 39.4289 2.58047 39.368H2.66945Z" fill="white"/>
<path d="M12.1818 39.4527L12.2174 40.2997H12.124C12.1183 40.1894 12.0942 40.0812 12.0528 39.9808C12.0094 39.8843 11.9412 39.8045 11.857 39.7516C11.756 39.6969 11.6444 39.6712 11.5322 39.6769H11.0873V42.4521C11.0744 42.5953 11.0959 42.7398 11.1496 42.8706C11.1869 42.9099 11.2311 42.9399 11.2794 42.9588C11.3276 42.9777 11.3789 42.985 11.4299 42.9802H11.5411V43.0799H10.1574V42.9802H10.2731C10.3286 42.9867 10.3847 42.9773 10.436 42.9529C10.4874 42.9285 10.5324 42.8899 10.5668 42.8407C10.6138 42.7184 10.6322 42.5846 10.6202 42.4521V39.6769H10.2331C10.1251 39.6716 10.017 39.685 9.91274 39.7168C9.82501 39.7546 9.75025 39.8227 9.69918 39.9111C9.63282 40.0274 9.59592 40.1617 9.5924 40.2997H9.50342L9.53901 39.4527H12.1818Z" fill="white"/>
<path d="M20.8667 39.5474V39.4527H22.0102V39.5474H21.8901C21.8312 39.5446 21.7728 39.5599 21.721 39.5915C21.6693 39.6231 21.6262 39.6698 21.5964 39.7267C21.552 39.8498 21.5352 39.9833 21.5475 40.1154V41.6101C21.5558 41.8965 21.5227 42.1825 21.4496 42.4571C21.3713 42.6636 21.2376 42.8377 21.067 42.9553C20.8357 43.1124 20.5673 43.1871 20.2973 43.1695C20.0169 43.1886 19.7376 43.1177 19.4919 42.9653C19.3138 42.8316 19.1782 42.6379 19.1049 42.4122C19.0393 42.1193 19.0138 41.8169 19.0292 41.5154V40.0904C19.043 39.938 19.0134 39.7845 18.9447 39.652C18.9098 39.6137 18.8677 39.5845 18.8216 39.5664C18.7755 39.5484 18.7264 39.5418 18.6777 39.5474H18.5576V39.4527H19.9547V39.5474H19.8345C19.7793 39.5418 19.7238 39.5522 19.6731 39.5775C19.6225 39.6028 19.5785 39.6421 19.5453 39.6919C19.4956 39.8169 19.4757 39.9542 19.4875 40.0904V41.6748C19.4874 41.8415 19.4978 42.008 19.5186 42.1731C19.5333 42.3231 19.5774 42.4677 19.6477 42.5966C19.7116 42.7058 19.8008 42.7937 19.9057 42.8507C20.0377 42.9206 20.1825 42.9547 20.3284 42.9503C20.5326 42.9522 20.7336 42.8938 20.9112 42.7809C21.0612 42.6935 21.1816 42.5535 21.2538 42.3823C21.3257 42.1161 21.3558 41.838 21.3428 41.5602V40.0904C21.3578 39.945 21.3346 39.7978 21.2761 39.6669C21.241 39.6252 21.198 39.5928 21.1503 39.5721C21.1025 39.5514 21.0513 39.5429 21.0002 39.5474H20.8667Z" fill="white"/>
<path d="M28.3369 43.0799V42.9802H28.4748C28.5305 42.9862 28.5867 42.9755 28.6375 42.9493C28.6883 42.923 28.732 42.8821 28.764 42.8307C28.8109 42.7066 28.8293 42.5713 28.8174 42.4371V40.0904C28.8324 39.945 28.8093 39.7978 28.7507 39.6669C28.7154 39.6255 28.6724 39.5933 28.6247 39.5726C28.577 39.5519 28.5258 39.5433 28.4748 39.5474H28.3503V39.4527H29.685C30.0601 39.4317 30.4352 39.4943 30.7884 39.637C31.0338 39.7632 31.2376 39.9723 31.3713 40.2349C31.5249 40.5381 31.6003 40.8831 31.5893 41.2314C31.6015 41.6962 31.4551 42.1487 31.1799 42.4969C31.0004 42.6957 30.7858 42.8502 30.5498 42.9506C30.3138 43.051 30.0617 43.095 29.8096 43.0799H28.3369ZM29.2623 42.8158C29.4301 42.8606 29.6016 42.8856 29.774 42.8905C29.947 42.8972 30.1193 42.862 30.2791 42.7871C30.4388 42.7123 30.5822 42.5997 30.6994 42.4571C30.9384 42.1197 31.0684 41.7018 31.0684 41.2713C31.0684 40.8407 30.9384 40.4228 30.6994 40.0855C30.5796 39.9424 30.4338 39.8297 30.2719 39.755C30.11 39.6802 29.9357 39.6451 29.7607 39.652C29.5953 39.6575 29.4311 39.6843 29.2712 39.7317L29.2623 42.8158Z" fill="white"/>
<path d="M39.4909 42.9802V43.0799H38.1028V42.9802H38.2185C38.2724 42.9857 38.3267 42.9769 38.377 42.9544C38.4272 42.9319 38.472 42.8963 38.5077 42.8507C38.5593 42.721 38.5792 42.5783 38.5655 42.4371V40.0904C38.5723 39.9681 38.5617 39.8454 38.5344 39.7267C38.513 39.6782 38.4788 39.6382 38.4365 39.6121C38.3694 39.5717 38.2947 39.5495 38.2185 39.5474H38.1028V39.4527H39.4909V39.5474H39.3753C39.3209 39.5416 39.2661 39.5508 39.2157 39.5743C39.1653 39.5977 39.1208 39.6347 39.0861 39.6819C39.032 39.809 39.0104 39.9504 39.0238 40.0904V42.4371C39.0167 42.5595 39.0272 42.6823 39.0549 42.8008C39.0758 42.8515 39.112 42.8921 39.1572 42.9154C39.2231 42.9595 39.2986 42.9819 39.3753 42.9802H39.4909Z" fill="white"/>
<path d="M47.6064 39.368C47.8116 39.3671 48.0147 39.4145 48.2025 39.5072C48.3903 39.5999 48.5586 39.7358 48.6965 39.9061C48.8469 40.0838 48.9638 40.2936 49.0402 40.523C49.1167 40.7524 49.1511 40.9967 49.1414 41.2414C49.1606 41.7475 49.0007 42.2416 48.6965 42.6165C48.551 42.7876 48.376 42.9238 48.1822 43.0169C47.9883 43.11 47.7795 43.158 47.5686 43.158C47.3576 43.158 47.1489 43.11 46.955 43.0169C46.7611 42.9238 46.5862 42.7876 46.4407 42.6165C46.1358 42.2401 45.9759 41.7441 45.9958 41.2364C45.9873 40.9729 46.0299 40.7104 46.1205 40.467C46.2111 40.2237 46.3477 40.0051 46.5208 39.8264C46.8164 39.5227 47.2053 39.3585 47.6064 39.368ZM47.5575 39.5623C47.4243 39.557 47.292 39.5872 47.1713 39.6505C47.0506 39.7137 46.9451 39.8082 46.8634 39.926C46.6218 40.309 46.5055 40.7736 46.5342 41.2414C46.5054 41.7262 46.6246 42.2076 46.8723 42.6065C46.9533 42.724 47.0581 42.8182 47.178 42.8815C47.2979 42.9447 47.4295 42.9751 47.5619 42.9702C47.7063 42.9741 47.8496 42.9401 47.9801 42.8709C48.1107 42.8017 48.225 42.6992 48.3138 42.5717C48.5402 42.2045 48.6456 41.7607 48.6119 41.3161C48.6458 40.8251 48.5315 40.3355 48.2871 39.926C48.1979 39.8038 48.084 39.7071 47.9548 39.6439C47.8256 39.5806 47.6848 39.5527 47.5441 39.5623H47.5575Z" fill="white"/>
<path d="M32.0208 17.615V22.2635H41.3152L31.5581 37.0263H50V32.6717H40.0116L50 17.615H32.0208Z" fill="white"/>
<path d="M28.3457 17.615H16.7778L13.7124 21.0478V28.0232L0.560547 17.615V37.0462H4.76503V26.6381L18.0637 37.0263V33.3344H27.2557V37.0263H31.5581V21.2123L28.3457 17.615ZM27.2557 28.631H18.1126V22.0991H27.2557V28.631Z" fill="white"/>
</g>
<defs>
<clipPath id="clip0_23_6">
<rect width="50" height="31.3291" fill="white" transform="translate(0 11.8354)"/>
</clipPath>
</defs>
</svg>
