<svg width="231" height="231" viewBox="0 0 231 231" fill="none" xmlns="http://www.w3.org/2000/svg">
<g clip-path="url(#clip0_12_55)">
<path d="M0 50.0646H4.11105L13.217 61.4902V52.7013C13.2898 52.0971 13.1823 51.4847 12.9087 50.9435C12.7389 50.7752 12.535 50.6468 12.3113 50.5673C12.0876 50.4877 11.8495 50.459 11.6137 50.4831H11.0998V50.0646H16.3003V50.4831H15.7864C15.5256 50.45 15.2607 50.4844 15.0164 50.5831C14.772 50.6819 14.5561 50.8418 14.3887 51.0481C14.1747 51.5703 14.0899 52.138 14.142 52.7013V65.5498H13.7926L3.92605 53.2663V62.662C3.87438 63.2429 3.97362 63.8275 4.21383 64.357C4.38592 64.5219 4.59014 64.6481 4.81324 64.7274C5.03633 64.8067 5.27332 64.8374 5.50881 64.8174H6.04325V65.2359H0.82221V64.8174H1.35665C1.60252 64.8597 1.85485 64.8399 2.09143 64.7596C2.328 64.6793 2.54156 64.5411 2.71329 64.357C2.91024 63.8377 2.98759 63.2793 2.9394 62.7248V52.0526C2.67482 51.6851 2.37906 51.342 2.05553 51.0272C1.71368 50.826 1.34743 50.6712 0.966097 50.5668C0.648926 50.4968 0.324226 50.4687 0 50.4831L0 50.0646Z" fill="black"/>
<path d="M37.5956 60.1718H31.799L30.8329 62.5992C30.6276 63.0119 30.4954 63.4582 30.4424 63.9176C30.4471 64.0407 30.4791 64.1611 30.5361 64.2699C30.593 64.3786 30.6734 64.4728 30.7713 64.5454C31.209 64.7763 31.6967 64.8914 32.1896 64.8802V65.2987H27.4619V64.8802C27.9047 64.8513 28.3313 64.6993 28.6952 64.4407C29.2261 63.8241 29.6439 63.1153 29.9285 62.3481L35.1495 49.7089H35.5401L40.7611 62.39C40.9955 63.158 41.3801 63.8698 41.8916 64.4826C42.3067 64.8014 42.8107 64.9773 43.3305 64.9848V65.4033H37.4312V64.9848C37.8486 65.0129 38.2645 64.9107 38.6234 64.6918C38.7223 64.6204 38.8035 64.5264 38.8606 64.4175C38.9177 64.3085 38.9491 64.1875 38.9522 64.0641C38.8988 63.5168 38.7455 62.9845 38.5 62.4946L37.5956 60.1718ZM37.2873 59.3348L34.759 53.2035L32.1485 59.3557L37.2873 59.3348Z" fill="black"/>
<path d="M67.2157 50.0646L57.3697 64.357H63.5363C64.33 64.429 65.1232 64.2141 65.7768 63.7502C66.4362 63.0345 66.8973 62.1535 67.1129 61.1972H67.4829L66.7635 65.2359H54.492V64.8174L64.1119 50.9644H59.3019C58.7071 50.9251 58.1109 51.0179 57.5547 51.2365C57.2154 51.394 56.9345 51.658 56.7531 51.9898C56.4756 52.5824 56.3017 53.2197 56.2392 53.8731H55.8075L56.1364 50.0646H67.2157Z" fill="black"/>
<path d="M81.481 63.1224C81.6412 63.1184 81.8004 63.148 81.9489 63.2092C82.0974 63.2704 82.232 63.3619 82.3444 63.4781C82.4585 63.5925 82.5484 63.7295 82.6085 63.8807C82.6687 64.0319 82.6977 64.194 82.6938 64.357C82.6978 64.692 82.5723 65.0152 82.3444 65.2568C82.1121 65.4838 81.803 65.6112 81.481 65.6126C81.3109 65.6307 81.1389 65.6114 80.9768 65.5559C80.8147 65.5004 80.6661 65.41 80.5414 65.2909C80.4166 65.1718 80.3184 65.0268 80.2536 64.8656C80.1887 64.7045 80.1587 64.531 80.1655 64.357C80.164 64.1943 80.1941 64.0329 80.254 63.8821C80.314 63.7312 80.4027 63.5939 80.5149 63.4781C80.6388 63.348 80.7902 63.2483 80.9576 63.1867C81.125 63.1251 81.304 63.1031 81.481 63.1224Z" fill="black"/>
<path d="M105.263 60.1718H99.4875L98.4597 62.5783C98.2586 62.9912 98.1332 63.4379 98.0897 63.8966C98.0912 64.0204 98.1219 64.142 98.1791 64.2513C98.2363 64.3605 98.3185 64.4542 98.4186 64.5244C98.8476 64.7589 99.3296 64.8744 99.8163 64.8592V65.2778H95.1092V64.8592C95.5513 64.8092 95.9711 64.6354 96.322 64.357C96.854 63.7373 97.2781 63.0296 97.5758 62.2644L102.776 49.7089H103.167L108.367 62.39C108.607 63.1601 108.999 63.8723 109.518 64.4826C109.926 64.8011 110.423 64.9773 110.937 64.9848V65.4033H105.099V64.9848C105.522 65.0047 105.943 64.9032 106.312 64.6918C106.405 64.6161 106.48 64.5208 106.534 64.4124C106.587 64.304 106.616 64.1852 106.62 64.0641C106.567 63.5194 106.42 62.9884 106.188 62.4946L105.263 60.1718ZM104.955 59.3348L102.427 53.2035L99.8163 59.3557L104.955 59.3348Z" fill="black"/>
<path d="M124.709 63.1224C125.032 63.1223 125.343 63.2517 125.574 63.4827C125.804 63.7136 125.937 64.0277 125.942 64.357C125.945 64.5249 125.913 64.6915 125.85 64.8464C125.786 65.0013 125.692 65.1411 125.572 65.2568C125.46 65.3731 125.325 65.4646 125.177 65.5258C125.028 65.587 124.869 65.6165 124.709 65.6126C124.549 65.6141 124.39 65.5835 124.242 65.5224C124.094 65.4614 123.959 65.3711 123.845 65.2568C123.726 65.1411 123.631 65.0013 123.568 64.8464C123.504 64.6915 123.473 64.5249 123.475 64.357C123.473 64.1923 123.505 64.0288 123.568 63.8774C123.632 63.726 123.727 63.5899 123.845 63.4781C123.956 63.3598 124.091 63.2669 124.239 63.2055C124.388 63.1442 124.548 63.1158 124.709 63.1224Z" fill="black"/>
<path d="M153.445 65.2987H149.334L144.38 58.0792H143.455H142.818V62.5992C142.744 63.2102 142.851 63.8298 143.126 64.3779C143.284 64.5528 143.479 64.6889 143.696 64.7759C143.914 64.8629 144.147 64.8985 144.38 64.8802H144.956V65.2987H138.542V64.8802H139.118C139.378 64.9028 139.639 64.8569 139.877 64.747C140.115 64.637 140.32 64.4667 140.475 64.2524C140.673 63.726 140.75 63.1606 140.701 62.5992V52.764C140.774 52.1463 140.667 51.5203 140.392 50.9644C140.228 50.7941 140.028 50.6626 139.808 50.5795C139.588 50.4963 139.352 50.4634 139.118 50.4831H138.542V50.0646H144.01C145.193 50.0109 146.376 50.1307 147.525 50.4203C148.284 50.6753 148.95 51.1565 149.437 51.8015C149.934 52.3833 150.218 53.123 150.238 53.894C150.249 54.7967 149.926 55.6706 149.334 56.3424C148.578 57.1154 147.598 57.6214 146.538 57.7863L149.642 62.2644C150.122 63.0631 150.734 63.7712 151.451 64.357C152.076 64.7327 152.782 64.9481 153.507 64.9848L153.445 65.2987ZM142.818 57.4724H143.435C144.586 57.5577 145.73 57.2239 146.662 56.5307C147.01 56.2396 147.289 55.8718 147.478 55.4549C147.667 55.0381 147.76 54.5831 147.751 54.1242C147.763 53.6967 147.69 53.2712 147.539 52.8724C147.387 52.4736 147.159 52.1095 146.867 51.8015C146.56 51.4997 146.196 51.2644 145.796 51.1098C145.397 50.9551 144.971 50.8843 144.545 50.9016C143.963 50.9241 143.385 51.0012 142.818 51.1318V57.4724Z" fill="black"/>
<path d="M168.553 50.8807V56.9074H171.842C172.445 56.9767 173.054 56.8366 173.569 56.5098C174 56.0069 174.227 55.3563 174.206 54.6892H174.72V60.0044H174.309C174.264 59.5189 174.161 59.0409 174 58.5815C173.856 58.303 173.625 58.0819 173.343 57.9537C172.898 57.7777 172.421 57.6993 171.945 57.7235H168.553V62.7666C168.511 63.1701 168.511 63.5769 168.553 63.9804C168.617 64.1358 168.733 64.2623 168.882 64.3361C169.143 64.4416 169.424 64.4846 169.704 64.4616H172.253C172.874 64.4805 173.495 64.4244 174.103 64.2942C174.516 64.1471 174.889 63.9034 175.192 63.5828C175.765 62.9614 176.244 62.256 176.611 61.4902H177.042L175.747 65.3196H164.442V64.9011H164.977C165.327 64.9003 165.672 64.8142 165.984 64.65C166.201 64.5334 166.369 64.3399 166.457 64.1059C166.562 63.6255 166.604 63.1328 166.58 62.6411V52.7013C166.647 52.0927 166.547 51.4772 166.292 50.9226C166.114 50.7609 165.906 50.6384 165.679 50.5627C165.453 50.4871 165.214 50.46 164.977 50.4831H164.442V50.0646H175.974L176.138 53.3918H175.706C175.588 52.831 175.379 52.2937 175.09 51.8015C174.89 51.4924 174.603 51.2518 174.267 51.1109C173.748 50.9524 173.207 50.8748 172.664 50.8807H168.553Z" fill="black"/>
<path d="M188.019 50.0646H192.13L201.236 61.4902V52.7013C201.309 52.0971 201.201 51.4847 200.928 50.9435C200.756 50.7786 200.551 50.6525 200.328 50.5731C200.105 50.4938 199.868 50.4632 199.633 50.4831H199.098V50.0646H204.319V50.4831H203.785C203.534 50.457 203.28 50.4949 203.047 50.5936C202.813 50.6922 202.608 50.8484 202.449 51.0481C202.235 51.5703 202.15 52.138 202.202 52.7013V65.5498H201.812L191.924 53.2663V62.662C191.854 63.2661 191.962 63.8778 192.233 64.4198C192.403 64.5881 192.606 64.7165 192.83 64.796C193.054 64.8755 193.292 64.9043 193.528 64.8802H194.042V65.2987H188.841V64.8802H189.355C189.606 64.9149 189.862 64.8852 190.099 64.7938C190.335 64.7025 190.546 64.5523 190.712 64.357C190.929 63.8432 191.014 63.2814 190.958 62.7248V52.0526C190.661 51.6806 190.331 51.3373 189.972 51.0272C189.662 50.834 189.331 50.6794 188.985 50.5668C188.664 50.5248 188.34 50.5248 188.019 50.5668V50.0646Z" fill="black"/>
<path d="M219.941 50.8807V56.9074H223.251C223.847 56.9769 224.449 56.8366 224.957 56.5098C225.397 56.0126 225.626 55.358 225.594 54.6892H226.005V60.0044H225.594C225.55 59.5189 225.446 59.0409 225.286 58.5815C225.142 58.303 224.91 58.0819 224.628 57.9537C224.19 57.7769 223.721 57.6984 223.251 57.7235H219.941V62.7666C219.883 63.1691 219.883 63.5779 219.941 63.9804C220.002 64.1305 220.111 64.2556 220.25 64.3361C220.518 64.4412 220.806 64.4841 221.092 64.4616H223.621C224.242 64.4805 224.863 64.4244 225.471 64.2942C225.887 64.1427 226.266 63.8998 226.581 63.5828C227.146 62.9598 227.617 62.2545 227.978 61.4902H228.41L227.115 65.3196H215.83V64.9011H216.365C216.715 64.9003 217.061 64.8142 217.372 64.65C217.589 64.5334 217.758 64.3399 217.845 64.1059C217.95 63.6255 217.992 63.1328 217.968 62.6411V52.7013C218.046 52.0925 217.946 51.4737 217.68 50.9226C217.504 50.7587 217.296 50.6347 217.069 50.559C216.842 50.4832 216.602 50.4574 216.365 50.4831H215.83V50.0646H227.362L227.547 53.3918H227.115C227.025 52.8179 226.852 52.2607 226.601 51.7387C226.386 51.436 226.095 51.1976 225.758 51.0481C225.202 50.8981 224.626 50.8416 224.052 50.8807H219.941Z" fill="black"/>
<path d="M1.0072 69.0863H231" stroke="black" stroke-miterlimit="10"/>
<path d="M1.0072 159.549H231" stroke="black" stroke-width="2" stroke-miterlimit="10"/>
<path d="M12.3331 165.346V170.619H11.9837C11.8989 169.77 11.6547 168.946 11.2643 168.191C10.912 167.593 10.4079 167.101 9.80485 166.769C9.17634 166.414 8.46763 166.234 7.74932 166.245C7.40364 166.232 7.05868 166.287 6.73418 166.409C6.40969 166.531 6.11202 166.718 5.85824 166.957C5.61975 167.154 5.42765 167.403 5.29603 167.685C5.16442 167.968 5.09665 168.276 5.09769 168.589C5.10192 169.052 5.26976 169.498 5.57046 169.845C6.53351 170.772 7.6371 171.535 8.83875 172.105C9.837 172.61 10.7926 173.198 11.6959 173.862C12.1961 174.245 12.6038 174.739 12.8881 175.306C13.1563 175.845 13.2971 176.439 13.2992 177.043C13.2989 177.608 13.1816 178.167 12.9549 178.682C12.7282 179.198 12.3973 179.659 11.9837 180.036C11.0521 180.893 9.82665 181.344 8.57153 181.291C8.16514 181.29 7.75953 181.255 7.35877 181.187C7.13266 181.187 6.65989 180.998 5.94046 180.768C5.49516 180.6 5.03347 180.48 4.56325 180.412C4.4035 180.409 4.24874 180.469 4.13159 180.58C3.99434 180.792 3.91619 181.038 3.90549 181.291H3.49438V176.06H3.90549C4.02146 176.914 4.27861 177.741 4.66603 178.508C5.0334 179.094 5.55272 179.564 6.16656 179.868C6.83706 180.231 7.58598 180.418 8.34542 180.412C9.13999 180.457 9.9207 180.187 10.5243 179.659C10.7776 179.445 10.9809 179.176 11.1196 178.872C11.2582 178.568 11.3287 178.236 11.3259 177.901C11.3207 177.504 11.2145 177.114 11.0176 176.771C10.7848 176.348 10.4617 175.983 10.0721 175.704C9.31767 175.185 8.53535 174.71 7.72876 174.281C6.7768 173.763 5.8631 173.176 4.99491 172.523C4.49671 172.127 4.07801 171.637 3.7616 171.079C3.48831 170.55 3.34712 169.961 3.35049 169.363C3.34406 168.83 3.45093 168.301 3.6638 167.814C3.87666 167.326 4.19049 166.891 4.58381 166.538C5.00521 166.139 5.4999 165.828 6.03957 165.623C6.57923 165.418 7.15325 165.324 7.72876 165.346C8.60974 165.353 9.47887 165.553 10.2776 165.931C10.5527 166.082 10.852 166.181 11.1615 166.224C11.2457 166.227 11.3295 166.212 11.4074 166.18C11.4854 166.147 11.5557 166.098 11.6137 166.036C11.7807 165.842 11.8879 165.602 11.922 165.346H12.3331Z" fill="black"/>
<path d="M56.2803 165.701L56.4447 169.259H56.0131C55.9868 168.795 55.8753 168.341 55.6842 167.919C55.4835 167.514 55.1686 167.179 54.7797 166.957C54.3129 166.727 53.7972 166.619 53.2792 166.643H51.2237V178.299C51.1639 178.9 51.2633 179.507 51.5114 180.057C51.6835 180.221 51.8878 180.348 52.1109 180.427C52.334 180.506 52.5709 180.537 52.8064 180.517H53.3203V180.935H46.9276V180.517H47.4621C47.7184 180.544 47.9774 180.505 48.2147 180.402C48.452 180.3 48.6599 180.138 48.8187 179.931C49.0361 179.417 49.121 178.855 49.0654 178.299V166.643H47.2771C46.7782 166.621 46.279 166.677 45.7971 166.81C45.3918 166.969 45.0463 167.255 44.8104 167.627C44.5039 168.115 44.3334 168.679 44.3171 169.259H43.906L44.0704 165.701H56.2803Z" fill="black"/>
<path d="M96.4041 166.099V165.701H101.687V166.099H101.132C100.86 166.087 100.59 166.151 100.351 166.284C100.112 166.417 99.9129 166.613 99.7752 166.852C99.5699 167.369 99.4923 167.93 99.5491 168.484V174.762C99.5875 175.965 99.4348 177.166 99.0969 178.32C98.7352 179.187 98.1174 179.918 97.3291 180.412C96.2607 181.072 95.0206 181.386 93.7731 181.312C92.478 181.392 91.1874 181.094 90.0526 180.454C89.2293 179.893 88.603 179.079 88.2643 178.131C87.9616 176.901 87.8437 175.631 87.9148 174.365V168.38C87.9784 167.739 87.8417 167.095 87.5243 166.538C87.3629 166.378 87.1687 166.255 86.9556 166.179C86.7425 166.103 86.5156 166.076 86.291 166.099H85.736V165.701H92.1903V166.099H91.6353C91.3803 166.076 91.1236 166.119 90.8897 166.225C90.6558 166.332 90.4526 166.497 90.2992 166.706C90.0696 167.231 89.9775 167.808 90.032 168.38V175.034C90.0317 175.734 90.0798 176.434 90.1759 177.127C90.2437 177.757 90.4472 178.365 90.772 178.906C91.0673 179.365 91.4793 179.733 91.9642 179.973C92.5738 180.266 93.2428 180.41 93.917 180.391C94.8604 180.399 95.7892 180.154 96.6097 179.68C97.3027 179.313 97.8586 178.725 98.1925 178.006C98.5244 176.888 98.6635 175.719 98.6036 174.553V168.38C98.673 167.769 98.5658 167.151 98.2952 166.601C98.1332 166.426 97.9345 166.29 97.714 166.203C97.4935 166.116 97.2566 166.08 97.0208 166.099H96.4041Z" fill="black"/>
<path d="M130.916 180.935V180.517H131.554C131.811 180.542 132.07 180.497 132.305 180.387C132.54 180.277 132.742 180.105 132.89 179.889C133.106 179.368 133.191 178.799 133.136 178.236V168.38C133.206 167.769 133.099 167.151 132.828 166.601C132.665 166.427 132.466 166.292 132.246 166.205C132.026 166.118 131.789 166.082 131.554 166.099H130.978V165.701H137.145C138.878 165.613 140.61 165.876 142.242 166.476C143.376 167.005 144.318 167.883 144.935 168.987C145.645 170.26 145.994 171.709 145.942 173.172C145.999 175.124 145.323 177.025 144.051 178.487C143.222 179.322 142.23 179.971 141.14 180.393C140.05 180.814 138.885 180.999 137.72 180.935H130.916ZM135.192 179.826C135.967 180.014 136.759 180.12 137.556 180.14C138.355 180.168 139.151 180.02 139.889 179.706C140.627 179.392 141.29 178.919 141.831 178.32C142.935 176.903 143.536 175.148 143.536 173.339C143.536 171.531 142.935 169.776 141.831 168.359C141.278 167.758 140.604 167.285 139.856 166.971C139.108 166.657 138.303 166.509 137.494 166.538C136.73 166.562 135.972 166.674 135.233 166.873L135.192 179.826Z" fill="black"/>
<path d="M182.448 180.517V180.935H176.035V180.517H176.57C176.819 180.54 177.07 180.503 177.302 180.408C177.534 180.314 177.741 180.165 177.906 179.973C178.144 179.428 178.236 178.829 178.173 178.236V168.38C178.204 167.866 178.156 167.351 178.029 166.852C177.93 166.648 177.772 166.48 177.577 166.371C177.267 166.201 176.922 166.108 176.57 166.099H176.035V165.701H182.448V166.099H181.914C181.663 166.075 181.41 166.113 181.177 166.212C180.944 166.31 180.738 166.466 180.578 166.664C180.328 167.198 180.229 167.792 180.29 168.38V178.236C180.258 178.75 180.306 179.265 180.434 179.764C180.53 179.976 180.698 180.147 180.907 180.245C181.211 180.43 181.56 180.524 181.914 180.517H182.448Z" fill="black"/>
<path d="M219.941 165.346C220.889 165.342 221.828 165.541 222.695 165.93C223.563 166.32 224.34 166.891 224.977 167.606C225.672 168.352 226.212 169.233 226.565 170.197C226.919 171.16 227.078 172.186 227.033 173.214C227.122 175.339 226.383 177.415 224.977 178.989C224.305 179.708 223.497 180.28 222.601 180.671C221.705 181.062 220.741 181.263 219.767 181.263C218.792 181.263 217.828 181.062 216.932 180.671C216.036 180.28 215.228 179.708 214.556 178.989C213.147 177.408 212.408 175.325 212.5 173.193C212.461 172.086 212.658 170.984 213.076 169.962C213.495 168.939 214.126 168.021 214.926 167.271C216.292 165.995 218.088 165.306 219.941 165.346ZM219.715 166.162C219.1 166.14 218.488 166.266 217.931 166.532C217.373 166.798 216.886 167.194 216.509 167.689C215.392 169.298 214.855 171.249 214.987 173.214C214.854 175.25 215.405 177.272 216.55 178.947C216.924 179.441 217.408 179.837 217.962 180.102C218.516 180.368 219.124 180.496 219.736 180.475C220.403 180.491 221.065 180.348 221.668 180.058C222.271 179.767 222.799 179.337 223.21 178.801C224.256 177.259 224.742 175.395 224.587 173.528C224.743 171.465 224.215 169.409 223.086 167.689C222.674 167.176 222.148 166.77 221.551 166.504C220.954 166.239 220.304 166.121 219.653 166.162H219.715Z" fill="black"/>
<path d="M147.936 73.9829V93.5068H190.876L145.798 155.51H231V137.221H184.853L231 73.9829H147.936Z" fill="black"/>
<path d="M130.958 73.9829H77.5139L63.3513 88.4009V117.697L2.58997 73.9829V155.594H22.0147V111.88L83.4544 155.51V140.004H125.922V155.51H145.798V89.0915L130.958 73.9829ZM125.922 120.25H83.6805V92.8163H125.922V120.25Z" fill="black"/>
</g>
<defs>
<clipPath id="clip0_12_55">
<rect width="231" height="131.582" fill="white" transform="translate(0 49.7089)"/>
</clipPath>
</defs>
</svg>
