<svg width="40" height="40" viewBox="0 0 40 40" fill="none" xmlns="http://www.w3.org/2000/svg">
<path d="M20 34.3243C10.8286 34.3243 1.08105 32.2876 1.08105 28.5135C1.08105 26.1665 5.09241 24.1984 11.8113 23.2487L15.074 22.8751L15.1962 23.9492L11.9481 24.3211C5.22916 25.2703 2.16214 27.1605 2.16214 28.5135C2.16214 30.7508 9.48808 33.2433 20 33.2433C30.5119 33.2433 37.8378 30.7508 37.8378 28.5135C37.8378 27.1622 34.7708 25.2703 28.0378 24.3189L24.4216 23.9497L24.5297 22.8746L28.1665 23.246C34.9075 24.1984 38.9189 26.1665 38.9189 28.5135C38.9189 32.2876 29.1713 34.3243 20 34.3243Z" fill="#FBEABD"/>
<path d="M20.0001 31.2162C19.4936 31.2162 7.6001 31.1854 7.6001 28.5135C7.6001 28.0903 7.6001 26.8016 13.8704 26.12C14.9122 26.0087 15.876 25.5158 16.5761 24.7362C17.2762 23.9567 17.6631 22.9456 17.6623 21.8978V21.5951C17.6428 20.8385 17.386 20.1071 16.9282 19.5043C16.5199 18.9355 16.2775 18.2645 16.228 17.566C16.1784 16.8676 16.3236 16.1691 16.6474 15.5483C16.9712 14.9275 17.4609 14.4087 18.0621 14.0496C18.6632 13.6906 19.3522 13.5054 20.0523 13.5147C20.7524 13.5239 21.4363 13.7273 22.0277 14.1021C22.6191 14.4769 23.0949 15.0085 23.4022 15.6376C23.7095 16.2668 23.8362 16.9689 23.7681 17.6658C23.7001 18.3627 23.44 19.027 23.0169 19.5849C22.5804 20.163 22.344 20.8675 22.3433 21.5919V21.8978C22.3425 22.9456 22.7292 23.9566 23.4292 24.7363C24.1292 25.5159 25.0929 26.009 26.1347 26.1205C32.405 26.8022 32.405 28.0903 32.405 28.5135C32.4001 31.1854 20.5066 31.2162 20.0001 31.2162ZM8.7028 28.5135C9.16712 29.1184 13.1736 30.1351 20.0001 30.1351C26.8266 30.1351 30.832 29.1205 31.2974 28.5135C31.0752 28.2605 29.7904 27.6038 26.0142 27.193C24.7071 27.0532 23.498 26.4347 22.6197 25.4567C21.7415 24.4786 21.2562 23.2102 21.2574 21.8957V21.5897C21.2584 20.6291 21.5723 19.695 22.1514 18.9286C22.5754 18.3694 22.7651 17.6671 22.6806 16.9705C22.5961 16.2738 22.2439 15.6373 21.6985 15.1957C21.3813 14.9406 21.0112 14.7597 20.6151 14.6662C20.219 14.5727 19.807 14.5689 19.4093 14.6551C18.9728 14.7522 18.5671 14.9561 18.2288 15.2485C17.8904 15.5409 17.6299 15.9127 17.4706 16.3305C17.3113 16.7484 17.2581 17.1992 17.3159 17.6427C17.3737 18.0861 17.5406 18.5083 17.8017 18.8713C18.3918 19.6578 18.7195 20.6099 18.7385 21.593V21.8957C18.7397 23.2102 18.2544 24.4786 17.3761 25.4567C16.4979 26.4347 15.2888 27.0532 13.9817 27.193C10.2077 27.6059 8.92388 28.2627 8.7028 28.5157V28.5135Z" fill="#FBEABD"/>
<path d="M20.0001 12.4324C19.3586 12.4324 18.7316 12.2422 18.1982 11.8858C17.6649 11.5295 17.2492 11.0229 17.0037 10.4303C16.7582 9.83769 16.694 9.18558 16.8192 8.55646C16.9443 7.92733 17.2532 7.34944 17.7068 6.89586C18.1603 6.44229 18.7382 6.1334 19.3674 6.00826C19.9965 5.88312 20.6486 5.94734 21.2412 6.19282C21.8338 6.43829 22.3404 6.85398 22.6967 7.38733C23.0531 7.92068 23.2433 8.54773 23.2433 9.18918C23.2425 10.0491 22.9005 10.8735 22.2925 11.4816C21.6844 12.0896 20.86 12.4316 20.0001 12.4324ZM20.0001 7.02702C19.5724 7.02702 19.1544 7.15383 18.7988 7.39141C18.4433 7.62899 18.1662 7.96668 18.0025 8.36176C17.8389 8.75684 17.796 9.19158 17.8795 9.611C17.9629 10.0304 18.1688 10.4157 18.4712 10.7181C18.7736 11.0204 19.1588 11.2264 19.5783 11.3098C19.9977 11.3932 20.4324 11.3504 20.8275 11.1868C21.2226 11.0231 21.5603 10.746 21.7979 10.3904C22.0354 10.0348 22.1622 9.61682 22.1622 9.18918C22.1622 8.61574 21.9344 8.06579 21.529 7.6603C21.1235 7.25482 20.5735 7.02702 20.0001 7.02702Z" fill="#FBEABD"/>
<path d="M19.8918 28.9692C18.5801 28.9915 17.2738 28.7955 16.0264 28.3892L16.4047 27.3768C18.7657 28.0728 21.2779 28.0679 23.6361 27.3627L23.9291 28.4032C22.6158 28.7768 21.2572 28.9673 19.8918 28.9692Z" fill="#FBEABD"/>
</svg>
