<svg width="40" height="40" viewBox="0 0 40 40" fill="none" xmlns="http://www.w3.org/2000/svg">
<path d="M31.3407 26.9305H23.168L27.2258 25.2495C27.3779 25.184 27.4982 25.0613 27.5605 24.9079C27.6228 24.7544 27.6222 24.5826 27.5588 24.4296C27.4954 24.2766 27.3743 24.1547 27.2217 24.0903C27.0691 24.0259 26.8973 24.0242 26.7435 24.0855L22.6847 25.7668L28.4643 19.9872C28.5781 19.8682 28.6409 19.7094 28.639 19.5448C28.6372 19.3801 28.571 19.2228 28.4546 19.1063C28.3382 18.9899 28.1808 18.9237 28.0161 18.9219C27.8515 18.92 27.6927 18.9827 27.5737 19.0966L21.7938 24.8758L23.4751 20.8171C23.5368 20.6632 23.5353 20.4912 23.471 20.3383C23.4066 20.1855 23.2847 20.0642 23.1315 20.0007C22.9783 19.9372 22.8062 19.9367 22.6527 19.9992C22.4991 20.0617 22.3763 20.1823 22.3111 20.3347L20.6302 24.3925V1.09883C20.6302 0.931721 20.5638 0.771458 20.4457 0.653296C20.3275 0.535133 20.1672 0.46875 20.0001 0.46875C19.833 0.46875 19.6728 0.535133 19.5546 0.653296C19.4364 0.771458 19.37 0.931721 19.37 1.09883V24.394L17.6886 20.3347C17.6576 20.2573 17.6115 20.1868 17.5531 20.1274C17.4946 20.0679 17.425 20.0206 17.3481 19.9883C17.2713 19.956 17.1888 19.9392 17.1054 19.9389C17.0221 19.9387 16.9395 19.955 16.8625 19.987C16.7854 20.0189 16.7155 20.0658 16.6568 20.1249C16.598 20.184 16.5515 20.2542 16.5201 20.3315C16.4887 20.4087 16.4729 20.4914 16.4736 20.5747C16.4744 20.6581 16.4917 20.7405 16.5245 20.8171L18.2058 24.8758L12.4262 19.0962C12.3071 18.9833 12.1486 18.9214 11.9844 18.9237C11.8203 18.9259 11.6636 18.9921 11.5475 19.1081C11.4315 19.2242 11.3653 19.3809 11.3631 19.545C11.3608 19.7091 11.4227 19.8676 11.5356 19.9868L17.3152 25.7664L13.2565 24.0851C13.1026 24.0234 12.9306 24.0249 12.7777 24.0892C12.6249 24.1536 12.5036 24.2755 12.4401 24.4287C12.3766 24.5819 12.3761 24.754 12.4386 24.9075C12.5011 25.0611 12.6217 25.1839 12.7741 25.2491L16.8319 26.9301H8.66004C8.57671 26.9291 8.49403 26.9448 8.41678 26.976C8.33952 27.0073 8.26923 27.0535 8.20998 27.1121C8.15073 27.1707 8.10369 27.2405 8.07158 27.3174C8.03948 27.3943 8.02295 27.4768 8.02295 27.5601C8.02295 27.6434 8.03948 27.726 8.07158 27.8029C8.10369 27.8798 8.15073 27.9495 8.20998 28.0081C8.26923 28.0667 8.33952 28.113 8.41678 28.1442C8.49403 28.1755 8.57671 28.1911 8.66004 28.1902H16.8329L12.7735 29.872C12.6211 29.9373 12.5005 30.0601 12.438 30.2136C12.3755 30.3672 12.376 30.5393 12.4395 30.6924C12.503 30.8456 12.6243 30.9676 12.7771 31.0319C12.9299 31.0963 13.102 31.0978 13.2559 31.0361L17.3146 29.3548L11.535 35.1345C11.4212 35.2534 11.3584 35.4122 11.3603 35.5769C11.3621 35.7415 11.4283 35.8989 11.5447 36.0153C11.6612 36.1317 11.8185 36.1979 11.9832 36.1998C12.1478 36.2016 12.3066 36.1389 12.4256 36.0251L18.2048 30.2459L16.5243 34.3047C16.463 34.4585 16.4648 34.6303 16.5292 34.7829C16.5936 34.9355 16.7155 35.0566 16.8685 35.12C17.0215 35.1834 17.1933 35.184 17.3467 35.1217C17.5002 35.0594 17.6229 34.9391 17.6884 34.787L19.3699 30.7272V38.9012C19.3699 39.0683 19.4363 39.2285 19.5544 39.3467C19.6726 39.4649 19.8329 39.5312 20 39.5312C20.1671 39.5312 20.3273 39.4649 20.4455 39.3467C20.5637 39.2285 20.63 39.0683 20.63 38.9012V30.7285L22.3109 34.7869C22.3764 34.939 22.4991 35.0592 22.6526 35.1215C22.806 35.1838 22.9778 35.1832 23.1308 35.1198C23.2838 35.0564 23.4057 34.9353 23.4701 34.7828C23.5345 34.6302 23.5363 34.4584 23.475 34.3045L21.794 30.2462L27.5733 36.0254C27.6923 36.1392 27.8511 36.2019 28.0157 36.2001C28.1804 36.1983 28.3378 36.132 28.4542 36.0156C28.5706 35.8992 28.6368 35.7418 28.6386 35.5772C28.6405 35.4125 28.5778 35.2537 28.4639 35.1348L22.6843 29.3551L26.7431 31.0364C26.8969 31.0977 27.0687 31.096 27.2213 31.0316C27.3739 30.9672 27.495 30.8453 27.5584 30.6923C27.6218 30.5393 27.6224 30.3675 27.5601 30.214C27.4978 30.0606 27.3776 29.9378 27.2254 29.8723L23.1661 28.1909H31.3404C32.1577 28.2031 32.1588 26.918 31.3407 26.9305ZM18.1099 27.5605C18.1111 27.1709 18.2329 26.7912 18.4585 26.4735C18.6841 26.1559 19.0025 25.9159 19.37 25.7864V27.5605C19.37 27.7276 19.4363 27.8878 19.5545 28.006C19.6727 28.1242 19.8329 28.1905 20 28.1905C20.1671 28.1905 20.3274 28.1242 20.4456 28.006C20.5637 27.8878 20.6301 27.7276 20.6301 27.5605V25.7864C22.5926 26.444 22.0944 29.4739 20 29.4505C19.4989 29.4499 19.0184 29.2506 18.6641 28.8963C18.3098 28.542 18.1104 28.0616 18.1099 27.5605Z" fill="#FBEABD"/>
</svg>
