<svg width="40" height="40" viewBox="0 0 40 40" fill="none" xmlns="http://www.w3.org/2000/svg">
<g clip-path="url(#clip0_43_469)">
<path d="M36.2096 27.4958V12.4848C36.9067 12.2755 37.4196 11.6319 37.4196 10.8629C37.4196 9.92548 36.6619 9.1629 35.7299 9.1629C35.297 9.1629 34.906 9.33226 34.6067 9.60258L34.6148 9.58935L21.6406 2.10097L21.6335 2.11355C21.6667 1.98032 21.6899 1.84355 21.6899 1.7C21.6899 0.762581 20.9319 0 20.0002 0C19.0686 0 18.3106 0.762581 18.3106 1.7C18.3106 1.84129 18.3328 1.97645 18.3651 2.10774L18.3599 2.10129L5.49218 9.61935C5.49218 9.61935 5.49411 9.62323 5.49605 9.6271C5.18766 9.29806 4.75411 9.09 4.27024 9.09C3.33863 9.09 2.58057 9.85258 2.58057 10.79C2.58057 11.5587 3.09347 12.2023 3.79057 12.4119V27.4961C3.09379 27.7052 2.58089 28.3487 2.58089 29.1174C2.58089 30.0548 3.33863 30.8174 4.27057 30.8174C4.75282 30.8174 5.18573 30.6103 5.49379 30.2829L5.4925 30.2877L18.3631 37.899C18.1096 38.9471 18.9135 40 20.0002 40C21.0712 40 21.877 38.971 21.6473 37.9316L34.5996 30.3719C34.8996 30.6461 35.2938 30.8177 35.7299 30.8177C36.6615 30.8177 37.4196 30.0552 37.4196 29.1177C37.4196 28.3487 36.9067 27.7052 36.2096 27.4958ZM34.0925 10.4532C34.0799 10.7448 34.0577 10.9794 34.0928 11.2735L27.5922 15.0319L20.4796 10.8945V3.32194C20.7451 3.24226 20.9851 3.10452 21.1786 2.91484L21.1757 2.92L34.0925 10.4532ZM18.8993 2.97871C19.0783 3.13484 19.2883 3.25161 19.5209 3.32161V10.8942L12.4654 14.9987L5.92153 11.1445C5.97057 10.9139 5.97186 10.6742 5.92411 10.4432L18.8993 2.97871ZM21.169 37.0774C20.9773 36.8919 20.7409 36.7568 20.4796 36.6784V29.1055L28.0644 24.6935V15.871L20.4796 20.2765V28.9794H19.5206V20.2745L11.936 15.8042V24.6935L19.5209 29.1055V36.6781C19.2751 36.7519 19.0528 36.8774 18.868 37.0471L5.90186 29.5355C5.93605 29.401 5.9596 29.2626 5.9596 29.1174C5.9596 28.3487 5.4467 27.7052 4.74992 27.4958V12.4113C5.01895 12.3303 5.26282 12.1906 5.45734 11.9971V11.9981L12.2196 15.9677L12.7044 15.1429L20.0022 19.4442L27.3564 15.1726L27.8357 16L34.6151 12.1368L34.6067 12.1229C34.7899 12.2887 35.0086 12.4119 35.2509 12.4845V27.4955C34.3331 27.7713 33.9522 28.6645 34.0912 29.5229L21.169 37.0774Z" fill="#FBEABD"/>
</g>
<defs>
<clipPath id="clip0_43_469">
<rect width="40" height="40" fill="white"/>
</clipPath>
</defs>
</svg>
