<svg width="40" height="40" viewBox="0 0 40 40" fill="none" xmlns="http://www.w3.org/2000/svg">
<g clip-path="url(#clip0_588_254)">
<mask id="mask0_588_254" style="mask-type:luminance" maskUnits="userSpaceOnUse" x="0" y="0" width="40" height="40">
<path d="M40 0H0V40H40V0Z" fill="white"/>
</mask>
<g mask="url(#mask0_588_254)">
<path d="M36.2091 27.4958V12.4848C36.9062 12.2755 37.4191 11.6319 37.4191 10.8629C37.4191 9.92548 36.6614 9.1629 35.7294 9.1629C35.2965 9.1629 34.9055 9.33226 34.6062 9.60258L34.6143 9.58935L21.6401 2.10097L21.633 2.11355C21.6662 1.98032 21.6894 1.84355 21.6894 1.7C21.6894 0.762581 20.9314 0 19.9997 0C19.0681 0 18.3101 0.762581 18.3101 1.7C18.3101 1.84129 18.3323 1.97645 18.3646 2.10774L18.3594 2.10129L5.49169 9.61935C5.49169 9.61935 5.49362 9.62323 5.49556 9.6271C5.18717 9.29806 4.75362 9.09 4.26975 9.09C3.33814 9.09 2.58008 9.85258 2.58008 10.79C2.58008 11.5587 3.09298 12.2023 3.79008 12.4119V27.4961C3.0933 27.7052 2.5804 28.3487 2.5804 29.1174C2.5804 30.0548 3.33814 30.8174 4.27008 30.8174C4.75233 30.8174 5.18524 30.6103 5.4933 30.2829L5.49201 30.2877L18.3626 37.899C18.1091 38.9471 18.913 40 19.9997 40C21.0707 40 21.8765 38.971 21.6468 37.9316L34.5991 30.3719C34.8991 30.6461 35.2933 30.8177 35.7294 30.8177C36.661 30.8177 37.4191 30.0552 37.4191 29.1177C37.4191 28.3487 36.9062 27.7052 36.2091 27.4958ZM34.092 10.4532C34.0794 10.7448 34.0572 10.9794 34.0923 11.2735L27.5917 15.0319L20.4791 10.8945V3.32194C20.7446 3.24226 20.9846 3.10452 21.1781 2.91484L21.1752 2.92L34.092 10.4532ZM18.8988 2.97871C19.0778 3.13484 19.2878 3.25161 19.5204 3.32161V10.8942L12.4649 14.9987L5.92104 11.1445C5.97008 10.9139 5.97137 10.6742 5.92362 10.4432L18.8988 2.97871ZM21.1685 37.0774C20.9768 36.8919 20.7404 36.7568 20.4791 36.6784V29.1055L28.0639 24.6935V15.871L20.4791 20.2765V28.9794H19.5201V20.2745L11.9355 15.8042V24.6935L19.5204 29.1055V36.6781C19.2746 36.7519 19.0523 36.8774 18.8675 37.0471L5.90137 29.5355C5.93556 29.401 5.95911 29.2626 5.95911 29.1174C5.95911 28.3487 5.44621 27.7052 4.74943 27.4958V12.4113C5.01846 12.3303 5.26233 12.1906 5.45685 11.9971V11.9981L12.2191 15.9677L12.7039 15.1429L20.0017 19.4442L27.3559 15.1726L27.8352 16L34.6146 12.1368L34.6062 12.1229C34.7894 12.2887 35.0081 12.4119 35.2504 12.4845V27.4955C34.3326 27.7713 33.9517 28.6645 34.0907 29.5229L21.1685 37.0774Z" fill="#FBEABD"/>
</g>
</g>
<defs>
<clipPath id="clip0_588_254">
<rect width="40" height="40" fill="white"/>
</clipPath>
</defs>
</svg>
