<svg width="40" height="40" viewBox="0 0 40 40" fill="none" xmlns="http://www.w3.org/2000/svg">
<path d="M19.999 34.3243C10.8276 34.3243 1.08008 32.2876 1.08008 28.5135C1.08008 26.1665 5.09144 24.1984 11.8103 23.2487L15.073 22.8751L15.1952 23.9492L11.9471 24.3211C5.22819 25.2703 2.16117 27.1605 2.16117 28.5135C2.16117 30.7508 9.48711 33.2433 19.999 33.2433C30.5109 33.2433 37.8368 30.7508 37.8368 28.5135C37.8368 27.1622 34.7698 25.2703 28.0368 24.3189L24.4206 23.9497L24.5287 22.8746L28.1655 23.246C34.9065 24.1984 38.9179 26.1665 38.9179 28.5135C38.9179 32.2876 29.1703 34.3243 19.999 34.3243Z" fill="#FBEABD"/>
<path d="M19.9996 31.2162C19.4931 31.2162 7.59961 31.1854 7.59961 28.5135C7.59961 28.0903 7.59961 26.8016 13.8699 26.12C14.9117 26.0087 15.8755 25.5158 16.5756 24.7362C17.2757 23.9567 17.6626 22.9456 17.6618 21.8978V21.5951C17.6423 20.8385 17.3855 20.1071 16.9277 19.5043C16.5194 18.9355 16.277 18.2645 16.2275 17.566C16.1779 16.8676 16.3231 16.1691 16.6469 15.5483C16.9707 14.9275 17.4604 14.4087 18.0616 14.0496C18.6627 13.6906 19.3517 13.5054 20.0518 13.5147C20.7519 13.5239 21.4358 13.7273 22.0272 14.1021C22.6186 14.4769 23.0944 15.0085 23.4017 15.6376C23.709 16.2668 23.8357 16.9689 23.7676 17.6658C23.6996 18.3627 23.4395 19.027 23.0164 19.5849C22.5799 20.163 22.3435 20.8675 22.3428 21.5919V21.8978C22.342 22.9456 22.7287 23.9566 23.4287 24.7363C24.1287 25.5159 25.0924 26.009 26.1342 26.1205C32.4045 26.8022 32.4045 28.0903 32.4045 28.5135C32.3996 31.1854 20.5061 31.2162 19.9996 31.2162ZM8.70231 28.5135C9.16663 29.1184 13.1731 30.1351 19.9996 30.1351C26.8261 30.1351 30.8315 29.1205 31.2969 28.5135C31.0747 28.2605 29.7899 27.6038 26.0137 27.193C24.7066 27.0532 23.4975 26.4347 22.6192 25.4567C21.741 24.4786 21.2557 23.2102 21.2569 21.8957V21.5897C21.2579 20.6291 21.5718 19.695 22.1509 18.9286C22.5749 18.3694 22.7646 17.6671 22.6801 16.9705C22.5956 16.2738 22.2434 15.6373 21.698 15.1957C21.3808 14.9406 21.0107 14.7597 20.6146 14.6662C20.2185 14.5727 19.8065 14.5689 19.4088 14.6551C18.9723 14.7522 18.5666 14.9561 18.2283 15.2485C17.8899 15.5409 17.6294 15.9127 17.4701 16.3305C17.3108 16.7484 17.2576 17.1992 17.3154 17.6427C17.3732 18.0861 17.5401 18.5083 17.8012 18.8713C18.3913 19.6578 18.719 20.6099 18.738 21.593V21.8957C18.7392 23.2102 18.2539 24.4786 17.3756 25.4567C16.4974 26.4347 15.2883 27.0532 13.9812 27.193C10.2072 27.6059 8.92339 28.2627 8.70231 28.5157V28.5135Z" fill="#FBEABD"/>
<path d="M19.9991 12.4324C19.3576 12.4324 18.7306 12.2422 18.1972 11.8858C17.6639 11.5295 17.2482 11.0229 17.0027 10.4303C16.7572 9.83767 16.693 9.18556 16.8182 8.55644C16.9433 7.92731 17.2522 7.34942 17.7058 6.89584C18.1593 6.44227 18.7372 6.13338 19.3664 6.00824C19.9955 5.8831 20.6476 5.94732 21.2402 6.1928C21.8328 6.43827 22.3394 6.85396 22.6957 7.38731C23.0521 7.92066 23.2423 8.54771 23.2423 9.18916C23.2415 10.0491 22.8995 10.8735 22.2915 11.4816C21.6834 12.0896 20.859 12.4316 19.9991 12.4324ZM19.9991 7.027C19.5714 7.027 19.1534 7.15381 18.7978 7.39139C18.4423 7.62897 18.1652 7.96666 18.0015 8.36174C17.8379 8.75682 17.795 9.19156 17.8785 9.61098C17.9619 10.0304 18.1678 10.4157 18.4702 10.7181C18.7726 11.0204 19.1578 11.2264 19.5773 11.3098C19.9967 11.3932 20.4314 11.3504 20.8265 11.1868C21.2216 11.0231 21.5593 10.746 21.7969 10.3904C22.0344 10.0348 22.1612 9.6168 22.1612 9.18916C22.1612 8.61572 21.9334 8.06577 21.528 7.66028C21.1225 7.2548 20.5725 7.027 19.9991 7.027Z" fill="#FBEABD"/>
<path d="M19.8927 28.9692C18.581 28.9915 17.2747 28.7955 16.0273 28.3892L16.4056 27.3768C18.7666 28.0728 21.2788 28.0679 23.637 27.3627L23.93 28.4032C22.6167 28.7768 21.2581 28.9673 19.8927 28.9692Z" fill="#FBEABD"/>
</svg>
