<svg width="40" height="40" viewBox="0 0 40 40" fill="none" xmlns="http://www.w3.org/2000/svg">
<path d="M31.3412 26.9305H23.1685L27.2263 25.2495C27.3784 25.184 27.4987 25.0613 27.561 24.9079C27.6233 24.7544 27.6227 24.5826 27.5593 24.4296C27.4959 24.2766 27.3748 24.1547 27.2222 24.0903C27.0696 24.0259 26.8978 24.0242 26.744 24.0855L22.6852 25.7668L28.4648 19.9872C28.5786 19.8682 28.6414 19.7094 28.6395 19.5448C28.6377 19.3801 28.5715 19.2228 28.4551 19.1063C28.3387 18.9899 28.1813 18.9237 28.0166 18.9219C27.852 18.92 27.6932 18.9827 27.5742 19.0966L21.7943 24.8758L23.4756 20.8171C23.5373 20.6632 23.5358 20.4912 23.4715 20.3383C23.4071 20.1855 23.2852 20.0642 23.132 20.0007C22.9788 19.9372 22.8067 19.9367 22.6532 19.9992C22.4996 20.0617 22.3768 20.1823 22.3116 20.3347L20.6307 24.3925V1.09883C20.6307 0.931721 20.5643 0.771458 20.4462 0.653296C20.328 0.535133 20.1677 0.46875 20.0006 0.46875C19.8335 0.46875 19.6733 0.535133 19.5551 0.653296C19.4369 0.771458 19.3705 0.931721 19.3705 1.09883V24.394L17.6891 20.3347C17.6581 20.2573 17.612 20.1868 17.5536 20.1274C17.4951 20.0679 17.4255 20.0206 17.3486 19.9883C17.2718 19.956 17.1893 19.9392 17.1059 19.9389C17.0226 19.9387 16.94 19.955 16.863 19.987C16.7859 20.0189 16.716 20.0658 16.6573 20.1249C16.5985 20.184 16.552 20.2542 16.5206 20.3315C16.4892 20.4087 16.4734 20.4914 16.4741 20.5747C16.4749 20.6581 16.4922 20.7405 16.525 20.8171L18.2063 24.8758L12.4267 19.0962C12.3076 18.9833 12.1491 18.9214 11.9849 18.9237C11.8208 18.9259 11.6641 18.9921 11.548 19.1081C11.432 19.2242 11.3658 19.3809 11.3636 19.545C11.3613 19.7091 11.4232 19.8676 11.5361 19.9868L17.3157 25.7664L13.257 24.0851C13.1031 24.0234 12.9311 24.0249 12.7782 24.0892C12.6254 24.1536 12.5041 24.2755 12.4406 24.4287C12.3771 24.5819 12.3766 24.754 12.4391 24.9075C12.5016 25.0611 12.6222 25.1839 12.7746 25.2491L16.8324 26.9301H8.66053C8.5772 26.9291 8.49452 26.9448 8.41727 26.976C8.34001 27.0073 8.26972 27.0535 8.21047 27.1121C8.15122 27.1707 8.10418 27.2405 8.07207 27.3174C8.03997 27.3943 8.02344 27.4768 8.02344 27.5601C8.02344 27.6434 8.03997 27.726 8.07207 27.8029C8.10418 27.8798 8.15122 27.9495 8.21047 28.0081C8.26972 28.0667 8.34001 28.113 8.41727 28.1442C8.49452 28.1755 8.5772 28.1911 8.66053 28.1902H16.8334L12.774 29.872C12.6216 29.9373 12.501 30.0601 12.4385 30.2136C12.376 30.3672 12.3765 30.5393 12.44 30.6924C12.5035 30.8456 12.6248 30.9676 12.7776 31.0319C12.9304 31.0963 13.1025 31.0978 13.2564 31.0361L17.3151 29.3548L11.5355 35.1345C11.4217 35.2534 11.3589 35.4122 11.3608 35.5769C11.3626 35.7415 11.4288 35.8989 11.5452 36.0153C11.6617 36.1317 11.819 36.1979 11.9837 36.1998C12.1483 36.2016 12.3071 36.1389 12.4261 36.0251L18.2053 30.2459L16.5248 34.3047C16.4635 34.4585 16.4653 34.6303 16.5297 34.7829C16.5941 34.9355 16.716 35.0566 16.869 35.12C17.022 35.1834 17.1938 35.184 17.3472 35.1217C17.5007 35.0594 17.6234 34.9391 17.6889 34.787L19.3704 30.7272V38.9012C19.3704 39.0683 19.4368 39.2285 19.5549 39.3467C19.6731 39.4649 19.8334 39.5312 20.0005 39.5312C20.1676 39.5312 20.3278 39.4649 20.446 39.3467C20.5642 39.2285 20.6305 39.0683 20.6305 38.9012V30.7285L22.3114 34.7869C22.3769 34.939 22.4996 35.0592 22.6531 35.1215C22.8065 35.1838 22.9783 35.1832 23.1313 35.1198C23.2843 35.0564 23.4062 34.9353 23.4706 34.7828C23.535 34.6302 23.5368 34.4584 23.4755 34.3045L21.7945 30.2462L27.5738 36.0254C27.6928 36.1392 27.8516 36.2019 28.0162 36.2001C28.1809 36.1983 28.3383 36.132 28.4547 36.0156C28.5711 35.8992 28.6373 35.7418 28.6391 35.5772C28.641 35.4125 28.5783 35.2537 28.4644 35.1348L22.6848 29.3551L26.7436 31.0364C26.8974 31.0977 27.0692 31.096 27.2218 31.0316C27.3744 30.9672 27.4955 30.8453 27.5589 30.6923C27.6223 30.5393 27.6229 30.3675 27.5606 30.214C27.4983 30.0606 27.3781 29.9378 27.2259 29.8723L23.1666 28.1909H31.3409C32.1582 28.2031 32.1593 26.918 31.3412 26.9305ZM18.1104 27.5605C18.1116 27.1709 18.2334 26.7912 18.459 26.4735C18.6846 26.1559 19.003 25.9159 19.3705 25.7864V27.5605C19.3705 27.7276 19.4368 27.8878 19.555 28.006C19.6732 28.1242 19.8334 28.1905 20.0005 28.1905C20.1676 28.1905 20.3279 28.1242 20.4461 28.006C20.5642 27.8878 20.6306 27.7276 20.6306 27.5605V25.7864C22.5931 26.444 22.0949 29.4739 20.0005 29.4505C19.4994 29.4499 19.0189 29.2506 18.6646 28.8963C18.3103 28.542 18.1109 28.0616 18.1104 27.5605Z" fill="#FBEABD"/>
</svg>
