<svg width="28" height="28" viewBox="0 0 28 28" fill="none" xmlns="http://www.w3.org/2000/svg">
<path fill-rule="evenodd" clip-rule="evenodd" d="M13.9992 26.25C14.2312 26.25 14.4538 26.1578 14.6179 25.9937C14.782 25.8296 14.8742 25.607 14.8742 25.375V4.73723L20.3797 10.2445C20.544 10.4088 20.7668 10.5011 20.9992 10.5011C21.2315 10.5011 21.4544 10.4088 21.6187 10.2445C21.783 10.0802 21.8753 9.85733 21.8753 9.62498C21.8753 9.39262 21.783 9.16978 21.6187 9.00548L14.6187 2.00548C14.5374 1.92399 14.4408 1.85934 14.3345 1.81523C14.2282 1.77112 14.1142 1.74841 13.9992 1.74841C13.8841 1.74841 13.7701 1.77112 13.6638 1.81523C13.5575 1.85934 13.4609 1.92399 13.3797 2.00548L6.37965 9.00548C6.2983 9.08683 6.23376 9.18341 6.18974 9.2897C6.14571 9.396 6.12305 9.50992 6.12305 9.62498C6.12305 9.85733 6.21535 10.0802 6.37965 10.2445C6.54395 10.4088 6.76679 10.5011 6.99915 10.5011C7.23151 10.5011 7.45435 10.4088 7.61865 10.2445L13.1242 4.73723V25.375C13.1242 25.607 13.2163 25.8296 13.3804 25.9937C13.5445 26.1578 13.7671 26.25 13.9992 26.25Z" fill="white"/>
</svg>
