<svg width="24" height="24" viewBox="0 0 24 24" fill="none" xmlns="http://www.w3.org/2000/svg">
<g clip-path="url(#clip0_581_373)">
<path d="M18.2187 0.218998C18.2884 0.149153 18.3711 0.0937388 18.4623 0.0559291C18.5534 0.0181194 18.6511 -0.00134277 18.7497 -0.00134277C18.8484 -0.00134277 18.946 0.0181194 19.0372 0.0559291C19.1283 0.0937388 19.211 0.149153 19.2807 0.218998L23.7807 4.719C23.8506 4.78867 23.906 4.87143 23.9438 4.96255C23.9816 5.05367 24.001 5.15135 24.001 5.25C24.001 5.34865 23.9816 5.44633 23.9438 5.53745C23.906 5.62857 23.8506 5.71133 23.7807 5.781L8.78071 20.781C8.70873 20.8525 8.623 20.9086 8.52871 20.946L1.02871 23.946C0.892413 24.0006 0.743103 24.0139 0.599288 23.9844C0.455474 23.9549 0.32348 23.8838 0.21967 23.78C0.11586 23.6762 0.0448002 23.5442 0.015299 23.4004C-0.0142021 23.2566 -0.000846891 23.1073 0.0537091 22.971L3.05371 15.471C3.0911 15.3767 3.14723 15.291 3.21871 15.219L18.2187 0.218998ZM16.8102 3.75L20.2497 7.1895L22.1892 5.25L18.7497 1.8105L16.8102 3.75ZM19.1892 8.25L15.7497 4.8105L5.99971 14.5605V15H6.74971C6.94862 15 7.13939 15.079 7.28004 15.2197C7.42069 15.3603 7.49971 15.5511 7.49971 15.75V16.5H8.24971C8.44862 16.5 8.63939 16.579 8.78004 16.7197C8.92069 16.8603 8.99971 17.0511 8.99971 17.25V18H9.43921L19.1892 8.25ZM4.54771 16.0125L4.38871 16.1715L2.09671 21.903L7.82821 19.611L7.98721 19.452C7.84414 19.3985 7.7208 19.3027 7.63368 19.1772C7.54656 19.0518 7.49982 18.9027 7.49971 18.75V18H6.74971C6.5508 18 6.36003 17.921 6.21938 17.7803C6.07873 17.6397 5.99971 17.4489 5.99971 17.25V16.5H5.24971C5.09698 16.4999 4.94792 16.4531 4.82247 16.366C4.69703 16.2789 4.60116 16.1556 4.54771 16.0125Z" fill="white"/>
</g>
<defs>
<clipPath id="clip0_581_373">
<rect width="24" height="24" fill="white"/>
</clipPath>
</defs>
</svg>
