<svg width="34" height="45" viewBox="0 0 34 45" fill="none" xmlns="http://www.w3.org/2000/svg">
<g clip-path="url(#clip0_24_210)">
<path d="M10.8412 41.2515C10.5148 41.0837 10.1232 41.2235 9.95537 41.5406C9.25603 42.9392 8.50074 43.9276 8.49142 43.937C8.26763 44.226 8.32358 44.6363 8.61264 44.8601C8.73386 44.9533 8.87372 44.9999 9.01359 44.9999C9.20941 44.9999 9.40522 44.916 9.53576 44.7482C9.57306 44.7016 10.375 43.6572 11.1396 42.1373C11.2981 41.811 11.1675 41.4193 10.8505 41.2515H10.8412Z" fill="#000"/>
<path d="M23.3079 39.7782C22.9723 38.7619 22.8231 37.5124 22.7671 36.552L25.1355 34.1835C25.3966 33.9225 25.3966 33.5122 25.1355 33.2511C24.8745 32.99 24.4642 32.99 24.2031 33.2511L19.9325 37.531C19.5222 37.9413 18.9627 38.1744 18.3939 38.1744H15.6339C15.0558 38.1744 14.4963 37.9413 14.0953 37.531L9.3958 32.8315C8.64052 32.0762 8.16497 31.0785 8.05308 30.0248L6.92481 19.3762C7.79199 18.6116 11.2607 15.9542 17.0139 15.9542C22.7671 15.9542 26.2265 18.621 27.103 19.3762L25.9748 30.0248C25.9375 30.3512 25.8722 30.6775 25.7696 30.9946C25.6577 31.3396 25.8442 31.7126 26.1892 31.8244C26.2545 31.8431 26.3291 31.8617 26.3944 31.8617C26.6741 31.8617 26.9258 31.6846 27.0191 31.4048C27.1496 31.0039 27.2429 30.5843 27.2895 30.1647L27.6345 26.9011L28.567 26.5934C29.8537 26.1645 30.7862 25.0735 30.9913 23.7308L31.4109 21.036C31.5135 20.3926 31.327 19.7399 30.8981 19.2457C30.6183 18.9193 30.2454 18.6769 29.8444 18.5557C29.7791 17.6978 29.5647 16.868 29.2197 16.094V15.4879C29.2197 11.0868 26.8792 7.22643 23.3825 5.0818C22.7205 2.12594 20.091 0.00927734 17.0232 0.00927734C13.9555 0.00927734 11.3353 2.12594 10.6639 5.0818C10.0205 5.47343 9.41445 5.92101 8.85498 6.43385C8.58457 6.67629 8.56592 7.09589 8.80836 7.3663C9.0508 7.63671 9.4704 7.65536 9.74081 7.41292C11.7456 5.60397 14.3285 4.61558 17.0232 4.61558C22.506 4.61558 27.0564 8.69038 27.8024 13.9774C27.7651 13.9401 27.7278 13.8934 27.6905 13.8561C25.695 11.87 22.217 9.51093 17.0326 9.51093C11.8481 9.51093 8.37011 11.87 6.37467 13.8561C6.33737 13.8934 6.30007 13.9401 6.26277 13.9774C6.47724 12.4295 7.02738 10.9469 7.87591 9.62283C8.07172 9.31512 7.9878 8.90484 7.6801 8.70903C7.37239 8.51322 6.96211 8.59714 6.7663 8.90484C5.50749 10.8723 4.83613 13.1475 4.83613 15.4879V16.094C4.49112 16.868 4.27666 17.7072 4.21138 18.5557C3.80111 18.6769 3.43745 18.91 3.15772 19.2457C2.73811 19.7399 2.55162 20.3926 2.64487 21.036L3.06447 23.7308C3.26961 25.0735 4.20206 26.1645 5.48884 26.5934L6.42129 26.9011L6.7663 30.1647C6.90616 31.5167 7.52158 32.7942 8.482 33.7639L11.27 36.552C11.2327 37.186 11.1488 38.0159 10.981 38.8085C10.9064 39.1628 11.1302 39.5172 11.4938 39.5918C11.5404 39.6011 11.5871 39.6104 11.6337 39.6104C11.9414 39.6104 12.2118 39.3959 12.2771 39.0882C12.3703 38.6407 12.4356 38.1931 12.4915 37.7641L13.1909 38.4635C13.8436 39.1162 14.7481 39.4892 15.6619 39.4892H18.4219C19.345 39.4892 20.2495 39.1162 20.8929 38.4635L21.5922 37.7641C21.6855 38.5661 21.844 39.4239 22.0958 40.1885C22.9163 42.6595 24.4455 44.6456 24.5108 44.7295C24.6413 44.8974 24.8372 44.9813 25.033 44.9813C25.1728 44.9813 25.3127 44.9347 25.4339 44.8414C25.723 44.6177 25.7789 44.2074 25.5551 43.9183C25.5365 43.8997 24.1005 42.0161 23.3546 39.7596L23.3079 39.7782ZM12.3423 4.2053C13.2002 2.47094 14.9812 1.31471 17.0046 1.31471C19.028 1.31471 20.809 2.47094 21.6668 4.2053C20.2309 3.60853 18.655 3.28217 17.0046 3.28217C15.3542 3.28217 13.8063 3.59921 12.3423 4.2053ZM30.0962 20.8309L29.6766 23.5256C29.546 24.3742 28.9586 25.0735 28.138 25.3439L27.7744 25.4651L28.3805 19.7865H29.201C29.4714 19.7865 29.7232 19.8984 29.891 20.1036C30.0682 20.3087 30.1428 20.5698 30.0962 20.8402V20.8309ZM7.26982 14.7793C9.08809 12.9703 12.2584 10.8164 17.0046 10.8164C21.7508 10.8164 24.9118 12.9703 26.7394 14.7793C27.7278 15.7583 28.3525 17.0731 28.5017 18.4624H28.0448C27.1403 17.6419 23.4105 14.6394 17.0046 14.6394C10.5987 14.6394 6.86886 17.6419 5.96439 18.4624H5.50749C5.65668 17.0731 6.28142 15.7583 7.26982 14.7793ZM5.87114 25.3346C5.05991 25.0642 4.46315 24.3649 4.3326 23.5163L3.913 20.8215C3.8757 20.5605 3.9503 20.2901 4.11814 20.0849C4.2953 19.8798 4.54707 19.7679 4.80815 19.7679H5.62871L6.2348 25.4465L5.87114 25.3253V25.3346Z" fill="#000"/>
<path d="M24.7346 26.9944C24.7626 26.8079 24.7905 26.6214 24.8092 26.4442C24.8465 26.0806 24.5854 25.7542 24.2217 25.7169C23.8581 25.6796 23.5317 25.9407 23.4944 26.3044C23.4758 26.4629 23.4571 26.6307 23.4292 26.7986C23.3732 27.1622 23.6157 27.4979 23.9793 27.5538C24.0166 27.5538 24.0446 27.5538 24.0819 27.5538C24.3989 27.5538 24.6786 27.3207 24.7346 26.9944Z" fill="#000"/>
<path d="M10.4495 30.5843C10.5707 30.8081 10.7945 30.9387 11.037 30.9387C11.1395 30.9387 11.2421 30.9107 11.3447 30.8641C11.671 30.6962 11.7922 30.2953 11.6244 29.9782C11.4845 29.7078 11.354 29.4281 11.2328 29.1484C11.0929 28.8127 10.7106 28.6542 10.3749 28.794C10.0392 28.9339 9.88072 29.3162 10.0206 29.6519C10.1511 29.9689 10.3003 30.2859 10.4588 30.5843H10.4495Z" fill="#000"/>
<path d="M12.9951 31.9738C12.7527 31.7034 12.3424 31.6754 12.0627 31.9178C11.7829 32.1603 11.7643 32.5705 12.0067 32.8503C12.2305 33.1114 12.473 33.3538 12.7247 33.5962C12.8553 33.7175 13.0138 33.7734 13.1816 33.7734C13.3588 33.7734 13.5266 33.7081 13.6572 33.5683C13.9089 33.3072 13.8996 32.8876 13.6292 32.6358C13.4054 32.4307 13.1909 32.2069 12.9951 31.9738Z" fill="#000"/>
<path d="M23.6343 28.7847C23.2987 28.6449 22.9164 28.8034 22.7765 29.1391C22.6646 29.4188 22.534 29.6985 22.3849 29.969C22.217 30.2953 22.3382 30.6869 22.6646 30.8548C22.7578 30.9014 22.8697 30.9294 22.9723 30.9294C23.2054 30.9294 23.4385 30.7988 23.5597 30.575C23.7183 30.2673 23.8675 29.9596 23.998 29.6426C24.1379 29.3069 23.9793 28.9246 23.6437 28.7847H23.6343Z" fill="#000"/>
<path d="M15.55 34.3514C15.2796 34.109 14.86 34.137 14.6175 34.4074C14.3751 34.6778 14.4031 35.0974 14.6735 35.3398L15.4008 35.9832C15.522 36.0951 15.6805 36.151 15.839 36.151C16.0255 36.151 16.2027 36.0764 16.3332 35.9273C16.5757 35.6568 16.5477 35.2372 16.2773 34.9948L15.55 34.3514Z" fill="#000"/>
<path d="M21.0142 31.9738C20.8184 32.1976 20.6039 32.4213 20.3801 32.6358C20.119 32.8876 20.1097 33.3072 20.3615 33.5683C20.492 33.7081 20.6692 33.7734 20.837 33.7734C20.9955 33.7734 21.1634 33.7175 21.2939 33.5962C21.5457 33.3631 21.7881 33.1114 22.0119 32.8503C22.2544 32.5799 22.2264 32.1603 21.956 31.9178C21.6856 31.6754 21.266 31.7034 21.0235 31.9738H21.0142Z" fill="#000"/>
<path d="M18.4499 34.3514L17.7226 34.9948C17.4521 35.2372 17.4242 35.6568 17.6666 35.9273C17.7971 36.0764 17.9743 36.151 18.1608 36.151C18.3193 36.151 18.4685 36.0951 18.5991 35.9832L19.3264 35.3398C19.5968 35.0974 19.6247 34.6778 19.3823 34.4074C19.1399 34.137 18.7203 34.109 18.4499 34.3514Z" fill="#000"/>
<path d="M10.5707 26.7893C10.5427 26.6214 10.5241 26.4629 10.5054 26.2951C10.4681 25.9314 10.1418 25.6703 9.77812 25.7076C9.41447 25.7449 9.15338 26.0713 9.19068 26.435C9.20933 26.6214 9.2373 26.8079 9.26528 26.9851C9.3119 27.3115 9.59163 27.5446 9.91799 27.5446C9.95529 27.5446 9.98326 27.5446 10.0206 27.5446C10.3842 27.4886 10.6267 27.1529 10.5707 26.7893Z" fill="#000"/>
<path d="M33.2851 31.4328L31.9517 29.0084C31.7746 28.6914 31.3736 28.5702 31.0566 28.7473L28.6322 30.0807C28.3152 30.2579 28.194 30.6589 28.3711 30.9759C28.5483 31.2929 28.9492 31.4141 29.2663 31.237L30.3106 30.6589C29.3595 33.5588 27.6531 36.1417 25.35 38.1837C25.0796 38.4262 25.0516 38.8458 25.294 39.1162C25.4246 39.2654 25.6018 39.34 25.7882 39.34C25.9468 39.34 26.096 39.284 26.2265 39.1721C28.7161 36.9622 30.5437 34.1835 31.5694 31.0505L32.1196 32.0575C32.2408 32.272 32.4646 32.4025 32.6977 32.4025C32.8096 32.4025 32.9122 32.3746 33.0147 32.3186C33.3318 32.1414 33.453 31.7405 33.2758 31.4235L33.2851 31.4328Z" fill="#000"/>
<path d="M8.70583 39.1257C8.94827 38.8553 8.9203 38.4357 8.64989 38.1932C6.33741 36.1512 4.64035 33.5683 3.68925 30.6684L4.7336 31.2465C5.05063 31.4237 5.45158 31.3024 5.62875 30.9854C5.80591 30.6684 5.6847 30.2674 5.36766 30.0903L2.9433 28.7569C2.62626 28.5797 2.22531 28.7009 2.04814 29.0179L0.714741 31.4423C0.537576 31.7593 0.658795 32.1603 0.975827 32.3375C1.0784 32.3934 1.18097 32.4214 1.29286 32.4214C1.52597 32.4214 1.74976 32.3002 1.87098 32.0764L2.43045 31.0693C3.45614 34.193 5.28374 36.9811 7.77338 39.191C7.8946 39.3029 8.05312 39.3588 8.21163 39.3588C8.39812 39.3588 8.57529 39.2842 8.70583 39.135V39.1257Z" fill="#000"/>
</g>
<defs>
<clipPath id="clip0_24_210">
<rect width="32.7196" height="45" fill="#000" transform="translate(0.640137)"/>
</clipPath>
</defs>
</svg>
