<svg width="50" height="45" viewBox="0 0 50 45" fill="none" xmlns="http://www.w3.org/2000/svg">
<g clip-path="url(#clip0_24_444)">
<path d="M0.989956 34.2787C0.769956 34.2787 0.539956 34.1662 0.389956 33.9637C0.109956 33.5925 0.149956 33.03 0.479956 32.715L1.95996 31.3087C4.11996 29.2612 7.25996 29.2612 9.41996 31.3087C10.99 32.805 13.27 32.805 14.84 31.3087C17 29.2612 20.13 29.2612 22.29 31.3087C23.91 32.85 26.14 32.85 27.7 31.3087C29.87 29.25 33 29.25 35.16 31.3087C36.73 32.805 39.01 32.805 40.58 31.3087C42.74 29.2612 45.88 29.2612 48.04 31.3087L49.52 32.715C49.85 33.03 49.89 33.5925 49.61 33.9637C49.33 34.335 48.83 34.38 48.5 34.065L47.02 32.6587C45.45 31.1625 43.17 31.1625 41.6 32.6587C39.44 34.7062 36.3 34.7175 34.14 32.6587C32.57 31.1625 30.29 31.1625 28.72 32.6587C26.56 34.7737 23.49 34.7737 21.26 32.6587C19.69 31.1625 17.41 31.1625 15.84 32.6587C13.68 34.7062 10.54 34.7175 8.37996 32.6587C6.80996 31.1625 4.52996 31.1625 2.95996 32.6587L1.47996 34.065C1.32996 34.2 1.14996 34.2787 0.969956 34.2787H0.989956Z" fill="#000"/>
<path d="M49.0099 28.8001C48.8299 28.8001 48.6499 28.7326 48.4999 28.5863L47.0199 27.1801C45.4499 25.6838 43.1699 25.6838 41.5999 27.1801C39.4399 29.2276 36.2999 29.2388 34.1399 27.1801C32.5699 25.6838 30.2899 25.6838 28.7199 27.1801C26.5599 29.2276 23.4199 29.2388 21.2599 27.1801C19.6899 25.6838 17.4099 25.6838 15.8399 27.1801C13.6799 29.2276 10.5399 29.2388 8.37994 27.1801C6.80994 25.6838 4.52994 25.6838 2.95994 27.1801L1.47994 28.5863C1.14994 28.9013 0.649937 28.8563 0.369937 28.4851C0.0899366 28.1138 0.129937 27.5513 0.459937 27.2363L1.93994 25.8301C4.09994 23.7826 7.23994 23.7826 9.39994 25.8301C10.9699 27.3263 13.2499 27.3263 14.8199 25.8301C16.9799 23.7826 20.1099 23.7826 22.2699 25.8301C23.8399 27.3263 26.1199 27.3263 27.6899 25.8301C29.8499 23.7826 32.9899 23.7826 35.1499 25.8301C36.7199 27.3263 38.9999 27.3263 40.5699 25.8301C42.7299 23.7826 45.8699 23.7826 48.0299 25.8301L49.5099 27.2363C49.8399 27.5513 49.8799 28.1138 49.5999 28.4851C49.4399 28.6876 49.2199 28.8001 48.9999 28.8001H49.0099Z" fill="#000"/>
<path d="M0.989956 23.3101C0.769956 23.3101 0.539956 23.1976 0.389956 22.9951C0.109956 22.6238 0.149956 22.0613 0.479956 21.7463L1.95996 20.3401C4.11996 18.2926 7.25996 18.2926 9.41996 20.3401C10.99 21.8363 13.27 21.8363 14.84 20.3401C17 18.2926 20.13 18.2926 22.29 20.3401C23.86 21.8363 26.14 21.8363 27.71 20.3401C29.87 18.2926 33.01 18.2926 35.17 20.3401C36.74 21.8363 39.02 21.8363 40.59 20.3401C42.75 18.2926 45.89 18.2926 48.05 20.3401L49.53 21.7463C49.86 22.0613 49.9 22.6238 49.62 22.9951C49.34 23.3663 48.84 23.4113 48.51 23.0963L47.03 21.6901C45.46 20.1938 43.18 20.1938 41.61 21.6901C39.45 23.7376 36.31 23.7488 34.15 21.6901C32.58 20.1938 30.3 20.1938 28.73 21.6901C26.57 23.7376 23.43 23.7488 21.27 21.6901C19.7 20.1938 17.42 20.1938 15.85 21.6901C13.69 23.7376 10.55 23.7488 8.38996 21.6901C6.81996 20.1938 4.53996 20.1938 2.96996 21.6901L1.48996 23.0963C1.33996 23.2313 1.15996 23.3101 0.979956 23.3101H0.989956Z" fill="#000"/>
<path d="M2.24995 39.33H0.989951C0.549951 39.33 0.199951 38.9362 0.199951 38.4412C0.199951 37.9462 0.549951 37.5525 0.989951 37.5525H2.24995C2.68995 37.5525 3.03995 37.9462 3.03995 38.4412C3.03995 38.9362 2.68995 39.33 2.24995 39.33Z" fill="#000"/>
<path d="M44.16 39.33H41.77C41.33 39.33 40.98 38.9362 40.98 38.4412C40.98 37.9462 41.33 37.5525 41.77 37.5525H44.16C44.6 37.5525 44.95 37.9462 44.95 38.4412C44.95 38.9362 44.6 39.33 44.16 39.33ZM38.17 39.33H35.78C35.34 39.33 34.99 38.9362 34.99 38.4412C34.99 37.9462 35.34 37.5525 35.78 37.5525H38.17C38.61 37.5525 38.96 37.9462 38.96 38.4412C38.96 38.9362 38.61 39.33 38.17 39.33ZM32.18 39.33H29.79C29.35 39.33 29 38.9362 29 38.4412C29 37.9462 29.35 37.5525 29.79 37.5525H32.18C32.62 37.5525 32.97 37.9462 32.97 38.4412C32.97 38.9362 32.62 39.33 32.18 39.33ZM26.19 39.33H23.79C23.35 39.33 23 38.9362 23 38.4412C23 37.9462 23.35 37.5525 23.79 37.5525H26.19C26.62 37.5525 26.98 37.9462 26.98 38.4412C26.98 38.9362 26.63 39.33 26.19 39.33ZM20.2 39.33H17.81C17.37 39.33 17.02 38.9362 17.02 38.4412C17.02 37.9462 17.37 37.5525 17.81 37.5525H20.2C20.64 37.5525 20.99 37.9462 20.99 38.4412C20.99 38.9362 20.64 39.33 20.2 39.33ZM14.21 39.33H11.82C11.38 39.33 11.03 38.9362 11.03 38.4412C11.03 37.9462 11.38 37.5525 11.82 37.5525H14.21C14.65 37.5525 15 37.9462 15 38.4412C15 38.9362 14.65 39.33 14.21 39.33ZM8.22004 39.33H5.83004C5.39004 39.33 5.04004 38.9362 5.04004 38.4412C5.04004 37.9462 5.39004 37.5525 5.83004 37.5525H8.22004C8.66004 37.5525 9.01004 37.9462 9.01004 38.4412C9.01004 38.9362 8.66004 39.33 8.22004 39.33Z" fill="#000"/>
<path d="M49.01 39.33H47.75C47.31 39.33 46.96 38.9362 46.96 38.4412C46.96 37.9462 47.31 37.5525 47.75 37.5525H49.01C49.45 37.5525 49.8 37.9462 49.8 38.4412C49.8 38.9362 49.45 39.33 49.01 39.33Z" fill="#000"/>
<path d="M49.01 44.9999H0.989951C0.549951 44.9999 0.199951 44.6062 0.199951 44.1112C0.199951 43.6162 0.549951 43.2224 0.989951 43.2224H49.01C49.45 43.2224 49.7999 43.6162 49.7999 44.1112C49.7999 44.6062 49.45 44.9999 49.01 44.9999Z" fill="#000"/>
<path d="M5.66988 15.6713C5.22988 15.6713 4.87988 15.2775 4.87988 14.7825V0.88875C4.87988 0.39375 5.23988 0 5.66988 0C6.09988 0 6.45988 0.39375 6.45988 0.88875V14.7937C6.45988 15.2775 6.10988 15.6825 5.66988 15.6825V15.6713Z" fill="#000"/>
<path d="M8.3899 4.52238C8.1999 4.52238 8.0099 4.44363 7.8599 4.29738L5.6599 2.08113L3.4599 4.29738C3.1399 4.62363 2.6399 4.58988 2.3499 4.22988C2.0599 3.86988 2.0899 3.30738 2.4099 2.98113L5.1499 0.224883C5.4499 -0.0788672 5.8999 -0.0788672 6.1999 0.224883L8.9199 2.96988C9.2399 3.29613 9.2699 3.85863 8.9799 4.21863C8.8199 4.40988 8.6099 4.51113 8.3899 4.51113V4.52238Z" fill="#000"/>
<path d="M15.34 15.6713C14.9 15.6713 14.55 15.2775 14.55 14.7825V0.88875C14.55 0.39375 14.9 0 15.34 0C15.78 0 16.13 0.39375 16.13 0.88875V14.7937C16.13 15.2775 15.78 15.6825 15.34 15.6825V15.6713Z" fill="#000"/>
<path d="M18.0601 4.52238C17.8701 4.52238 17.6801 4.44363 17.5301 4.29738L15.3301 2.08113L13.1301 4.29738C12.8101 4.62363 12.3101 4.58988 12.0201 4.22988C11.7301 3.86988 11.7601 3.30738 12.0801 2.98113L14.8101 0.224883C15.1101 -0.0788672 15.5601 -0.0788672 15.8601 0.224883L18.5801 2.96988C18.9001 3.29613 18.9301 3.85863 18.6401 4.21863C18.4801 4.40988 18.2701 4.51113 18.0501 4.51113L18.0601 4.52238Z" fill="#000"/>
<path d="M25 15.6713C24.56 15.6713 24.21 15.2775 24.21 14.7825V0.88875C24.21 0.39375 24.56 0 25 0C25.44 0 25.79 0.39375 25.79 0.88875V14.7937C25.79 15.2775 25.44 15.6825 25 15.6825V15.6713Z" fill="#000"/>
<path d="M22.28 4.52238C22.06 4.52238 21.85 4.42113 21.69 4.22988C21.4 3.86988 21.43 3.30738 21.75 2.98113L24.47 0.224883C24.77 -0.0788672 25.22 -0.0788672 25.52 0.224883L28.24 2.96988C28.56 3.29613 28.59 3.85863 28.3 4.21863C28.01 4.57863 27.51 4.61238 27.19 4.28613L24.99 2.06988L22.79 4.28613C22.64 4.44363 22.45 4.51113 22.26 4.51113L22.28 4.52238Z" fill="#000"/>
<path d="M34.6599 15.6713C34.2199 15.6713 33.8699 15.2775 33.8699 14.7825V0.88875C33.8699 0.39375 34.2299 0 34.6599 0C35.0899 0 35.4499 0.39375 35.4499 0.88875V14.7937C35.4499 15.2775 35.0999 15.6825 34.6599 15.6825V15.6713Z" fill="#000"/>
<path d="M31.9399 4.52261C31.7199 4.52261 31.5099 4.42136 31.3499 4.23011C31.0599 3.87011 31.0899 3.30761 31.4099 2.98136L34.1299 0.236357C34.4299 -0.0673926 34.8799 -0.0673926 35.1799 0.236357L37.8999 2.98136C38.2199 3.30761 38.2499 3.87011 37.9599 4.23011C37.6699 4.59011 37.1699 4.62386 36.8499 4.29761L34.6499 2.08136L32.4499 4.29761C32.2999 4.45511 32.1099 4.52261 31.9199 4.52261H31.9399Z" fill="#000"/>
<path d="M44.33 15.6713C43.89 15.6713 43.54 15.2775 43.54 14.7825V0.88875C43.54 0.39375 43.89 0 44.33 0C44.77 0 45.12 0.39375 45.12 0.88875V14.7937C45.12 15.2775 44.77 15.6825 44.33 15.6825V15.6713Z" fill="#000"/>
<path d="M41.6001 4.52261C41.3801 4.52261 41.1701 4.42136 41.0101 4.23011C40.7201 3.87011 40.7501 3.30761 41.0701 2.98136L43.7901 0.236357C44.0901 -0.0673926 44.5401 -0.0673926 44.8401 0.236357L47.5601 2.98136C47.8801 3.30761 47.91 3.87011 47.62 4.23011C47.33 4.59011 46.8301 4.62386 46.5101 4.29761L44.3101 2.08136L42.1101 4.29761C41.9601 4.45511 41.7701 4.52261 41.5801 4.52261H41.6001Z" fill="#000"/>
</g>
<defs>
<clipPath id="clip0_24_444">
<rect width="49.6" height="45" fill="white" transform="translate(0.199951)"/>
</clipPath>
</defs>
</svg>
