<svg width="40" height="45" viewBox="0 0 40 45" fill="none" xmlns="http://www.w3.org/2000/svg">
<g clip-path="url(#clip0_24_263)">
<path d="M22.8744 20.8576C21.5581 20.8576 20.5344 20.6326 20.4444 20.6213C19.9831 20.5201 19.6906 20.0588 19.7919 19.5976C19.8931 19.1363 20.3544 18.8438 20.8156 18.9451C20.8494 18.9451 24.5169 19.7326 26.3956 18.1576C26.7556 17.8538 27.3069 17.8988 27.6106 18.2588C27.9144 18.6188 27.8694 19.1701 27.5094 19.4738C26.1819 20.5988 24.3369 20.8688 22.8744 20.8688V20.8576Z" fill="#000"/>
<path d="M26.5982 21.4649C26.2832 21.4649 25.9794 21.2849 25.8219 20.9812L25.2369 19.7887C25.0232 19.3612 25.2032 18.8437 25.6307 18.6412C26.0582 18.4387 26.5757 18.6074 26.7782 19.0349L27.3632 20.2274C27.5769 20.6549 27.3969 21.1724 26.9694 21.3749C26.8457 21.4312 26.7219 21.4649 26.5869 21.4649H26.5982Z" fill="#000"/>
<path d="M24.067 22.6463C23.6507 22.6463 23.2795 22.3426 23.2232 21.9151L22.942 20.0926C22.8745 19.6201 23.1895 19.1813 23.662 19.1138C24.1345 19.0463 24.5732 19.3613 24.6407 19.8338L24.922 21.6563C24.9895 22.1288 24.6745 22.5676 24.202 22.6351C24.157 22.6351 24.112 22.6351 24.067 22.6351V22.6463Z" fill="#000"/>
<path d="M21.1195 22.0501C21.052 22.0501 20.9732 22.0501 20.8945 22.0163C20.4332 21.8926 20.1632 21.4201 20.287 20.9588L20.6245 19.6763C20.7482 19.2151 21.2207 18.9451 21.682 19.0688C22.1432 19.1926 22.4132 19.6651 22.2895 20.1263L21.952 21.4088C21.8507 21.7913 21.502 22.0501 21.1195 22.0501Z" fill="#000"/>
<path d="M15.0895 15.8062C15.0107 15.8062 14.9207 15.7949 14.842 15.7724C13.5145 15.3674 11.8495 15.2662 9.90323 15.4799C9.43073 15.5249 9.00323 15.1874 8.95823 14.7149C8.90198 14.2424 9.25073 13.8149 9.72323 13.7699C11.9057 13.5337 13.7957 13.6574 15.3482 14.1187C15.7982 14.2537 16.057 14.7374 15.922 15.1874C15.8095 15.5587 15.472 15.7949 15.1007 15.7949L15.0895 15.8062Z" fill="#000"/>
<path d="M12.6595 20.8576C11.197 20.8576 9.35197 20.5876 8.02447 19.4626C7.66447 19.1589 7.61947 18.6076 7.92322 18.2476C8.22697 17.8876 8.76697 17.8426 9.13822 18.1464C10.702 19.4739 13.6945 19.1701 14.7182 18.9339C15.1795 18.8326 15.6407 19.1251 15.742 19.5864C15.8432 20.0476 15.5507 20.5089 15.0895 20.6101C14.9995 20.6326 13.9757 20.8464 12.6595 20.8464V20.8576Z" fill="#000"/>
<path d="M20.6694 15.8063C20.2982 15.8063 19.9607 15.5701 19.8482 15.1988C19.7132 14.7488 19.9719 14.2651 20.4219 14.1301C21.9744 13.6576 23.8644 13.5338 26.0469 13.7813C26.5194 13.8376 26.8569 14.2538 26.8119 14.7263C26.7557 15.1988 26.3394 15.5363 25.8669 15.4913C23.9207 15.2776 22.2557 15.3788 20.9282 15.7838C20.8494 15.8063 20.7594 15.8176 20.6807 15.8176L20.6694 15.8063Z" fill="#000"/>
<path d="M17.7669 27.2813C16.9794 27.2813 16.2031 27.0338 15.5844 26.595L15.0556 26.2125C14.6731 25.9313 14.5831 25.4025 14.8531 25.0088C15.1344 24.6263 15.6631 24.5363 16.0569 24.8063L16.5856 25.1888C17.2494 25.6613 18.2956 25.6613 18.9594 25.1888L19.4881 24.8063C19.8706 24.525 20.4106 24.615 20.6919 25.0088C20.9731 25.3913 20.8831 25.9313 20.4894 26.2125L19.9606 26.595C19.3419 27.0338 18.5656 27.2813 17.7781 27.2813H17.7669Z" fill="#000"/>
<path d="M17.6994 34.9763C17.1707 34.9763 15.2019 34.8188 13.4131 32.6363C13.1431 32.2988 13.1544 31.8263 13.4469 31.5113C13.5032 31.4438 14.8644 30.0038 17.6994 29.7676C17.7444 29.7676 17.8007 29.7676 17.8457 29.7676C20.6807 30.0151 22.0419 31.4551 22.0982 31.5113C22.3906 31.8263 22.4019 32.3101 22.1319 32.6363C20.2644 34.9201 18.1831 34.9876 17.7781 34.9763C17.7556 34.9763 17.7332 34.9763 17.7107 34.9763H17.6994ZM15.3594 32.1976C16.5857 33.3001 17.6769 33.2551 17.6881 33.2551C17.7331 33.2551 17.7781 33.2551 17.8231 33.2551C17.8681 33.2551 18.9482 33.2888 20.1632 32.1976C19.6682 31.9163 18.8807 31.5901 17.7557 31.4776C16.6419 31.5901 15.8544 31.9163 15.3482 32.1976H15.3594Z" fill="#000"/>
<path d="M17.7444 39.3189C16.0232 39.3189 14.3019 38.7564 12.8732 37.6426C1.07195 28.4626 3.4457 17.2351 3.5582 16.7626C3.61445 16.4814 5.16695 9.63011 14.0207 5.05136L15.5057 4.30886C16.1132 4.00511 16.8107 3.94886 17.4519 4.17386C20.1294 5.09636 29.0957 8.70761 31.9532 16.6614C31.9644 16.6951 31.9757 16.7289 31.9869 16.7626C31.9869 16.7851 32.1107 17.3026 32.1782 18.1689C32.257 19.0801 32.2344 20.0251 32.1332 20.9701C32.077 21.4426 31.6607 21.7801 31.1769 21.7239C30.7044 21.6676 30.3669 21.2401 30.4232 20.7676C30.5132 19.9351 30.5357 19.1026 30.4682 18.3039C30.4232 17.7076 30.3444 17.3026 30.3219 17.1789C27.7119 9.99011 19.3982 6.64886 16.9007 5.79386C16.6982 5.72636 16.4844 5.73761 16.2819 5.83886L14.8082 6.58136C6.71945 10.7664 5.25695 17.0664 5.2457 17.1339C5.14445 17.5726 3.02945 27.7989 13.9307 36.2926C16.1919 38.0589 19.3757 38.0364 21.6819 36.2364C22.6157 35.5051 23.3807 34.8526 23.9995 34.2339C24.337 33.8964 24.8769 33.8964 25.2144 34.2339C25.552 34.5714 25.552 35.1114 25.2144 35.4489C24.5394 36.1126 23.7407 36.8214 22.7394 37.5864C21.2657 38.7339 19.5107 39.3076 17.7557 39.3076L17.7444 39.3189Z" fill="#000"/>
<path d="M9.92565 45C9.72315 45 9.5319 44.9325 9.36315 44.7975C9.00315 44.4937 8.95815 43.9425 9.27315 43.5825C11.6132 40.8488 10.8369 35.7187 10.8257 35.6625C10.7919 35.415 10.8594 35.1562 11.0169 34.965C11.3207 34.6162 11.9169 34.5712 12.2544 34.8862C12.8394 35.415 13.3907 35.8875 13.9644 36.3263C16.1919 38.0588 19.3082 38.0588 21.5469 36.3263C22.1094 35.8875 22.6719 35.415 23.2569 34.8862C23.6057 34.5712 24.1906 34.6162 24.4944 34.965C24.6631 35.1562 24.7306 35.415 24.6969 35.6625C24.6969 35.7187 23.8982 40.8262 26.3282 43.5712C26.6432 43.9312 26.6094 44.4713 26.2607 44.7863C25.9007 45.1013 25.3607 45.0675 25.0457 44.7187C23.1669 42.6037 22.8294 39.5437 22.8407 37.5187C22.7619 37.5862 22.6832 37.6425 22.6044 37.6987C19.7582 39.915 15.7644 39.915 12.9182 37.6987C12.8394 37.6425 12.7607 37.575 12.6819 37.5187C12.7044 39.5437 12.3894 42.6038 10.5782 44.7075C10.4094 44.91 10.1619 45.0112 9.92565 45.0112V45Z" fill="#000"/>
<path d="M38.7819 45H3.0519C2.5794 45 2.1969 44.6175 2.1969 44.145C2.1969 43.6725 2.5794 43.29 3.0519 43.29H38.7931C39.2656 43.29 39.6482 43.6725 39.6482 44.145C39.6482 44.6175 39.2656 45 38.7931 45H38.7819Z" fill="#000"/>
<path d="M8.92439 21.4649C8.80064 21.4649 8.66564 21.4424 8.54189 21.3749C8.11439 21.1612 7.94564 20.6437 8.14814 20.2274L8.74439 19.0349C8.95814 18.6074 9.47564 18.4387 9.89189 18.6412C10.3194 18.8549 10.4881 19.3724 10.2856 19.7887L9.70064 20.9812C9.55439 21.2849 9.25064 21.4649 8.92439 21.4649Z" fill="#000"/>
<path d="M11.4669 22.6463C11.4669 22.6463 11.3769 22.6463 11.3319 22.6463C10.8594 22.5788 10.5444 22.1401 10.6119 21.6676L10.8931 19.8451C10.9606 19.3726 11.3994 19.0576 11.8719 19.1251C12.3444 19.1926 12.6594 19.6313 12.5919 20.1038L12.3106 21.9263C12.2431 22.3538 11.8831 22.6576 11.4556 22.6576L11.4669 22.6463Z" fill="#000"/>
<path d="M14.4145 22.0501C14.032 22.0501 13.6832 21.7913 13.582 21.4088L13.2445 20.1263C13.1207 19.6651 13.402 19.1926 13.852 19.0688C14.3132 18.9451 14.7857 19.2263 14.9095 19.6763L15.247 20.9588C15.3707 21.4201 15.1007 21.8926 14.6395 22.0163C14.5607 22.0388 14.4932 22.0501 14.4145 22.0501Z" fill="#000"/>
<path d="M1.21815 17.3025C1.15065 17.3025 1.0944 17.3025 1.0269 17.28C0.565654 17.1787 0.273154 16.7175 0.374404 16.245C2.7369 5.8275 12.0069 1.38375 14.7969 0.27C15.4719 0 16.2144 -0.0675 16.9232 0.0675C19.9269 0.66375 30.1194 3.4425 35.2494 14.5125C35.4519 14.94 35.2607 15.4575 34.8332 15.66C34.4057 15.8625 33.8882 15.6713 33.6857 15.2438C28.9044 4.91625 19.3982 2.30625 16.5969 1.755C16.2032 1.67625 15.7982 1.72125 15.4269 1.8675C12.8394 2.9025 4.23315 7.02 2.05065 16.6388C1.96065 17.0438 1.60065 17.3138 1.2069 17.3138L1.21815 17.3025Z" fill="#000"/>
<path d="M28.1506 33.5588C25.1694 33.5588 22.7394 31.1288 22.7394 28.1476C22.7394 25.1663 25.1694 22.7363 28.1506 22.7363C31.1319 22.7363 33.5619 25.1663 33.5619 28.1476C33.5619 31.1288 31.1319 33.5588 28.1506 33.5588ZM28.1506 24.4463C26.1144 24.4463 24.4606 26.1001 24.4606 28.1363C24.4606 30.1726 26.1144 31.8263 28.1506 31.8263C30.1869 31.8263 31.8406 30.1726 31.8406 28.1363C31.8406 26.1001 30.1869 24.4463 28.1506 24.4463Z" fill="#000"/>
<path d="M28.1507 26.0099C27.6782 26.0099 27.2957 25.6274 27.2957 25.1549V21.7349C27.2957 21.2624 27.6782 20.8799 28.1507 20.8799C28.6232 20.8799 29.0057 21.2624 29.0057 21.7349V25.1549C29.0057 25.6274 28.6232 26.0099 28.1507 26.0099Z" fill="#000"/>
<path d="M34.5519 28.8562H31.1319C30.6594 28.8562 30.2656 28.4737 30.2656 28.0012C30.2656 27.5287 30.6481 27.1462 31.1319 27.1462H34.5519C35.0244 27.1462 35.4069 27.5287 35.4069 28.0012C35.4069 28.4737 35.0244 28.8562 34.5519 28.8562Z" fill="#000"/>
<path d="M28.1507 35.4037C27.6782 35.4037 27.2957 35.0212 27.2957 34.5487V31.1287C27.2957 30.6562 27.6782 30.2737 28.1507 30.2737C28.6232 30.2737 29.0057 30.6562 29.0057 31.1287V34.5487C29.0057 35.0212 28.6232 35.4037 28.1507 35.4037Z" fill="#000"/>
<path d="M25.1582 29.1375H21.7382C21.2657 29.1375 20.8832 28.755 20.8832 28.2825C20.8832 27.81 21.2657 27.4275 21.7382 27.4275H25.1582C25.6307 27.4275 26.0132 27.81 26.0132 28.2825C26.0132 28.755 25.6307 29.1375 25.1582 29.1375Z" fill="#000"/>
</g>
<defs>
<clipPath id="clip0_24_263">
<rect width="39.2962" height="45" fill="#000" transform="translate(0.351929)"/>
</clipPath>
</defs>
</svg>
