<svg width="50" height="45" viewBox="0 0 50 45" fill="none" xmlns="http://www.w3.org/2000/svg">
<g clip-path="url(#clip0_718_435)">
<mask id="mask0_718_435" style="mask-type:luminance" maskUnits="userSpaceOnUse" x="0" y="0" width="50" height="45">
<path d="M49.7992 0H0.199219V45H49.7992V0Z" fill="white"/>
</mask>
<g mask="url(#mask0_718_435)">
<path d="M0.989468 34.2787C0.769468 34.2787 0.539468 34.1662 0.389468 33.9637C0.109468 33.5925 0.149468 33.03 0.479468 32.715L1.95947 31.3087C4.11947 29.2612 7.25947 29.2612 9.41947 31.3087C10.9895 32.805 13.2695 32.805 14.8395 31.3087C16.9995 29.2612 20.1295 29.2612 22.2895 31.3087C23.9095 32.85 26.1395 32.85 27.6995 31.3087C29.8695 29.25 32.9995 29.25 35.1595 31.3087C36.7295 32.805 39.0095 32.805 40.5795 31.3087C42.7395 29.2612 45.8795 29.2612 48.0395 31.3087L49.5195 32.715C49.8495 33.03 49.8895 33.5925 49.6095 33.9637C49.3295 34.335 48.8295 34.38 48.4995 34.065L47.0195 32.6587C45.4495 31.1625 43.1695 31.1625 41.5995 32.6587C39.4395 34.7062 36.2995 34.7175 34.1395 32.6587C32.5695 31.1625 30.2895 31.1625 28.7195 32.6587C26.5595 34.7737 23.4895 34.7737 21.2595 32.6587C19.6895 31.1625 17.4095 31.1625 15.8395 32.6587C13.6795 34.7062 10.5395 34.7175 8.37947 32.6587C6.80947 31.1625 4.52947 31.1625 2.95947 32.6587L1.47947 34.065C1.32947 34.2 1.14947 34.2787 0.969468 34.2787H0.989468Z" fill="#EFDBC4"/>
<path d="M49.0099 28.8001C48.8299 28.8001 48.6499 28.7326 48.4999 28.5863L47.0199 27.1801C45.4499 25.6838 43.1699 25.6838 41.5999 27.1801C39.4399 29.2276 36.2999 29.2388 34.1399 27.1801C32.5699 25.6838 30.2899 25.6838 28.7199 27.1801C26.5599 29.2276 23.4199 29.2388 21.2599 27.1801C19.6899 25.6838 17.4099 25.6838 15.8399 27.1801C13.6799 29.2276 10.5399 29.2388 8.37994 27.1801C6.80994 25.6838 4.52994 25.6838 2.95994 27.1801L1.47994 28.5863C1.14994 28.9013 0.649937 28.8563 0.369937 28.4851C0.0899363 28.1138 0.129937 27.5513 0.459937 27.2363L1.93994 25.8301C4.09994 23.7826 7.23994 23.7826 9.39994 25.8301C10.9699 27.3263 13.2499 27.3263 14.8199 25.8301C16.9799 23.7826 20.1099 23.7826 22.2699 25.8301C23.8399 27.3263 26.1199 27.3263 27.6899 25.8301C29.8499 23.7826 32.9899 23.7826 35.1499 25.8301C36.7199 27.3263 38.9999 27.3263 40.5699 25.8301C42.7299 23.7826 45.8699 23.7826 48.0299 25.8301L49.5099 27.2363C49.8399 27.5513 49.8799 28.1138 49.5999 28.4851C49.4399 28.6876 49.2199 28.8001 48.9999 28.8001H49.0099Z" fill="#EFDBC4"/>
<path d="M0.989468 23.3101C0.769468 23.3101 0.539468 23.1976 0.389468 22.9951C0.109468 22.6238 0.149468 22.0613 0.479468 21.7463L1.95947 20.3401C4.11947 18.2926 7.25947 18.2926 9.41947 20.3401C10.9895 21.8363 13.2695 21.8363 14.8395 20.3401C16.9995 18.2926 20.1295 18.2926 22.2895 20.3401C23.8595 21.8363 26.1395 21.8363 27.7095 20.3401C29.8695 18.2926 33.0095 18.2926 35.1695 20.3401C36.7395 21.8363 39.0195 21.8363 40.5895 20.3401C42.7495 18.2926 45.8895 18.2926 48.0495 20.3401L49.5295 21.7463C49.8595 22.0613 49.8995 22.6238 49.6195 22.9951C49.3395 23.3663 48.8395 23.4113 48.5095 23.0963L47.0295 21.6901C45.4595 20.1938 43.1795 20.1938 41.6095 21.6901C39.4495 23.7376 36.3095 23.7488 34.1495 21.6901C32.5795 20.1938 30.2995 20.1938 28.7295 21.6901C26.5695 23.7376 23.4295 23.7488 21.2695 21.6901C19.6995 20.1938 17.4195 20.1938 15.8495 21.6901C13.6895 23.7376 10.5495 23.7488 8.38947 21.6901C6.81947 20.1938 4.53947 20.1938 2.96947 21.6901L1.48947 23.0963C1.33947 23.2313 1.15947 23.3101 0.979468 23.3101H0.989468Z" fill="#EFDBC4"/>
<path d="M2.24922 39.33H0.989219C0.549219 39.33 0.199219 38.9362 0.199219 38.4412C0.199219 37.9462 0.549219 37.5525 0.989219 37.5525H2.24922C2.68922 37.5525 3.03922 37.9462 3.03922 38.4412C3.03922 38.9362 2.68922 39.33 2.24922 39.33Z" fill="#EFDBC4"/>
<path d="M44.161 39.33H41.771C41.331 39.33 40.981 38.9362 40.981 38.4412C40.981 37.9462 41.331 37.5525 41.771 37.5525H44.161C44.601 37.5525 44.951 37.9462 44.951 38.4412C44.951 38.9362 44.601 39.33 44.161 39.33ZM38.171 39.33H35.781C35.341 39.33 34.991 38.9362 34.991 38.4412C34.991 37.9462 35.341 37.5525 35.781 37.5525H38.171C38.611 37.5525 38.961 37.9462 38.961 38.4412C38.961 38.9362 38.611 39.33 38.171 39.33ZM32.181 39.33H29.791C29.351 39.33 29.001 38.9362 29.001 38.4412C29.001 37.9462 29.351 37.5525 29.791 37.5525H32.181C32.621 37.5525 32.971 37.9462 32.971 38.4412C32.971 38.9362 32.621 39.33 32.181 39.33ZM26.191 39.33H23.791C23.351 39.33 23.001 38.9362 23.001 38.4412C23.001 37.9462 23.351 37.5525 23.791 37.5525H26.191C26.621 37.5525 26.981 37.9462 26.981 38.4412C26.981 38.9362 26.631 39.33 26.191 39.33ZM20.201 39.33H17.811C17.371 39.33 17.021 38.9362 17.021 38.4412C17.021 37.9462 17.371 37.5525 17.811 37.5525H20.201C20.641 37.5525 20.991 37.9462 20.991 38.4412C20.991 38.9362 20.641 39.33 20.201 39.33ZM14.211 39.33H11.821C11.381 39.33 11.031 38.9362 11.031 38.4412C11.031 37.9462 11.381 37.5525 11.821 37.5525H14.211C14.651 37.5525 15.001 37.9462 15.001 38.4412C15.001 38.9362 14.651 39.33 14.211 39.33ZM8.22102 39.33H5.83102C5.39102 39.33 5.04102 38.9362 5.04102 38.4412C5.04102 37.9462 5.39102 37.5525 5.83102 37.5525H8.22102C8.66102 37.5525 9.01102 37.9462 9.01102 38.4412C9.01102 38.9362 8.66102 39.33 8.22102 39.33Z" fill="#EFDBC4"/>
<path d="M49.0109 39.33H47.7509C47.3109 39.33 46.9609 38.9362 46.9609 38.4412C46.9609 37.9462 47.3109 37.5525 47.7509 37.5525H49.0109C49.4509 37.5525 49.8009 37.9462 49.8009 38.4412C49.8009 38.9362 49.4509 39.33 49.0109 39.33Z" fill="#EFDBC4"/>
<path d="M49.0093 44.9999H0.989219C0.549219 44.9999 0.199219 44.6062 0.199219 44.1112C0.199219 43.6162 0.549219 43.2224 0.989219 43.2224H49.0093C49.4493 43.2224 49.7992 43.6162 49.7992 44.1112C49.7992 44.6062 49.4493 44.9999 49.0093 44.9999Z" fill="#EFDBC4"/>
<path d="M5.66891 15.6713C5.22891 15.6713 4.87891 15.2775 4.87891 14.7825V0.88875C4.87891 0.39375 5.23891 0 5.66891 0C6.09891 0 6.45891 0.39375 6.45891 0.88875V14.7937C6.45891 15.2775 6.10891 15.6825 5.66891 15.6825V15.6713Z" fill="#EFDBC4"/>
<path d="M8.39038 4.52238C8.20038 4.52238 8.01038 4.44363 7.86038 4.29738L5.66038 2.08113L3.46038 4.29738C3.14038 4.62363 2.64038 4.58988 2.35038 4.22988C2.06038 3.86988 2.09038 3.30738 2.41038 2.98113L5.15038 0.224883C5.45038 -0.0788672 5.90038 -0.0788672 6.20038 0.224883L8.92038 2.96988C9.24038 3.29613 9.27038 3.85863 8.98038 4.21863C8.82038 4.40988 8.61038 4.51113 8.39038 4.51113V4.52238Z" fill="#EFDBC4"/>
<path d="M15.3408 15.6713C14.9008 15.6713 14.5508 15.2775 14.5508 14.7825V0.88875C14.5508 0.39375 14.9008 0 15.3408 0C15.7808 0 16.1308 0.39375 16.1308 0.88875V14.7937C16.1308 15.2775 15.7808 15.6825 15.3408 15.6825V15.6713Z" fill="#EFDBC4"/>
<path d="M18.0603 4.52238C17.8703 4.52238 17.6803 4.44363 17.5303 4.29738L15.3303 2.08113L13.1303 4.29738C12.8103 4.62363 12.3103 4.58988 12.0203 4.22988C11.7303 3.86988 11.7603 3.30738 12.0803 2.98113L14.8103 0.224883C15.1103 -0.0788672 15.5603 -0.0788672 15.8603 0.224883L18.5803 2.96988C18.9003 3.29613 18.9303 3.85863 18.6403 4.21863C18.4803 4.40988 18.2703 4.51113 18.0503 4.51113L18.0603 4.52238Z" fill="#EFDBC4"/>
<path d="M25.0009 15.6713C24.5609 15.6713 24.2109 15.2775 24.2109 14.7825V0.88875C24.2109 0.39375 24.5609 0 25.0009 0C25.4409 0 25.7909 0.39375 25.7909 0.88875V14.7937C25.7909 15.2775 25.4409 15.6825 25.0009 15.6825V15.6713Z" fill="#EFDBC4"/>
<path d="M22.2802 4.52238C22.0602 4.52238 21.8502 4.42113 21.6902 4.22988C21.4002 3.86988 21.4302 3.30738 21.7502 2.98113L24.4702 0.224883C24.7702 -0.0788672 25.2202 -0.0788672 25.5202 0.224883L28.2402 2.96988C28.5602 3.29613 28.5902 3.85863 28.3002 4.21863C28.0102 4.57863 27.5102 4.61238 27.1902 4.28613L24.9902 2.06988L22.7902 4.28613C22.6402 4.44363 22.4502 4.51113 22.2602 4.51113L22.2802 4.52238Z" fill="#EFDBC4"/>
<path d="M34.6591 15.6713C34.2191 15.6713 33.8691 15.2775 33.8691 14.7825V0.88875C33.8691 0.39375 34.2291 0 34.6591 0C35.0891 0 35.4491 0.39375 35.4491 0.88875V14.7937C35.4491 15.2775 35.0991 15.6825 34.6591 15.6825V15.6713Z" fill="#EFDBC4"/>
<path d="M31.9404 4.52261C31.7204 4.52261 31.5104 4.42136 31.3504 4.23011C31.0604 3.87011 31.0904 3.30761 31.4104 2.98136L34.1304 0.236357C34.4304 -0.0673925 34.8804 -0.0673925 35.1804 0.236357L37.9004 2.98136C38.2204 3.30761 38.2504 3.87011 37.9604 4.23011C37.6704 4.59011 37.1704 4.62386 36.8504 4.29761L34.6504 2.08136L32.4504 4.29761C32.3004 4.45511 32.1104 4.52261 31.9204 4.52261H31.9404Z" fill="#EFDBC4"/>
<path d="M44.3291 15.6713C43.8891 15.6713 43.5391 15.2775 43.5391 14.7825V0.88875C43.5391 0.39375 43.8891 0 44.3291 0C44.7691 0 45.1191 0.39375 45.1191 0.88875V14.7937C45.1191 15.2775 44.7691 15.6825 44.3291 15.6825V15.6713Z" fill="#EFDBC4"/>
<path d="M41.6005 4.52261C41.3805 4.52261 41.1705 4.42136 41.0105 4.23011C40.7205 3.87011 40.7505 3.30761 41.0705 2.98136L43.7905 0.236357C44.0905 -0.0673925 44.5405 -0.0673925 44.8405 0.236357L47.5605 2.98136C47.8805 3.30761 47.9104 3.87011 47.6204 4.23011C47.3304 4.59011 46.8305 4.62386 46.5105 4.29761L44.3105 2.08136L42.1105 4.29761C41.9605 4.45511 41.7705 4.52261 41.5805 4.52261H41.6005Z" fill="#EFDBC4"/>
</g>
</g>
<defs>
<clipPath id="clip0_718_435">
<rect width="50" height="45" fill="white"/>
</clipPath>
</defs>
</svg>
