<svg width="38" height="45" viewBox="0 0 38 45" fill="none" xmlns="http://www.w3.org/2000/svg">
<g clip-path="url(#clip0_718_350)">
<mask id="mask0_718_350" style="mask-type:luminance" maskUnits="userSpaceOnUse" x="0" y="0" width="38" height="45">
<path d="M37.9844 0H0.015625V45H37.9844V0Z" fill="white"/>
</mask>
<g mask="url(#mask0_718_350)">
<path d="M20.9742 20.1263C20.7267 20.1263 20.4904 20.0025 20.3554 19.7775C20.1529 19.4288 20.2542 18.99 20.6029 18.7763C21.6379 18.1463 24.3604 17.6963 26.7679 18.0225C27.1617 18.0788 27.4429 18.4388 27.3979 18.8438C27.3417 19.2375 26.9817 19.5188 26.5767 19.4738C24.2704 19.17 21.9529 19.6763 21.3679 20.0363C21.2554 20.1038 21.1204 20.1375 20.9854 20.1375L20.9742 20.1263Z" fill="#EFDBC4"/>
<path d="M16.9357 20.1261C16.812 20.1261 16.677 20.0924 16.5645 20.0249C15.9682 19.6649 13.6507 19.1586 11.3557 19.4624C10.9507 19.5186 10.5907 19.2374 10.5345 18.8324C10.4782 18.4386 10.7595 18.0674 11.1645 18.0111C13.572 17.6849 16.2945 18.1461 17.3295 18.7649C17.6782 18.9786 17.7795 19.4174 17.577 19.7661C17.442 19.9911 17.1945 20.1149 16.947 20.1149L16.9357 20.1261Z" fill="#EFDBC4"/>
<path d="M18.9602 29.5537C18.3527 29.5537 17.7564 29.3175 17.2952 28.8787L16.9239 28.53C16.6314 28.26 16.6089 27.7987 16.8902 27.495C17.1602 27.2025 17.6214 27.18 17.9252 27.4612L18.2964 27.7987C18.6789 28.1587 19.2527 28.1587 19.6352 27.7987L20.0064 27.4612C20.2989 27.1912 20.7602 27.2025 21.0414 27.495C21.3114 27.7875 21.3002 28.2487 21.0077 28.53L20.6364 28.8787C20.1752 29.3175 19.5789 29.5537 18.9714 29.5537H18.9602Z" fill="#EFDBC4"/>
<path d="M19.005 35.3587C19.005 35.3587 18.9375 35.3587 18.9037 35.3587C18.465 35.3587 16.8787 35.2237 15.4387 33.3899C15.225 33.1087 15.2362 32.7262 15.4612 32.4562C15.5062 32.3999 15.945 31.9162 16.8225 31.5224C18.1725 30.9037 19.7137 30.9037 21.0637 31.5224C21.9412 31.9274 22.38 32.4112 22.425 32.4562C22.6612 32.7149 22.6725 33.1087 22.4587 33.3899C21.03 35.2237 19.4325 35.3587 18.9937 35.3587H19.005ZM18.96 33.8962C18.96 33.8962 19.005 33.8962 19.0162 33.8962C19.0387 33.8962 19.8825 33.9299 20.8275 33.0299C20.7262 32.9624 20.6025 32.9062 20.4675 32.8387C19.5225 32.3999 18.3975 32.3999 17.4525 32.8387C17.3175 32.9062 17.1937 32.9624 17.0925 33.0299C18.0375 33.9299 18.87 33.8962 18.915 33.8962C18.9262 33.8962 18.9487 33.8962 18.96 33.8962Z" fill="#EFDBC4"/>
<path d="M18.9604 39.9039C17.4304 39.9039 15.9004 39.4089 14.6179 38.4189C3.94164 30.1501 6.09039 20.0139 6.19164 19.5864C6.30414 19.1026 9.11664 7.77385 28.2979 5.1076C28.5004 5.0851 28.7142 5.14135 28.8717 5.27635C29.1192 5.47885 34.7667 10.3726 31.9092 20.8351C31.9767 21.6226 31.9992 22.7364 31.8642 24.0639C31.8192 24.3789 30.7054 31.0501 26.1492 35.8764C25.3392 36.7314 24.4167 37.5526 23.3142 38.4189C22.0317 39.4089 20.5017 39.9039 18.9717 39.9039H18.9604ZM17.9029 9.52886C14.7417 11.0026 12.5817 12.7239 11.1529 14.1976C8.27289 17.1789 7.60914 19.8789 7.60914 19.9014C7.51914 20.2839 5.60664 29.5651 15.5179 37.2489C17.5429 38.8239 20.3779 38.8239 22.4142 37.2489C23.4604 36.4389 24.3379 35.6626 25.0804 34.8639C29.3217 30.3751 30.4017 23.9289 30.4129 23.8614C30.5479 22.5901 30.5142 21.5439 30.4467 20.8351C30.3904 20.2276 30.3229 19.9014 30.3117 19.8901C28.2417 12.5326 19.4892 9.92261 17.9029 9.5176V9.52886ZM20.0067 8.6401C23.0442 9.6976 28.6242 12.2964 31.0542 17.7189C31.9992 11.0251 29.0179 7.48135 28.1404 6.60385C24.9567 7.0651 22.2679 7.7851 20.0067 8.6401Z" fill="#EFDBC4"/>
<path d="M6.9006 20.475C6.6081 20.475 6.3381 20.3063 6.2256 20.0138C6.0906 19.6875 3.04185 11.8912 7.9356 5.22C10.3656 1.9125 14.1456 0.01125 18.3081 0C22.5606 0 26.3856 1.9125 28.8718 5.25375L28.9843 5.41125C29.2206 5.7375 29.1418 6.1875 28.8156 6.42375C28.4893 6.66 28.0393 6.58125 27.8031 6.255L27.7018 6.10875C25.4968 3.13875 22.0881 1.45125 18.3531 1.45125C14.6181 1.45125 11.2656 3.15 9.11685 6.075C4.70685 12.0825 7.5531 19.395 7.5756 19.4625C7.72185 19.8337 7.54185 20.2612 7.1706 20.4075C7.0806 20.4412 6.9906 20.4638 6.9006 20.4638V20.475Z" fill="#EFDBC4"/>
<path d="M11.8949 45C11.7261 45 11.5574 44.9438 11.4224 44.82C11.1186 44.5613 11.0849 44.1 11.3436 43.7963C13.4699 41.31 12.7611 36.6638 12.7611 36.6188C12.7274 36.405 12.7836 36.1913 12.9299 36.0338C13.1886 35.73 13.6836 35.7075 13.9761 35.9663C14.5049 36.45 15.0111 36.8663 15.5174 37.2713C17.5424 38.8463 20.3774 38.8463 22.4136 37.2713C22.9311 36.8775 23.4374 36.45 23.9549 35.9663C24.2474 35.6963 24.7424 35.73 25.0011 36.0338C25.1361 36.1913 25.2036 36.4163 25.1699 36.6188C25.1699 36.6638 24.4386 41.2988 26.6549 43.785C26.9249 44.0888 26.8911 44.55 26.5986 44.8088C26.2949 45.0788 25.8336 45.045 25.5749 44.7525C23.8536 42.8175 23.5724 40.005 23.6061 38.1825C23.5049 38.2613 23.4149 38.34 23.3136 38.4075C20.7599 40.3875 17.1936 40.3875 14.6286 38.4075C14.5274 38.3288 14.4374 38.2613 14.3361 38.1825C14.3699 40.005 14.0999 42.8175 12.4461 44.7413C12.2999 44.91 12.0974 45 11.8949 45Z" fill="#EFDBC4"/>
<path d="M37.2531 45.0001H0.746875C0.341875 45.0001 0.015625 44.6738 0.015625 44.2688C0.015625 43.8638 0.341875 43.5376 0.746875 43.5376H37.2531C37.6581 43.5376 37.9844 43.8638 37.9844 44.2688C37.9844 44.6738 37.6581 45.0001 37.2531 45.0001Z" fill="#EFDBC4"/>
<path d="M24.0335 23.5462C22.8298 23.5462 21.8848 23.3437 21.806 23.3212C21.4123 23.2312 21.1648 22.8487 21.2548 22.4549C21.3448 22.0612 21.7273 21.8137 22.121 21.9037C22.1548 21.9037 25.5635 22.6349 27.3185 21.1612C27.6223 20.9024 28.0835 20.9362 28.3423 21.2512C28.601 21.5549 28.5673 22.0162 28.2523 22.2749C27.0373 23.2987 25.3723 23.5462 24.0335 23.5462Z" fill="#EFDBC4"/>
<path d="M27.4551 24.0975C27.1851 24.0975 26.9264 23.9512 26.8026 23.6925L26.2626 22.59C26.0826 22.23 26.2289 21.7912 26.5889 21.6112C26.9489 21.4312 27.3876 21.5775 27.5676 21.9375L28.1076 23.04C28.2876 23.4 28.1414 23.8387 27.7814 24.0187C27.6801 24.075 27.5676 24.0975 27.4551 24.0975Z" fill="#EFDBC4"/>
<path d="M25.1249 25.1888C24.7761 25.1888 24.4611 24.93 24.4049 24.57L24.1461 22.8938C24.0899 22.5 24.3599 22.1288 24.7536 22.0613C25.1474 21.9938 25.5186 22.275 25.5861 22.6688L25.8449 24.345C25.9011 24.7388 25.6311 25.11 25.2374 25.1775C25.2036 25.1775 25.1586 25.1775 25.1249 25.1775V25.1888Z" fill="#EFDBC4"/>
<path d="M22.4146 24.6376C22.3471 24.6376 22.2909 24.6376 22.2234 24.6151C21.8296 24.5139 21.6046 24.1089 21.7059 23.7264L22.0209 22.5451C22.1221 22.1514 22.5271 21.9264 22.9096 22.0276C23.3034 22.1289 23.5284 22.5339 23.4271 22.9164L23.1121 24.0976C23.0221 24.4239 22.7296 24.6376 22.4034 24.6376H22.4146Z" fill="#EFDBC4"/>
<path d="M14.63 23.5462C13.2913 23.5462 11.615 23.2987 10.4113 22.2749C10.1075 22.0162 10.0625 21.5549 10.3213 21.2512C10.58 20.9474 11.0413 20.9024 11.345 21.1612C13.1 22.6349 16.5088 21.9149 16.5425 21.9037C16.9363 21.8137 17.33 22.0612 17.4088 22.4549C17.4988 22.8487 17.2513 23.2312 16.8575 23.3212C16.7788 23.3437 15.845 23.5462 14.63 23.5462Z" fill="#EFDBC4"/>
<path d="M11.1983 24.0975C11.0858 24.0975 10.9845 24.075 10.872 24.0187C10.512 23.8387 10.3658 23.4 10.5458 23.04L11.0858 21.9375C11.2658 21.5775 11.7045 21.4312 12.0645 21.6112C12.4245 21.7912 12.5708 22.23 12.3908 22.59L11.8508 23.6925C11.727 23.9512 11.4683 24.0975 11.1983 24.0975Z" fill="#EFDBC4"/>
<path d="M13.5269 25.1888C13.5269 25.1888 13.4481 25.1888 13.4144 25.1888C13.0206 25.1325 12.7394 24.7613 12.8069 24.3563L13.0656 22.68C13.1219 22.2863 13.4931 22.005 13.8981 22.0725C14.2919 22.1288 14.5731 22.5 14.5056 22.905L14.2469 24.5813C14.1906 24.9413 13.8756 25.2 13.5269 25.2V25.1888Z" fill="#EFDBC4"/>
<path d="M16.2374 24.6376C15.9112 24.6376 15.6187 24.4239 15.5287 24.0976L15.2137 22.9164C15.1124 22.5226 15.3374 22.1289 15.7312 22.0276C16.1249 21.9264 16.5187 22.1514 16.6199 22.5451L16.9349 23.7264C17.0362 24.1201 16.8112 24.5139 16.4174 24.6151C16.3499 24.6376 16.2937 24.6376 16.2262 24.6376H16.2374Z" fill="#EFDBC4"/>
<path d="M18.9597 17.7413C18.5547 17.7413 18.2285 17.415 18.2285 17.01V12.5325C18.2285 12.1275 18.5547 11.8013 18.9597 11.8013C19.3647 11.8013 19.691 12.1275 19.691 12.5325V17.01C19.691 17.415 19.3647 17.7413 18.9597 17.7413Z" fill="#EFDBC4"/>
<path d="M20.3216 14.58C20.1416 14.58 19.9616 14.5125 19.8154 14.3775L18.9491 13.545L18.0829 14.3775C17.7904 14.6588 17.3291 14.6475 17.0479 14.355C16.7666 14.0625 16.7779 13.6013 17.0704 13.32L18.4429 12.0038C18.7241 11.7338 19.1741 11.7338 19.4554 12.0038L20.8279 13.32C21.1204 13.6013 21.1316 14.0625 20.8504 14.355C20.7041 14.5013 20.5129 14.58 20.3216 14.58Z" fill="#EFDBC4"/>
<path d="M23.7762 17.1224C23.3712 17.1224 23.0449 16.7961 23.0449 16.3911V14.1524C23.0449 13.7474 23.3712 13.4211 23.7762 13.4211C24.1812 13.4211 24.5074 13.7474 24.5074 14.1524V16.3911C24.5074 16.7961 24.1812 17.1224 23.7762 17.1224Z" fill="#EFDBC4"/>
<path d="M25.1477 16.1999C24.9677 16.1999 24.7877 16.1324 24.6415 15.9974L23.7752 15.1649L22.909 15.9974C22.6165 16.2786 22.1552 16.2674 21.874 15.9749C21.5927 15.6824 21.604 15.2211 21.8965 14.9399L23.269 13.6236C23.5502 13.3536 24.0002 13.3536 24.2815 13.6236L25.654 14.9399C25.9465 15.2211 25.9577 15.6824 25.6765 15.9749C25.5302 16.1211 25.339 16.1999 25.1477 16.1999Z" fill="#EFDBC4"/>
<path d="M14.1454 17.1224C13.7404 17.1224 13.4141 16.7961 13.4141 16.3911V14.1524C13.4141 13.7474 13.7404 13.4211 14.1454 13.4211C14.5504 13.4211 14.8766 13.7474 14.8766 14.1524V16.3911C14.8766 16.7961 14.5504 17.1224 14.1454 17.1224Z" fill="#EFDBC4"/>
<path d="M15.5072 16.1999C15.3272 16.1999 15.1472 16.1324 15.0009 15.9974L14.1347 15.1649L13.2684 15.9974C12.9759 16.2786 12.5147 16.2674 12.2334 15.9749C11.9522 15.6824 11.9634 15.2211 12.2559 14.9399L13.6284 13.6236C13.9097 13.3536 14.3597 13.3536 14.6409 13.6236L16.0134 14.9399C16.3059 15.2211 16.3172 15.6824 16.0359 15.9749C15.8897 16.1211 15.6984 16.1999 15.5072 16.1999Z" fill="#EFDBC4"/>
</g>
</g>
<defs>
<clipPath id="clip0_718_350">
<rect width="38" height="45" fill="white"/>
</clipPath>
</defs>
</svg>
