<svg width="46" height="45" viewBox="0 0 46 45" fill="none" xmlns="http://www.w3.org/2000/svg">
<g clip-path="url(#clip0_718_405)">
<mask id="mask0_718_405" style="mask-type:luminance" maskUnits="userSpaceOnUse" x="0" y="0" width="46" height="45">
<path d="M45.5 0H0.5V45H45.5V0Z" fill="white"/>
</mask>
<g mask="url(#mask0_718_405)">
<path d="M13.0662 8.01002C13.4262 7.96502 13.6849 7.63877 13.6399 7.27877C13.4712 5.86127 13.4262 4.68002 13.4149 3.93752C13.4149 3.81377 13.5162 3.72377 13.6287 3.71252C18.8149 3.62252 21.6499 2.18252 22.8649 1.33877C22.9437 1.28252 23.0337 1.28252 23.1124 1.33877C24.3387 2.18252 27.1624 3.62252 32.3487 3.71252C32.4724 3.71252 32.5737 3.81377 32.5624 3.93752C32.5512 5.41127 32.3712 9.27002 31.0437 13.0613C29.4462 17.6288 26.7574 20.6325 23.0674 22.005C23.0112 22.0275 22.9549 22.0275 22.9099 22.005C17.2962 19.935 15.0124 14.355 14.0899 10.0463C14.0112 9.68627 13.6624 9.46127 13.3024 9.54002C12.9424 9.61877 12.7174 9.96752 12.7962 10.3275C13.7974 14.9625 16.2724 20.97 22.4487 23.2425C22.6174 23.31 22.8087 23.3438 22.9887 23.3438C23.1687 23.3438 23.3487 23.31 23.5287 23.2425C27.6124 21.735 30.5599 18.4613 32.2924 13.5C33.6312 9.66377 33.8674 5.87252 33.8899 3.94877C33.8899 3.10502 33.2149 2.40752 32.3712 2.39627C27.3424 2.30627 24.7437 0.877519 23.8549 0.25877C23.3374 -0.10123 22.6287 -0.10123 22.1112 0.25877C19.4562 2.10377 15.2712 2.36252 13.5949 2.39627C12.7512 2.40752 12.0762 3.10502 12.0762 3.94877C12.0762 4.71377 12.1324 5.95127 12.3124 7.42502C12.3574 7.78502 12.6837 8.04377 13.0437 7.99877L13.0662 8.01002Z" fill="#EFDBC4"/>
<path d="M24.1476 5.99634H21.8638C21.2563 5.99634 20.7613 6.49134 20.7613 7.09884V8.58384H19.2763C18.6688 8.58384 18.1738 9.07884 18.1738 9.68634V11.9701C18.1738 12.5776 18.6688 13.0726 19.2763 13.0726H20.7613V14.5576C20.7613 15.1651 21.2563 15.6601 21.8638 15.6601H24.1476C24.7551 15.6601 25.2501 15.1651 25.2501 14.5576V13.0726H26.7351C27.3426 13.0726 27.8376 12.5776 27.8376 11.9701V9.68634C27.8376 9.07884 27.3426 8.58384 26.7351 8.58384H25.2501V7.09884C25.2501 6.49134 24.7551 5.99634 24.1476 5.99634ZM26.5101 9.90009V11.7451H24.5863C24.2263 11.7451 23.9226 12.0376 23.9226 12.4088V14.3326H22.0776V12.4088C22.0776 12.0488 21.7851 11.7451 21.4138 11.7451H19.4901V9.90009H21.4138C21.7738 9.90009 22.0776 9.60759 22.0776 9.23634V7.31259H23.9226V9.23634C23.9226 9.59634 24.2151 9.90009 24.5863 9.90009H26.5101Z" fill="#EFDBC4"/>
<path d="M32.8315 17.4825C32.5165 17.6175 32.3027 17.9213 32.3027 18.2588C32.3027 18.5963 32.5052 18.9113 32.8202 19.035L33.4727 19.305C34.7552 19.8338 35.7902 20.8688 36.319 22.1513L36.589 22.8038C36.724 23.1188 37.0277 23.3325 37.3652 23.3325C37.7027 23.3325 38.0177 23.13 38.1415 22.815L38.4115 22.1625C38.9402 20.88 39.9752 19.845 41.2577 19.3163L41.9102 19.0463C42.2252 18.9113 42.439 18.6075 42.439 18.27C42.439 17.9325 42.2365 17.6175 41.9102 17.4938L41.2577 17.2238C39.9752 16.695 38.9402 15.66 38.4115 14.3775L38.1415 13.725C38.0065 13.41 37.7027 13.1963 37.3652 13.1963C37.0277 13.1963 36.7127 13.3988 36.589 13.7138L36.319 14.3663C35.7902 15.6488 34.7552 16.6838 33.4727 17.2125L32.8202 17.4825H32.8315ZM37.3877 15.2438C38.029 16.5488 39.0977 17.6288 40.4027 18.2588C39.0977 18.9 38.0177 19.9688 37.3877 21.2738C36.7465 19.9688 35.6777 18.8888 34.3727 18.2588C35.6777 17.6175 36.7577 16.5488 37.3877 15.2438Z" fill="#EFDBC4"/>
<path d="M4.06586 19.0463L4.71836 19.3163C6.00086 19.845 7.03586 20.88 7.56461 22.1625L7.83461 22.815C7.96961 23.13 8.27336 23.3438 8.61086 23.3438C8.94836 23.3438 9.26336 23.1413 9.38711 22.8263L9.65711 22.1738C10.1858 20.8913 11.2208 19.8563 12.5033 19.3275L13.1558 19.0575C13.4708 18.9225 13.6846 18.6188 13.6846 18.2813C13.6846 17.9438 13.4821 17.6288 13.1558 17.505L12.5033 17.235C11.2208 16.7063 10.1858 15.6713 9.65711 14.3888L9.38711 13.7363C9.25211 13.4213 8.94836 13.2075 8.61086 13.2075C8.27336 13.2075 7.95836 13.41 7.83461 13.725L7.56461 14.3775C7.03586 15.66 6.00086 16.695 4.71836 17.2238L4.06586 17.4938C3.75086 17.6288 3.53711 17.9325 3.53711 18.27C3.53711 18.6075 3.73961 18.9225 4.05461 19.0463H4.06586ZM8.62211 15.2438C9.26335 16.5488 10.3321 17.6288 11.6371 18.2588C10.3321 18.9 9.25211 19.9688 8.62211 21.2738C7.98086 19.9688 6.91211 18.8888 5.60711 18.2588C6.91211 17.6175 7.99211 16.5488 8.62211 15.2438Z" fill="#EFDBC4"/>
<path d="M43.9588 24.9639H38.1538C37.7938 24.9639 37.49 25.2564 37.49 25.6276C37.49 25.9989 37.7825 26.2914 38.1538 26.2914H43.9588C44.0825 26.2914 44.1838 26.3926 44.1838 26.5164V28.8339H12.4362C12.0763 28.8339 11.7725 29.1264 11.7725 29.4976C11.7725 29.8689 12.065 30.1614 12.4362 30.1614H44.1838V32.4901C43.1263 32.8276 42.575 33.9414 42.0688 34.9539C41.5063 36.0901 41.1125 36.7876 40.4712 36.7876C39.83 36.7876 39.4475 36.0901 38.8737 34.9539C38.2775 33.7501 37.6025 32.3889 36.095 32.3889C34.5875 32.3889 33.9125 33.7501 33.3162 34.9539C32.7537 36.0901 32.36 36.7876 31.7188 36.7876C31.0775 36.7876 30.695 36.0901 30.1213 34.9539C29.525 33.7501 28.85 32.3889 27.3425 32.3889C25.835 32.3889 25.16 33.7501 24.5637 34.9539C24.0012 36.0901 23.6075 36.7876 22.9662 36.7876C22.325 36.7876 21.9425 36.0901 21.3687 34.9539C20.7725 33.7501 20.0975 32.3889 18.59 32.3889C17.0825 32.3889 16.4075 33.7501 15.8112 34.9539C15.2487 36.0901 14.855 36.7876 14.2137 36.7876C13.5725 36.7876 13.19 36.0901 12.6163 34.9539C12.02 33.7501 11.345 32.3889 9.8375 32.3889C8.33 32.3889 7.655 33.7501 7.05875 34.9539C6.49625 36.0901 6.1025 36.7876 5.46125 36.7876C4.82 36.7876 4.4375 36.0901 3.86375 34.9539C3.3575 33.9414 2.80625 32.8276 1.74875 32.4901V30.1614H9.48875C9.84875 30.1614 10.1525 29.8689 10.1525 29.4976C10.1525 29.1264 9.86 28.8339 9.48875 28.8339H1.81625V26.5164C1.81625 26.3926 1.9175 26.2914 2.04125 26.2914H35.2738C35.6338 26.2914 35.9375 25.9989 35.9375 25.6276C35.9375 25.2564 35.645 24.9639 35.2738 24.9639H2.04125C1.1975 24.9639 0.5 25.6501 0.5 26.5051V39.0714C0.5 42.3451 3.16625 45.0001 6.42875 45.0001H39.56C42.8338 45.0001 45.4888 42.3339 45.4888 39.0714V26.5051C45.4888 25.6614 44.8025 24.9639 43.9475 24.9639H43.9588ZM39.56 43.6839H6.42875C3.88625 43.6839 1.81625 41.6139 1.81625 39.0714V33.9864C2.13125 34.2901 2.40125 34.8189 2.75 35.5164C3.34625 36.7201 4.02125 38.0814 5.52875 38.0814C7.03625 38.0814 7.71125 36.7201 8.3075 35.5164C8.87 34.3801 9.26375 33.6826 9.905 33.6826C10.5462 33.6826 10.9288 34.3801 11.5025 35.5164C12.0988 36.7201 12.7738 38.0814 14.2812 38.0814C15.7887 38.0814 16.4637 36.7201 17.06 35.5164C17.6225 34.3801 18.0162 33.6826 18.6575 33.6826C19.2987 33.6826 19.6812 34.3801 20.255 35.5164C20.8512 36.7201 21.5263 38.0814 23.0338 38.0814C24.5413 38.0814 25.2162 36.7201 25.8125 35.5164C26.375 34.3801 26.7687 33.6826 27.41 33.6826C28.0513 33.6826 28.4338 34.3801 29.0075 35.5164C29.6038 36.7201 30.2787 38.0814 31.7862 38.0814C33.2938 38.0814 33.9688 36.7201 34.565 35.5164C35.1275 34.3801 35.5213 33.6826 36.1625 33.6826C36.8037 33.6826 37.1862 34.3801 37.76 35.5164C38.3562 36.7201 39.0312 38.0814 40.5387 38.0814C42.0462 38.0814 42.7213 36.7201 43.3175 35.5164C43.6663 34.8189 43.9475 34.2901 44.2513 33.9864V39.0714C44.2513 41.6139 42.1813 43.6839 39.6388 43.6839H39.56Z" fill="#EFDBC4"/>
<path d="M41.0222 39.0825H39.9197C39.5597 39.0825 39.2559 39.375 39.2559 39.7463C39.2559 40.1175 39.5484 40.41 39.9197 40.41H41.0222C41.3822 40.41 41.6859 40.1175 41.6859 39.7463C41.6859 39.375 41.3934 39.0825 41.0222 39.0825Z" fill="#EFDBC4"/>
<path d="M32.2917 39.0825H31.1892C30.8292 39.0825 30.5254 39.375 30.5254 39.7463C30.5254 40.1175 30.8179 40.41 31.1892 40.41H32.2917C32.6517 40.41 32.9554 40.1175 32.9554 39.7463C32.9554 39.375 32.6629 39.0825 32.2917 39.0825Z" fill="#EFDBC4"/>
<path d="M23.5515 39.0825H22.449C22.089 39.0825 21.7852 39.375 21.7852 39.7463C21.7852 40.1175 22.0777 40.41 22.449 40.41H23.5515C23.9115 40.41 24.2152 40.1175 24.2152 39.7463C24.2152 39.375 23.9227 39.0825 23.5515 39.0825Z" fill="#EFDBC4"/>
<path d="M14.8093 39.0825H13.7068C13.3468 39.0825 13.043 39.375 13.043 39.7463C13.043 40.1175 13.3355 40.41 13.7068 40.41H14.8093C15.1693 40.41 15.473 40.1175 15.473 39.7463C15.473 39.375 15.1805 39.0825 14.8093 39.0825Z" fill="#EFDBC4"/>
<path d="M6.0807 39.0825H4.9782C4.6182 39.0825 4.31445 39.375 4.31445 39.7463C4.31445 40.1175 4.60695 40.41 4.9782 40.41H6.0807C6.4407 40.41 6.74445 40.1175 6.74445 39.7463C6.74445 39.375 6.45195 39.0825 6.0807 39.0825Z" fill="#EFDBC4"/>
<path d="M36.6569 40.9612H35.5544C35.1944 40.9612 34.8906 41.2537 34.8906 41.6249C34.8906 41.9962 35.1831 42.2887 35.5544 42.2887H36.6569C37.0169 42.2887 37.3206 41.9962 37.3206 41.6249C37.3206 41.2537 37.0281 40.9612 36.6569 40.9612Z" fill="#EFDBC4"/>
<path d="M27.9167 40.9612H26.8142C26.4542 40.9612 26.1504 41.2537 26.1504 41.6249C26.1504 41.9962 26.4429 42.2887 26.8142 42.2887H27.9167C28.2767 42.2887 28.5804 41.9962 28.5804 41.6249C28.5804 41.2537 28.2879 40.9612 27.9167 40.9612Z" fill="#EFDBC4"/>
<path d="M19.1862 40.9612H18.0837C17.7237 40.9612 17.4199 41.2537 17.4199 41.6249C17.4199 41.9962 17.7124 42.2887 18.0837 42.2887H19.1862C19.5462 42.2887 19.8499 41.9962 19.8499 41.6249C19.8499 41.2537 19.5574 40.9612 19.1862 40.9612Z" fill="#EFDBC4"/>
<path d="M10.444 40.9612H9.34148C8.98148 40.9612 8.67773 41.2537 8.67773 41.6249C8.67773 41.9962 8.97023 42.2887 9.34148 42.2887H10.444C10.804 42.2887 11.1077 41.9962 11.1077 41.6249C11.1077 41.2537 10.8152 40.9612 10.444 40.9612Z" fill="#EFDBC4"/>
<path d="M9.89273 37.3612C10.2527 37.3612 10.5565 37.0687 10.5565 36.6974C10.5565 36.3262 10.264 36.0337 9.89273 36.0337C9.53273 36.0337 9.24023 36.3262 9.24023 36.6974C9.24023 37.0687 9.54398 37.3612 9.90398 37.3612H9.89273Z" fill="#EFDBC4"/>
<path d="M18.6349 37.3612C18.9949 37.3612 19.2987 37.0687 19.2987 36.6974C19.2987 36.3262 19.0062 36.0337 18.6349 36.0337C18.2749 36.0337 17.9824 36.3262 17.9824 36.6974C17.9824 37.0687 18.2862 37.3612 18.6462 37.3612H18.6349Z" fill="#EFDBC4"/>
<path d="M27.3771 37.3612C27.7371 37.3612 28.0408 37.0687 28.0408 36.6974C28.0408 36.3262 27.7483 36.0337 27.3771 36.0337C27.0171 36.0337 26.7246 36.3262 26.7246 36.6974C26.7246 37.0687 27.0283 37.3612 27.3883 37.3612H27.3771Z" fill="#EFDBC4"/>
<path d="M36.1173 37.3612C36.4773 37.3612 36.781 37.0687 36.781 36.6974C36.781 36.3262 36.4885 36.0337 36.1173 36.0337C35.7573 36.0337 35.4648 36.3262 35.4648 36.6974C35.4648 37.0687 35.7685 37.3612 36.1285 37.3612H36.1173Z" fill="#EFDBC4"/>
<path d="M5.51773 33.0637C5.15773 33.0637 4.86523 33.3562 4.86523 33.7275C4.86523 34.0987 5.16898 34.3912 5.52898 34.3912C5.88898 34.3912 6.19273 34.0987 6.19273 33.7275C6.19273 33.3562 5.90023 33.0637 5.52898 33.0637H5.51773Z" fill="#EFDBC4"/>
<path d="M14.2697 34.38C14.6297 34.38 14.9334 34.0875 14.9334 33.7162C14.9334 33.345 14.6409 33.0525 14.2697 33.0525C13.9097 33.0525 13.6172 33.345 13.6172 33.7162C13.6172 34.0875 13.9209 34.38 14.2809 34.38H14.2697Z" fill="#EFDBC4"/>
<path d="M23.0002 34.38C23.3602 34.38 23.664 34.0875 23.664 33.7162C23.664 33.345 23.3715 33.0525 23.0002 33.0525C22.6402 33.0525 22.3477 33.345 22.3477 33.7162C22.3477 34.0875 22.6515 34.38 23.0115 34.38H23.0002Z" fill="#EFDBC4"/>
<path d="M31.7404 34.38C32.1004 34.38 32.4042 34.0875 32.4042 33.7162C32.4042 33.345 32.1117 33.0525 31.7404 33.0525C31.3804 33.0525 31.0879 33.345 31.0879 33.7162C31.0879 34.0875 31.3917 34.38 31.7517 34.38H31.7404Z" fill="#EFDBC4"/>
<path d="M40.4826 34.38C40.8426 34.38 41.1463 34.0875 41.1463 33.7162C41.1463 33.345 40.8538 33.0525 40.4826 33.0525C40.1226 33.0525 39.8301 33.345 39.8301 33.7162C39.8301 34.0875 40.1338 34.38 40.4938 34.38H40.4826Z" fill="#EFDBC4"/>
</g>
</g>
<defs>
<clipPath id="clip0_718_405">
<rect width="46" height="45" fill="white"/>
</clipPath>
</defs>
</svg>
