<svg width="34" height="45" viewBox="0 0 34 45" fill="none" xmlns="http://www.w3.org/2000/svg">
<g clip-path="url(#clip0_718_303)">
<mask id="mask0_718_303" style="mask-type:luminance" maskUnits="userSpaceOnUse" x="0" y="0" width="34" height="45">
<path d="M33.3602 0H0.640625V45H33.3602V0Z" fill="white"/>
</mask>
<g mask="url(#mask0_718_303)">
<path d="M10.8407 41.2515C10.5143 41.0837 10.1227 41.2235 9.95488 41.5406C9.25554 42.9392 8.50025 43.9276 8.49093 43.937C8.26714 44.226 8.32309 44.6363 8.61215 44.8601C8.73337 44.9533 8.87323 44.9999 9.0131 44.9999C9.20892 44.9999 9.40473 44.916 9.53527 44.7482C9.57257 44.7016 10.3745 43.6572 11.1391 42.1373C11.2976 41.811 11.167 41.4193 10.85 41.2515H10.8407Z" fill="#EFDBC4"/>
<path d="M23.3077 39.7782C22.9721 38.7619 22.8229 37.5124 22.7669 36.552L25.1353 34.1835C25.3964 33.9225 25.3964 33.5122 25.1353 33.2511C24.8743 32.99 24.464 32.99 24.2029 33.2511L19.9323 37.531C19.522 37.9413 18.9625 38.1744 18.3937 38.1744H15.6337C15.0556 38.1744 14.4961 37.9413 14.0951 37.531L9.39556 32.8315C8.64028 32.0762 8.16473 31.0785 8.05284 30.0248L6.92457 19.3762C7.79175 18.6116 11.2605 15.9542 17.0137 15.9542C22.7669 15.9542 26.2263 18.621 27.1028 19.3762L25.9746 30.0248C25.9373 30.3512 25.872 30.6775 25.7694 30.9946C25.6575 31.3396 25.844 31.7126 26.189 31.8244C26.2543 31.8431 26.3289 31.8617 26.3942 31.8617C26.6739 31.8617 26.9256 31.6846 27.0189 31.4048C27.1494 31.0039 27.2427 30.5843 27.2893 30.1647L27.6343 26.9011L28.5668 26.5934C29.8535 26.1645 30.786 25.0735 30.9911 23.7308L31.4107 21.036C31.5133 20.3926 31.3268 19.7399 30.8979 19.2457C30.6181 18.9193 30.2452 18.6769 29.8442 18.5557C29.7789 17.6978 29.5645 16.868 29.2195 16.094V15.4879C29.2195 11.0868 26.879 7.22643 23.3823 5.0818C22.7203 2.12594 20.0908 0.00927734 17.023 0.00927734C13.9553 0.00927734 11.3351 2.12594 10.6637 5.0818C10.0203 5.47343 9.41421 5.92101 8.85474 6.43385C8.58433 6.67629 8.56568 7.09589 8.80812 7.3663C9.05056 7.63671 9.47016 7.65536 9.74057 7.41292C11.7454 5.60397 14.3283 4.61558 17.023 4.61558C22.5058 4.61558 27.0562 8.69038 27.8022 13.9774C27.7649 13.9401 27.7276 13.8934 27.6903 13.8561C25.6948 11.87 22.2168 9.51093 17.0324 9.51093C11.8479 9.51093 8.36987 11.87 6.37443 13.8561C6.33713 13.8934 6.29983 13.9401 6.26253 13.9774C6.477 12.4295 7.02714 10.9469 7.87567 9.62283C8.07148 9.31512 7.98756 8.90484 7.67986 8.70903C7.37215 8.51322 6.96187 8.59714 6.76606 8.90484C5.50725 10.8723 4.83589 13.1475 4.83589 15.4879V16.094C4.49088 16.868 4.27642 17.7072 4.21114 18.5557C3.80087 18.6769 3.43721 18.91 3.15748 19.2457C2.73787 19.7399 2.55138 20.3926 2.64463 21.036L3.06423 23.7308C3.26937 25.0735 4.20182 26.1645 5.4886 26.5934L6.42105 26.9011L6.76606 30.1647C6.90592 31.5167 7.52134 32.7942 8.48176 33.7639L11.2698 36.552C11.2325 37.186 11.1486 38.0159 10.9808 38.8085C10.9062 39.1628 11.13 39.5172 11.4936 39.5918C11.5402 39.6011 11.5869 39.6104 11.6335 39.6104C11.9412 39.6104 12.2116 39.3959 12.2769 39.0882C12.3701 38.6407 12.4354 38.1931 12.4913 37.7641L13.1907 38.4635C13.8434 39.1162 14.7479 39.4892 15.6617 39.4892H18.4217C19.3448 39.4892 20.2493 39.1162 20.8927 38.4635L21.592 37.7641C21.6853 38.5661 21.8438 39.4239 22.0956 40.1885C22.9161 42.6595 24.4453 44.6456 24.5106 44.7295C24.6411 44.8974 24.837 44.9813 25.0328 44.9813C25.1726 44.9813 25.3125 44.9347 25.4337 44.8414C25.7228 44.6177 25.7787 44.2074 25.5549 43.9183C25.5363 43.8997 24.1003 42.0161 23.3544 39.7596L23.3077 39.7782ZM12.3421 4.2053C13.2 2.47094 14.981 1.31471 17.0044 1.31471C19.0278 1.31471 20.8088 2.47094 21.6666 4.2053C20.2307 3.60853 18.6548 3.28217 17.0044 3.28217C15.354 3.28217 13.8061 3.59921 12.3421 4.2053ZM30.096 20.8309L29.6764 23.5256C29.5458 24.3742 28.9584 25.0735 28.1378 25.3439L27.7742 25.4651L28.3803 19.7865H29.2008C29.4712 19.7865 29.723 19.8984 29.8908 20.1036C30.068 20.3087 30.1426 20.5698 30.096 20.8402V20.8309ZM7.26958 14.7793C9.08785 12.9703 12.2582 10.8164 17.0044 10.8164C21.7506 10.8164 24.9116 12.9703 26.7392 14.7793C27.7276 15.7583 28.3523 17.0731 28.5015 18.4624H28.0446C27.1401 17.6419 23.4103 14.6394 17.0044 14.6394C10.5985 14.6394 6.86862 17.6419 5.96415 18.4624H5.50725C5.65644 17.0731 6.28118 15.7583 7.26958 14.7793ZM5.8709 25.3346C5.05967 25.0642 4.46291 24.3649 4.33236 23.5163L3.91276 20.8215C3.87546 20.5605 3.95006 20.2901 4.1179 20.0849C4.29506 19.8798 4.54683 19.7679 4.80791 19.7679H5.62847L6.23456 25.4465L5.8709 25.3253V25.3346Z" fill="#EFDBC4"/>
<path d="M24.7353 26.9944C24.7633 26.8079 24.7912 26.6214 24.8099 26.4442C24.8472 26.0806 24.5861 25.7542 24.2224 25.7169C23.8588 25.6796 23.5324 25.9407 23.4951 26.3044C23.4765 26.4629 23.4578 26.6307 23.4299 26.7986C23.3739 27.1622 23.6164 27.4979 23.98 27.5538C24.0173 27.5538 24.0453 27.5538 24.0826 27.5538C24.3996 27.5538 24.6793 27.3207 24.7353 26.9944Z" fill="#EFDBC4"/>
<path d="M10.4485 30.5843C10.5697 30.8081 10.7935 30.9387 11.036 30.9387C11.1385 30.9387 11.2411 30.9107 11.3437 30.8641C11.67 30.6962 11.7912 30.2953 11.6234 29.9782C11.4835 29.7078 11.353 29.4281 11.2318 29.1484C11.0919 28.8127 10.7096 28.6542 10.3739 28.794C10.0382 28.9339 9.87974 29.3162 10.0196 29.6519C10.1501 29.9689 10.2993 30.2859 10.4578 30.5843H10.4485Z" fill="#EFDBC4"/>
<path d="M12.9951 31.9738C12.7527 31.7034 12.3424 31.6754 12.0627 31.9178C11.7829 32.1603 11.7643 32.5705 12.0067 32.8503C12.2305 33.1114 12.473 33.3538 12.7247 33.5962C12.8553 33.7175 13.0138 33.7734 13.1816 33.7734C13.3588 33.7734 13.5266 33.7081 13.6572 33.5683C13.9089 33.3072 13.8996 32.8876 13.6292 32.6358C13.4054 32.4307 13.1909 32.2069 12.9951 31.9738Z" fill="#EFDBC4"/>
<path d="M23.6333 28.7847C23.2977 28.6449 22.9154 28.8034 22.7755 29.1391C22.6636 29.4188 22.533 29.6985 22.3839 29.969C22.216 30.2953 22.3372 30.6869 22.6636 30.8548C22.7568 30.9014 22.8687 30.9294 22.9713 30.9294C23.2044 30.9294 23.4375 30.7988 23.5587 30.575C23.7173 30.2673 23.8665 29.9596 23.997 29.6426C24.1369 29.3069 23.9783 28.9246 23.6427 28.7847H23.6333Z" fill="#EFDBC4"/>
<path d="M15.5512 34.3514C15.2808 34.109 14.8612 34.137 14.6187 34.4074C14.3763 34.6778 14.4043 35.0974 14.6747 35.3398L15.402 35.9832C15.5232 36.0951 15.6817 36.151 15.8402 36.151C16.0267 36.151 16.2039 36.0764 16.3344 35.9273C16.5769 35.6568 16.5489 35.2372 16.2785 34.9948L15.5512 34.3514Z" fill="#EFDBC4"/>
<path d="M21.0136 31.9738C20.8178 32.1976 20.6033 32.4213 20.3795 32.6358C20.1184 32.8876 20.1091 33.3072 20.3609 33.5683C20.4914 33.7081 20.6686 33.7734 20.8364 33.7734C20.9949 33.7734 21.1628 33.7175 21.2933 33.5962C21.5451 33.3631 21.7875 33.1114 22.0113 32.8503C22.2538 32.5799 22.2258 32.1603 21.9554 31.9178C21.685 31.6754 21.2654 31.7034 21.0229 31.9738H21.0136Z" fill="#EFDBC4"/>
<path d="M18.4489 34.3514L17.7216 34.9948C17.4511 35.2372 17.4232 35.6568 17.6656 35.9273C17.7961 36.0764 17.9733 36.151 18.1598 36.151C18.3183 36.151 18.4675 36.0951 18.5981 35.9832L19.3254 35.3398C19.5958 35.0974 19.6237 34.6778 19.3813 34.4074C19.1389 34.137 18.7193 34.109 18.4489 34.3514Z" fill="#EFDBC4"/>
<path d="M10.5711 26.7893C10.5431 26.6214 10.5245 26.4629 10.5058 26.2951C10.4685 25.9314 10.1422 25.6703 9.77849 25.7076C9.41484 25.7449 9.15375 26.0713 9.19105 26.435C9.2097 26.6214 9.23767 26.8079 9.26565 26.9851C9.31227 27.3115 9.592 27.5446 9.91836 27.5446C9.95566 27.5446 9.98363 27.5446 10.021 27.5446C10.3846 27.4886 10.6271 27.1529 10.5711 26.7893Z" fill="#EFDBC4"/>
<path d="M33.2856 31.4328L31.9522 29.0084C31.7751 28.6914 31.3741 28.5702 31.0571 28.7473L28.6327 30.0807C28.3157 30.2579 28.1945 30.6589 28.3716 30.9759C28.5488 31.2929 28.9497 31.4141 29.2668 31.237L30.3111 30.6589C29.36 33.5588 27.6536 36.1417 25.3505 38.1837C25.0801 38.4262 25.0521 38.8458 25.2945 39.1162C25.4251 39.2654 25.6023 39.34 25.7887 39.34C25.9473 39.34 26.0965 39.284 26.227 39.1721C28.7166 36.9622 30.5442 34.1835 31.5699 31.0505L32.1201 32.0575C32.2413 32.272 32.4651 32.4025 32.6982 32.4025C32.8101 32.4025 32.9127 32.3746 33.0152 32.3186C33.3323 32.1414 33.4535 31.7405 33.2763 31.4235L33.2856 31.4328Z" fill="#EFDBC4"/>
<path d="M8.70571 39.1257C8.94815 38.8553 8.92018 38.4357 8.64977 38.1932C6.33729 36.1512 4.64023 33.5683 3.68913 30.6684L4.73348 31.2465C5.05051 31.4237 5.45146 31.3024 5.62863 30.9854C5.80579 30.6684 5.68458 30.2674 5.36754 30.0903L2.94318 28.7569C2.62614 28.5797 2.22519 28.7009 2.04802 29.0179L0.714619 31.4423C0.537454 31.7593 0.658673 32.1603 0.975705 32.3375C1.07828 32.3934 1.18085 32.4214 1.29274 32.4214C1.52585 32.4214 1.74964 32.3002 1.87086 32.0764L2.43033 31.0693C3.45602 34.193 5.28362 36.9811 7.77326 39.191C7.89448 39.3029 8.053 39.3588 8.21151 39.3588C8.398 39.3588 8.57517 39.2842 8.70571 39.135V39.1257Z" fill="#EFDBC4"/>
</g>
</g>
<defs>
<clipPath id="clip0_718_303">
<rect width="34" height="45" fill="white"/>
</clipPath>
</defs>
</svg>
