<svg width="49" height="45" viewBox="0 0 49 45" fill="none" xmlns="http://www.w3.org/2000/svg">
<g clip-path="url(#clip0_24_463)">
<path d="M22.1808 45.0001C10.3954 45.0001 0.812866 35.4175 0.812866 23.6443C0.812866 11.8711 10.3954 2.27637 22.1808 2.27637C23.9309 2.27637 25.6687 2.48442 27.3576 2.91276C27.8471 3.03514 28.1409 3.52467 28.0185 4.00196C27.8961 4.49149 27.4066 4.78521 26.9293 4.66282C25.3872 4.28344 23.7963 4.08763 22.1931 4.08763C11.3867 4.08763 2.62413 12.8624 2.62413 23.6443C2.62413 34.4262 11.3989 43.201 22.1808 43.201C32.9627 43.201 41.7375 34.4262 41.7375 23.6443C41.7375 23.1426 42.1414 22.7387 42.6432 22.7387C43.1449 22.7387 43.5488 23.1426 43.5488 23.6443C43.5488 35.4175 33.9663 45.0123 22.1808 45.0123V45.0001Z" fill="#000"/>
<path d="M22.1808 14.796C21.679 14.796 21.2751 14.3921 21.2751 13.8903V10.121C21.2751 9.61919 21.679 9.21533 22.1808 9.21533C22.6825 9.21533 23.0864 9.61919 23.0864 10.121V13.8903C23.0864 14.3921 22.6825 14.796 22.1808 14.796Z" fill="#000"/>
<path d="M35.6919 24.5498H31.9225C31.4207 24.5498 31.0168 24.1459 31.0168 23.6442C31.0168 23.1424 31.4207 22.7385 31.9225 22.7385H35.6919C36.1936 22.7385 36.5975 23.1424 36.5975 23.6442C36.5975 24.1459 36.1936 24.5498 35.6919 24.5498Z" fill="#000"/>
<path d="M31.7389 34.1079C31.5063 34.1079 31.2738 34.0222 31.1025 33.8386L29.3402 32.0763C28.9852 31.7214 28.9852 31.1462 29.3402 30.8035C29.6951 30.4486 30.2703 30.4486 30.6252 30.8035L32.3875 32.5658C32.7424 32.9208 32.7424 33.4959 32.3875 33.8509C32.2161 34.0222 31.9836 34.1201 31.7511 34.1201L31.7389 34.1079Z" fill="#000"/>
<path d="M22.1808 38.0609C21.679 38.0609 21.2751 37.657 21.2751 37.1552V33.3859C21.2751 32.8841 21.679 32.4802 22.1808 32.4802C22.6825 32.4802 23.0864 32.8841 23.0864 33.3859V37.1552C23.0864 37.657 22.6825 38.0609 22.1808 38.0609Z" fill="#000"/>
<path d="M12.6106 34.1079C12.3781 34.1079 12.1455 34.0222 11.9742 33.8386C11.6193 33.4837 11.6193 32.9085 11.9742 32.5536L13.7365 30.7913C14.0914 30.4364 14.6666 30.4364 15.0215 30.7913C15.3764 31.1462 15.3764 31.7214 15.0215 32.0641L13.2592 33.8264C13.0879 33.9977 12.8553 34.0957 12.6228 34.0957L12.6106 34.1079Z" fill="#000"/>
<path d="M12.427 24.5498H8.65758C8.15581 24.5498 7.75195 24.1459 7.75195 23.6442C7.75195 23.1424 8.15581 22.7385 8.65758 22.7385H12.427C12.9287 22.7385 13.3326 23.1424 13.3326 23.6442C13.3326 24.1459 12.9287 24.5498 12.427 24.5498Z" fill="#000"/>
<path d="M14.3851 16.7541C14.1526 16.7541 13.92 16.6684 13.7487 16.4849L11.9864 14.7226C11.6315 14.3676 11.6315 13.7924 11.9864 13.4498C12.3413 13.0949 12.9165 13.0949 13.2714 13.4498L15.0337 15.2121C15.3886 15.567 15.3886 16.1422 15.0337 16.4849C14.8624 16.6562 14.6299 16.7541 14.3973 16.7541H14.3851Z" fill="#000"/>
<path d="M22.1808 41.3409C17.4569 41.3409 13.0144 39.5051 9.67336 36.1641C2.77099 29.2617 2.77099 18.0393 9.67336 11.1369C13.8711 6.93919 19.8556 5.12793 25.681 6.30281C26.1705 6.40071 26.4887 6.878 26.3908 7.36753C26.2929 7.85706 25.8156 8.17526 25.3261 8.07735C20.0881 7.02486 14.7155 8.65255 10.9461 12.4219C4.75359 18.6145 4.75359 28.6988 10.9461 34.8913C13.9445 37.8897 17.9342 39.5419 22.1808 39.5419C26.4275 39.5419 30.4172 37.8897 33.4155 34.8913C36.2548 32.0521 37.907 28.2704 38.0538 24.2563C38.0783 23.7545 38.4822 23.3751 38.9962 23.3874C39.4979 23.4119 39.8896 23.828 39.8651 24.3297C39.6938 28.7967 37.858 33.0066 34.7006 36.1763C31.3595 39.5174 26.917 41.3531 22.1931 41.3531L22.1808 41.3409Z" fill="#000"/>
<path d="M22.1808 26.8262C21.3609 26.8262 20.5531 26.5202 19.929 25.8961C18.6929 24.66 18.6929 22.6407 19.929 21.3924C21.1651 20.1563 23.1844 20.1563 24.4327 21.3924C25.681 22.6284 25.6687 24.6478 24.4327 25.8961C23.8085 26.5202 23.0008 26.8262 22.1808 26.8262ZM22.1808 22.2735C21.8259 22.2735 21.471 22.4082 21.214 22.6774C20.6755 23.2159 20.6755 24.0848 21.214 24.6233C21.7525 25.1618 22.6214 25.1618 23.1599 24.6233C23.6984 24.0848 23.6984 23.2159 23.1599 22.6774C22.8907 22.4082 22.5357 22.2735 22.1808 22.2735Z" fill="#000"/>
<path d="M22.1808 22.2614C21.679 22.2614 21.2751 21.8575 21.2751 21.3557V18.1371C21.2751 17.6353 21.679 17.2314 22.1808 17.2314C22.6825 17.2314 23.0864 17.6353 23.0864 18.1371V21.3557C23.0864 21.8575 22.6825 22.2614 22.1808 22.2614Z" fill="#000"/>
<path d="M29.022 24.5498H24.4571C23.9554 24.5498 23.5515 24.1459 23.5515 23.6442C23.5515 23.1424 23.9554 22.7385 24.4571 22.7385H29.022C29.5238 22.7385 29.9276 23.1424 29.9276 23.6442C29.9276 24.1459 29.5238 24.5498 29.022 24.5498Z" fill="#000"/>
<path d="M43.5488 12.3361C43.1938 12.3361 42.8389 12.2994 42.484 12.2137C42.0312 12.1036 41.7375 11.6752 41.7987 11.2224C41.8232 11.0756 41.8354 10.9165 41.8354 10.7574C41.8354 9.63145 41.3214 8.5912 40.4158 7.90585C40.2077 7.74676 40.0853 7.51423 40.0609 7.25723C40.0364 7.00022 40.1221 6.75546 40.3056 6.55965C40.8074 6.0334 41.0766 5.34806 41.0766 4.62601C41.0766 4.54034 41.0766 4.45467 41.0644 4.369C41.0277 3.98962 41.2357 3.63471 41.5784 3.47561C43.769 2.4476 46.3391 3.26756 47.5507 5.3603C48.8357 7.57542 48.0647 10.4269 45.8495 11.6997C45.1397 12.1036 44.3442 12.3239 43.5365 12.3239L43.5488 12.3361ZM42.1781 7.07365C43.0592 8.016 43.5732 9.22758 43.6222 10.5248C44.0872 10.5126 44.5401 10.378 44.9439 10.1455C46.3024 9.3622 46.7674 7.62437 45.9842 6.27817C45.3478 5.18897 44.0628 4.66272 42.8634 4.9442C42.8145 5.70297 42.5697 6.43727 42.1781 7.07365Z" fill="#000"/>
<path d="M43.5365 18.4553C42.7533 18.4553 41.9578 18.2595 41.2235 17.8311C40.2077 17.2437 39.4489 16.2891 39.1063 15.1632C38.9716 14.7226 39.1919 14.2453 39.6203 14.0617C40.7951 13.5722 41.6396 12.4708 41.7987 11.2102C41.8354 10.9532 41.97 10.7329 42.1781 10.5861C42.3861 10.4392 42.6553 10.3903 42.9001 10.4515C43.6099 10.6228 44.3442 10.5127 44.9561 10.1577C45.0296 10.121 45.103 10.0721 45.1642 10.0231C45.4701 9.80284 45.8862 9.80284 46.2044 10.0231C48.187 11.4183 48.7745 14.0495 47.5629 16.1422C46.7062 17.6231 45.1397 18.4675 43.5365 18.4675V18.4553ZM41.1378 15.31C41.3826 15.7017 41.713 16.0321 42.1291 16.2646C42.79 16.644 43.5487 16.7419 44.283 16.5461C45.0173 16.3503 45.6292 15.8852 46.0086 15.2244C46.645 14.1229 46.4492 12.7523 45.6048 11.8589C44.9194 12.1893 44.1729 12.3484 43.4141 12.3239C43.0347 13.5477 42.2392 14.6125 41.15 15.2978L41.1378 15.31Z" fill="#000"/>
<path d="M38.2374 21.5149C35.6796 21.5149 33.5991 19.4344 33.5991 16.8766C33.5991 15.7017 34.0397 14.5635 34.8597 13.7069C35.1779 13.3642 35.7041 13.3275 36.0712 13.609C37.087 14.3922 38.4577 14.5635 39.6326 14.074C39.8651 13.9761 40.1343 13.9761 40.3669 14.0863C40.5994 14.1964 40.7707 14.3922 40.8442 14.637C41.0522 15.3346 41.505 15.9098 42.1292 16.2647C42.2026 16.3014 42.276 16.3381 42.3495 16.3748C42.6921 16.5339 42.9002 16.8888 42.8635 17.2682C42.6554 19.6791 40.6606 21.5026 38.2374 21.5026V21.5149ZM35.7408 15.5426C35.5205 15.9465 35.3981 16.4115 35.3981 16.8766C35.3981 18.4431 36.6709 19.7158 38.2374 19.7158C39.498 19.7158 40.5994 18.8592 40.9543 17.6843C40.3179 17.256 39.8161 16.693 39.449 16.0199C38.2007 16.3136 36.8667 16.1423 35.7408 15.5426Z" fill="#000"/>
<path d="M40.9665 8.10165C40.7707 8.10165 40.5749 8.04046 40.4158 7.91808C39.4 7.13483 38.0171 6.9635 36.8545 7.45302C36.6219 7.55093 36.3527 7.55093 36.1202 7.44079C35.8876 7.33064 35.7163 7.13483 35.6429 6.89007C35.4348 6.19249 34.982 5.61729 34.3579 5.26238C34.2844 5.22567 34.211 5.18895 34.1376 5.15224C33.7949 4.99314 33.5868 4.63823 33.6236 4.25884C33.8316 1.84791 35.8264 0.0244141 38.2496 0.0244141C40.8074 0.0244141 42.8879 2.10491 42.8879 4.66271C42.8879 5.83758 42.4351 6.9635 41.6274 7.83241C41.456 8.01598 41.2113 8.11389 40.9665 8.11389V8.10165ZM38.2374 5.37252C39.1185 5.37252 39.963 5.58057 40.734 5.98444C40.9543 5.58057 41.0767 5.11552 41.0767 4.65047C41.0767 3.08397 39.8039 1.8112 38.2374 1.8112C36.9768 1.8112 35.8754 2.66787 35.5205 3.84274C36.1569 4.25884 36.6586 4.83404 37.0258 5.50714C37.4174 5.40924 37.8335 5.37252 38.2374 5.37252Z" fill="#000"/>
<path d="M30.7966 11.663C30.613 11.663 30.4294 11.6018 30.2826 11.5039C28.3 10.1088 27.7125 7.47753 28.9241 5.38479C30.2091 3.16967 33.0484 2.4109 35.2635 3.68368C36.2793 4.27111 37.0381 5.22569 37.3807 6.35161C37.5154 6.79219 37.2951 7.26948 36.8667 7.45305C35.6919 7.94258 34.8474 9.03179 34.6883 10.3046C34.6516 10.5616 34.517 10.7819 34.3089 10.9287C34.1009 11.0756 33.8317 11.1245 33.5869 11.0633C32.8771 10.892 32.155 11.0021 31.5309 11.3571C31.4574 11.3938 31.384 11.4427 31.3228 11.4917C31.1637 11.6018 30.9924 11.6508 30.8088 11.6508L30.7966 11.663ZM32.9505 4.87078C31.9714 4.87078 31.0169 5.38479 30.4906 6.29042C29.8542 7.37962 30.05 8.76254 30.8945 9.65594C31.5798 9.3255 32.3263 9.15417 33.0851 9.19088C33.4645 7.96706 34.26 6.90233 35.3492 6.21699C35.1044 5.82537 34.774 5.49494 34.3579 5.26241C33.9173 5.00541 33.4278 4.88302 32.9505 4.88302V4.87078Z" fill="#000"/>
<path d="M32.9259 18.4675C31.3227 18.4675 29.7807 17.6231 28.924 16.1422C28.2999 15.0653 28.1408 13.817 28.459 12.6176C28.7772 11.4183 29.5482 10.4148 30.6252 9.80284C31.6532 9.21541 32.8403 9.03183 34.0029 9.30107C34.4557 9.41122 34.7494 9.83956 34.6883 10.2924C34.6638 10.4392 34.6515 10.5983 34.6515 10.7574C34.6515 11.8833 35.1655 12.9236 36.0712 13.6089C36.2792 13.768 36.4016 14.0006 36.4261 14.2576C36.4506 14.5146 36.3649 14.7593 36.1813 14.9551C35.6796 15.4814 35.4103 16.1667 35.4103 16.8888C35.4103 16.9744 35.4103 17.0601 35.4226 17.1335C35.4593 17.5129 35.2512 17.8678 34.9085 18.0269C34.2722 18.3207 33.5991 18.4675 32.9382 18.4675H32.9259ZM32.8525 10.9899C32.3875 11.0022 31.9347 11.1246 31.5308 11.3693C30.8699 11.7487 30.4049 12.3606 30.2091 13.0949C30.0132 13.8292 30.1112 14.588 30.4905 15.2489C31.1269 16.3381 32.4119 16.8643 33.6113 16.5828C33.6602 15.8241 33.905 15.0898 34.2966 14.4534C33.4155 13.511 32.9015 12.2994 32.8525 11.0022V10.9899Z" fill="#000"/>
<path d="M38.2374 13.3887C36.7933 13.3887 35.6062 12.2138 35.6062 10.7574C35.6062 10.2557 36.0101 9.85181 36.5118 9.85181C37.0136 9.85181 37.4175 10.2557 37.4175 10.7574C37.4175 11.2103 37.7846 11.5774 38.2374 11.5774C38.6902 11.5774 39.0574 11.2103 39.0574 10.7574C39.0574 10.3046 38.6902 9.93748 38.2374 9.93748C37.7357 9.93748 37.3318 9.53362 37.3318 9.03185C37.3318 8.53008 37.7357 8.12622 38.2374 8.12622C39.6815 8.12622 40.8686 9.30109 40.8686 10.7574C40.8686 12.2138 39.6938 13.3887 38.2374 13.3887Z" fill="#000"/>
</g>
<defs>
<clipPath id="clip0_24_463">
<rect width="47.3742" height="45" fill="white" transform="translate(0.812866)"/>
</clipPath>
</defs>
</svg>
