<svg width="38" height="45" viewBox="0 0 38 45" fill="none" xmlns="http://www.w3.org/2000/svg">
<g clip-path="url(#clip0_24_309)">
<path d="M20.9744 20.1263C20.7269 20.1263 20.4906 20.0025 20.3556 19.7775C20.1531 19.4288 20.2544 18.99 20.6031 18.7763C21.6381 18.1463 24.3606 17.6963 26.7681 18.0225C27.1619 18.0788 27.4431 18.4388 27.3981 18.8438C27.3419 19.2375 26.9819 19.5188 26.5769 19.4738C24.2706 19.17 21.9531 19.6763 21.3681 20.0363C21.2556 20.1038 21.1206 20.1375 20.9856 20.1375L20.9744 20.1263Z" fill="#000"/>
<path d="M16.9356 20.1261C16.8119 20.1261 16.6769 20.0924 16.5644 20.0249C15.9681 19.6649 13.6506 19.1586 11.3556 19.4624C10.9506 19.5186 10.5906 19.2374 10.5344 18.8324C10.4781 18.4386 10.7594 18.0674 11.1644 18.0111C13.5719 17.6849 16.2944 18.1461 17.3294 18.7649C17.6781 18.9786 17.7794 19.4174 17.5769 19.7661C17.4419 19.9911 17.1944 20.1149 16.9469 20.1149L16.9356 20.1261Z" fill="#000"/>
<path d="M18.9606 29.5537C18.3531 29.5537 17.7568 29.3175 17.2956 28.8787L16.9243 28.53C16.6318 28.26 16.6093 27.7987 16.8906 27.495C17.1606 27.2025 17.6218 27.18 17.9256 27.4612L18.2968 27.7987C18.6793 28.1587 19.2531 28.1587 19.6356 27.7987L20.0068 27.4612C20.2993 27.1912 20.7606 27.2025 21.0418 27.495C21.3118 27.7875 21.3006 28.2487 21.0081 28.53L20.6368 28.8787C20.1756 29.3175 19.5793 29.5537 18.9718 29.5537H18.9606Z" fill="#000"/>
<path d="M19.0057 35.3587C19.0057 35.3587 18.9382 35.3587 18.9044 35.3587C18.4657 35.3587 16.8794 35.2237 15.4394 33.3899C15.2257 33.1087 15.2369 32.7262 15.4619 32.4562C15.5069 32.3999 15.9457 31.9162 16.8232 31.5224C18.1732 30.9037 19.7144 30.9037 21.0644 31.5224C21.9419 31.9274 22.3807 32.4112 22.4257 32.4562C22.6619 32.7149 22.6732 33.1087 22.4594 33.3899C21.0307 35.2237 19.4332 35.3587 18.9944 35.3587H19.0057ZM18.9607 33.8962C18.9607 33.8962 19.0057 33.8962 19.0169 33.8962C19.0394 33.8962 19.8832 33.9299 20.8282 33.0299C20.7269 32.9624 20.6032 32.9062 20.4682 32.8387C19.5232 32.3999 18.3982 32.3999 17.4532 32.8387C17.3182 32.9062 17.1944 32.9624 17.0932 33.0299C18.0382 33.9299 18.8707 33.8962 18.9157 33.8962C18.9269 33.8962 18.9494 33.8962 18.9607 33.8962Z" fill="#000"/>
<path d="M18.9606 39.9039C17.4306 39.9039 15.9006 39.4089 14.6181 38.4189C3.94188 30.1501 6.09063 20.0139 6.19188 19.5864C6.30438 19.1026 9.11688 7.77385 28.2981 5.1076C28.5006 5.0851 28.7144 5.14135 28.8719 5.27635C29.1194 5.47885 34.7669 10.3726 31.9094 20.8351C31.9769 21.6226 31.9994 22.7364 31.8644 24.0639C31.8194 24.3789 30.7056 31.0501 26.1494 35.8764C25.3394 36.7314 24.4169 37.5526 23.3144 38.4189C22.0319 39.4089 20.5019 39.9039 18.9719 39.9039H18.9606ZM17.9031 9.52886C14.7419 11.0026 12.5819 12.7239 11.1531 14.1976C8.27313 17.1789 7.60938 19.8789 7.60938 19.9014C7.51938 20.2839 5.60688 29.5651 15.5181 37.2489C17.5431 38.8239 20.3781 38.8239 22.4144 37.2489C23.4606 36.4389 24.3381 35.6626 25.0806 34.8639C29.3219 30.3751 30.4019 23.9289 30.4131 23.8614C30.5481 22.5901 30.5144 21.5439 30.4469 20.8351C30.3906 20.2276 30.3231 19.9014 30.3119 19.8901C28.2419 12.5326 19.4894 9.92261 17.9031 9.5176V9.52886ZM20.0069 8.6401C23.0444 9.6976 28.6244 12.2964 31.0544 17.7189C31.9994 11.0251 29.0181 7.48135 28.1406 6.60385C24.9569 7.0651 22.2681 7.7851 20.0069 8.6401Z" fill="#000"/>
<path d="M6.9006 20.475C6.6081 20.475 6.3381 20.3063 6.2256 20.0138C6.0906 19.6875 3.04185 11.8912 7.9356 5.22C10.3656 1.9125 14.1456 0.01125 18.3081 0C22.5606 0 26.3856 1.9125 28.8718 5.25375L28.9843 5.41125C29.2206 5.7375 29.1418 6.1875 28.8156 6.42375C28.4893 6.66 28.0393 6.58125 27.8031 6.255L27.7018 6.10875C25.4968 3.13875 22.0881 1.45125 18.3531 1.45125C14.6181 1.45125 11.2656 3.15 9.11685 6.075C4.70685 12.0825 7.5531 19.395 7.5756 19.4625C7.72185 19.8337 7.54185 20.2612 7.1706 20.4075C7.0806 20.4412 6.9906 20.4638 6.9006 20.4638V20.475Z" fill="#000"/>
<path d="M11.8956 45C11.7268 45 11.5581 44.9438 11.4231 44.82C11.1193 44.5613 11.0856 44.1 11.3443 43.7963C13.4706 41.31 12.7618 36.6638 12.7618 36.6188C12.7281 36.405 12.7843 36.1913 12.9306 36.0338C13.1893 35.73 13.6843 35.7075 13.9768 35.9663C14.5056 36.45 15.0118 36.8663 15.5181 37.2713C17.5431 38.8463 20.3781 38.8463 22.4143 37.2713C22.9318 36.8775 23.4381 36.45 23.9556 35.9663C24.2481 35.6963 24.7431 35.73 25.0018 36.0338C25.1368 36.1913 25.2043 36.4163 25.1706 36.6188C25.1706 36.6638 24.4393 41.2988 26.6556 43.785C26.9256 44.0888 26.8918 44.55 26.5993 44.8088C26.2956 45.0788 25.8343 45.045 25.5756 44.7525C23.8543 42.8175 23.5731 40.005 23.6068 38.1825C23.5056 38.2613 23.4156 38.34 23.3143 38.4075C20.7606 40.3875 17.1943 40.3875 14.6293 38.4075C14.5281 38.3288 14.4381 38.2613 14.3368 38.1825C14.3706 40.005 14.1006 42.8175 12.4468 44.7413C12.3006 44.91 12.0981 45 11.8956 45Z" fill="#000"/>
<path d="M37.2531 45.0001H0.746875C0.341875 45.0001 0.015625 44.6738 0.015625 44.2688C0.015625 43.8638 0.341875 43.5376 0.746875 43.5376H37.2531C37.6581 43.5376 37.9844 43.8638 37.9844 44.2688C37.9844 44.6738 37.6581 45.0001 37.2531 45.0001Z" fill="#000"/>
<path d="M24.0344 23.5462C22.8307 23.5462 21.8857 23.3437 21.8069 23.3212C21.4132 23.2312 21.1657 22.8487 21.2557 22.4549C21.3457 22.0612 21.7282 21.8137 22.1219 21.9037C22.1557 21.9037 25.5644 22.6349 27.3194 21.1612C27.6232 20.9024 28.0844 20.9362 28.3432 21.2512C28.6019 21.5549 28.5682 22.0162 28.2532 22.2749C27.0382 23.2987 25.3732 23.5462 24.0344 23.5462Z" fill="#000"/>
<path d="M27.4543 24.0975C27.1843 24.0975 26.9256 23.9512 26.8018 23.6925L26.2618 22.59C26.0818 22.23 26.2281 21.7912 26.5881 21.6112C26.9481 21.4312 27.3868 21.5775 27.5668 21.9375L28.1068 23.04C28.2868 23.4 28.1406 23.8387 27.7806 24.0187C27.6793 24.075 27.5668 24.0975 27.4543 24.0975Z" fill="#000"/>
<path d="M25.1257 25.1888C24.7769 25.1888 24.4619 24.93 24.4057 24.57L24.1469 22.8938C24.0907 22.5 24.3607 22.1288 24.7544 22.0613C25.1482 21.9938 25.5194 22.275 25.5869 22.6688L25.8457 24.345C25.9019 24.7388 25.6319 25.11 25.2382 25.1775C25.2044 25.1775 25.1594 25.1775 25.1257 25.1775V25.1888Z" fill="#000"/>
<path d="M22.4143 24.6376C22.3468 24.6376 22.2906 24.6376 22.2231 24.6151C21.8293 24.5139 21.6043 24.1089 21.7056 23.7264L22.0206 22.5451C22.1218 22.1514 22.5268 21.9264 22.9093 22.0276C23.3031 22.1289 23.5281 22.5339 23.4268 22.9164L23.1118 24.0976C23.0218 24.4239 22.7293 24.6376 22.4031 24.6376H22.4143Z" fill="#000"/>
<path d="M14.6293 23.5462C13.2906 23.5462 11.6143 23.2987 10.4106 22.2749C10.1068 22.0162 10.0618 21.5549 10.3206 21.2512C10.5793 20.9474 11.0406 20.9024 11.3443 21.1612C13.0993 22.6349 16.5081 21.9149 16.5418 21.9037C16.9356 21.8137 17.3293 22.0612 17.4081 22.4549C17.4981 22.8487 17.2506 23.2312 16.8568 23.3212C16.7781 23.3437 15.8443 23.5462 14.6293 23.5462Z" fill="#000"/>
<path d="M11.1982 24.0975C11.0857 24.0975 10.9844 24.075 10.8719 24.0187C10.5119 23.8387 10.3657 23.4 10.5457 23.04L11.0857 21.9375C11.2657 21.5775 11.7044 21.4312 12.0644 21.6112C12.4244 21.7912 12.5707 22.23 12.3907 22.59L11.8507 23.6925C11.7269 23.9512 11.4682 24.0975 11.1982 24.0975Z" fill="#000"/>
<path d="M13.5269 25.1888C13.5269 25.1888 13.4481 25.1888 13.4144 25.1888C13.0206 25.1325 12.7394 24.7613 12.8069 24.3563L13.0656 22.68C13.1219 22.2863 13.4931 22.005 13.8981 22.0725C14.2919 22.1288 14.5731 22.5 14.5056 22.905L14.2469 24.5813C14.1906 24.9413 13.8756 25.2 13.5269 25.2V25.1888Z" fill="#000"/>
<path d="M16.2381 24.6376C15.9119 24.6376 15.6194 24.4239 15.5294 24.0976L15.2144 22.9164C15.1131 22.5226 15.3381 22.1289 15.7319 22.0276C16.1256 21.9264 16.5194 22.1514 16.6206 22.5451L16.9356 23.7264C17.0369 24.1201 16.8119 24.5139 16.4181 24.6151C16.3506 24.6376 16.2944 24.6376 16.2269 24.6376H16.2381Z" fill="#000"/>
<path d="M18.9606 17.7413C18.5556 17.7413 18.2294 17.415 18.2294 17.01V12.5325C18.2294 12.1275 18.5556 11.8013 18.9606 11.8013C19.3656 11.8013 19.6919 12.1275 19.6919 12.5325V17.01C19.6919 17.415 19.3656 17.7413 18.9606 17.7413Z" fill="#000"/>
<path d="M20.3218 14.58C20.1418 14.58 19.9618 14.5125 19.8156 14.3775L18.9493 13.545L18.0831 14.3775C17.7906 14.6588 17.3293 14.6475 17.0481 14.355C16.7668 14.0625 16.7781 13.6013 17.0706 13.32L18.4431 12.0038C18.7243 11.7338 19.1743 11.7338 19.4556 12.0038L20.8281 13.32C21.1206 13.6013 21.1318 14.0625 20.8506 14.355C20.7043 14.5013 20.5131 14.58 20.3218 14.58Z" fill="#000"/>
<path d="M23.7757 17.1224C23.3707 17.1224 23.0444 16.7961 23.0444 16.3911V14.1524C23.0444 13.7474 23.3707 13.4211 23.7757 13.4211C24.1807 13.4211 24.5069 13.7474 24.5069 14.1524V16.3911C24.5069 16.7961 24.1807 17.1224 23.7757 17.1224Z" fill="#000"/>
<path d="M25.1481 16.1999C24.9681 16.1999 24.7881 16.1324 24.6419 15.9974L23.7756 15.1649L22.9094 15.9974C22.6169 16.2786 22.1556 16.2674 21.8744 15.9749C21.5931 15.6824 21.6044 15.2211 21.8969 14.9399L23.2694 13.6236C23.5506 13.3536 24.0006 13.3536 24.2819 13.6236L25.6544 14.9399C25.9469 15.2211 25.9581 15.6824 25.6769 15.9749C25.5306 16.1211 25.3394 16.1999 25.1481 16.1999Z" fill="#000"/>
<path d="M14.1457 17.1224C13.7407 17.1224 13.4144 16.7961 13.4144 16.3911V14.1524C13.4144 13.7474 13.7407 13.4211 14.1457 13.4211C14.5507 13.4211 14.8769 13.7474 14.8769 14.1524V16.3911C14.8769 16.7961 14.5507 17.1224 14.1457 17.1224Z" fill="#000"/>
<path d="M15.5069 16.1999C15.3269 16.1999 15.1469 16.1324 15.0006 15.9974L14.1344 15.1649L13.2681 15.9974C12.9756 16.2786 12.5144 16.2674 12.2331 15.9749C11.9519 15.6824 11.9631 15.2211 12.2556 14.9399L13.6281 13.6236C13.9094 13.3536 14.3594 13.3536 14.6406 13.6236L16.0131 14.9399C16.3056 15.2211 16.3169 15.6824 16.0356 15.9749C15.8894 16.1211 15.6981 16.1999 15.5069 16.1999Z" fill="#000"/>
</g>
<defs>
<clipPath id="clip0_24_309">
<rect width="37.9688" height="45" fill="white" transform="translate(0.015625)"/>
</clipPath>
</defs>
</svg>
