<svg width="40" height="45" viewBox="0 0 40 45" fill="none" xmlns="http://www.w3.org/2000/svg">
<g clip-path="url(#clip0_718_322)">
<mask id="mask0_718_322" style="mask-type:luminance" maskUnits="userSpaceOnUse" x="0" y="0" width="40" height="45">
<path d="M39.6478 0H0.351562V45H39.6478V0Z" fill="white"/>
</mask>
<g mask="url(#mask0_718_322)">
<path d="M22.876 20.8576C21.5597 20.8576 20.536 20.6326 20.446 20.6213C19.9847 20.5201 19.6922 20.0588 19.7935 19.5976C19.8947 19.1363 20.356 18.8438 20.8172 18.9451C20.851 18.9451 24.5185 19.7326 26.3972 18.1576C26.7572 17.8538 27.3085 17.8988 27.6122 18.2588C27.916 18.6188 27.871 19.1701 27.511 19.4738C26.1835 20.5988 24.3385 20.8688 22.876 20.8688V20.8576Z" fill="#EFDBC4"/>
<path d="M26.5999 21.4649C26.2849 21.4649 25.9811 21.2849 25.8236 20.9812L25.2386 19.7887C25.0249 19.3612 25.2049 18.8437 25.6324 18.6412C26.0599 18.4387 26.5774 18.6074 26.7799 19.0349L27.3649 20.2274C27.5786 20.6549 27.3986 21.1724 26.9711 21.3749C26.8474 21.4312 26.7236 21.4649 26.5886 21.4649H26.5999Z" fill="#EFDBC4"/>
<path d="M24.0677 22.6463C23.6514 22.6463 23.2802 22.3426 23.2239 21.9151L22.9427 20.0926C22.8752 19.6201 23.1902 19.1813 23.6627 19.1138C24.1352 19.0463 24.5739 19.3613 24.6414 19.8338L24.9227 21.6563C24.9902 22.1288 24.6752 22.5676 24.2027 22.6351C24.1577 22.6351 24.1127 22.6351 24.0677 22.6351V22.6463Z" fill="#EFDBC4"/>
<path d="M21.1203 22.0501C21.0528 22.0501 20.974 22.0501 20.8953 22.0163C20.434 21.8926 20.164 21.4201 20.2878 20.9588L20.6253 19.6763C20.749 19.2151 21.2215 18.9451 21.6828 19.0688C22.144 19.1926 22.414 19.6651 22.2903 20.1263L21.9528 21.4088C21.8515 21.7913 21.5028 22.0501 21.1203 22.0501Z" fill="#EFDBC4"/>
<path d="M15.0904 15.8062C15.0116 15.8062 14.9216 15.7949 14.8429 15.7724C13.5154 15.3674 11.8504 15.2662 9.90408 15.4799C9.43158 15.5249 9.00408 15.1874 8.95908 14.7149C8.90283 14.2424 9.25158 13.8149 9.72408 13.7699C11.9066 13.5337 13.7966 13.6574 15.3491 14.1187C15.7991 14.2537 16.0579 14.7374 15.9229 15.1874C15.8104 15.5587 15.4729 15.7949 15.1016 15.7949L15.0904 15.8062Z" fill="#EFDBC4"/>
<path d="M12.6602 20.8576C11.1977 20.8576 9.3527 20.5876 8.0252 19.4626C7.6652 19.1589 7.6202 18.6076 7.92395 18.2476C8.2277 17.8876 8.7677 17.8426 9.13895 18.1464C10.7027 19.4739 13.6952 19.1701 14.7189 18.9339C15.1802 18.8326 15.6414 19.1251 15.7427 19.5864C15.8439 20.0476 15.5514 20.5089 15.0902 20.6101C15.0002 20.6326 13.9764 20.8464 12.6602 20.8464V20.8576Z" fill="#EFDBC4"/>
<path d="M20.6715 15.8063C20.3003 15.8063 19.9628 15.5701 19.8503 15.1988C19.7153 14.7488 19.974 14.2651 20.424 14.1301C21.9765 13.6576 23.8665 13.5338 26.049 13.7813C26.5215 13.8376 26.859 14.2538 26.814 14.7263C26.7578 15.1988 26.3415 15.5363 25.869 15.4913C23.9228 15.2776 22.2578 15.3788 20.9303 15.7838C20.8515 15.8063 20.7615 15.8176 20.6828 15.8176L20.6715 15.8063Z" fill="#EFDBC4"/>
<path d="M17.7687 27.2813C16.9812 27.2813 16.2049 27.0338 15.5862 26.595L15.0574 26.2125C14.6749 25.9313 14.5849 25.4025 14.8549 25.0088C15.1362 24.6263 15.6649 24.5363 16.0587 24.8063L16.5874 25.1888C17.2512 25.6613 18.2974 25.6613 18.9612 25.1888L19.4899 24.8063C19.8724 24.525 20.4124 24.615 20.6937 25.0088C20.9749 25.3913 20.8849 25.9313 20.4912 26.2125L19.9624 26.595C19.3437 27.0338 18.5674 27.2813 17.7799 27.2813H17.7687Z" fill="#EFDBC4"/>
<path d="M17.7014 34.9763C17.1727 34.9763 15.2039 34.8188 13.4151 32.6363C13.1451 32.2988 13.1564 31.8263 13.4489 31.5113C13.5052 31.4438 14.8664 30.0038 17.7014 29.7676C17.7464 29.7676 17.8027 29.7676 17.8477 29.7676C20.6827 30.0151 22.0439 31.4551 22.1002 31.5113C22.3926 31.8263 22.4039 32.3101 22.1339 32.6363C20.2664 34.9201 18.1851 34.9876 17.7801 34.9763C17.7576 34.9763 17.7352 34.9763 17.7127 34.9763H17.7014ZM15.3614 32.1976C16.5877 33.3001 17.6789 33.2551 17.6901 33.2551C17.7351 33.2551 17.7801 33.2551 17.8251 33.2551C17.8701 33.2551 18.9502 33.2888 20.1652 32.1976C19.6702 31.9163 18.8827 31.5901 17.7577 31.4776C16.6439 31.5901 15.8564 31.9163 15.3502 32.1976H15.3614Z" fill="#EFDBC4"/>
<path d="M17.7453 39.3189C16.0241 39.3189 14.3028 38.7564 12.8741 37.6426C1.0728 28.4626 3.44655 17.2351 3.55905 16.7626C3.6153 16.4814 5.1678 9.63011 14.0216 5.05136L15.5066 4.30886C16.1141 4.00511 16.8116 3.94886 17.4528 4.17386C20.1303 5.09636 29.0966 8.70761 31.9541 16.6614C31.9653 16.6951 31.9766 16.7289 31.9878 16.7626C31.9878 16.7851 32.1116 17.3026 32.1791 18.1689C32.2579 19.0801 32.2353 20.0251 32.1341 20.9701C32.0779 21.4426 31.6616 21.7801 31.1778 21.7239C30.7053 21.6676 30.3678 21.2401 30.4241 20.7676C30.5141 19.9351 30.5366 19.1026 30.4691 18.3039C30.4241 17.7076 30.3453 17.3026 30.3228 17.1789C27.7128 9.99011 19.3991 6.64886 16.9016 5.79386C16.6991 5.72636 16.4853 5.73761 16.2828 5.83886L14.8091 6.58136C6.7203 10.7664 5.2578 17.0664 5.24655 17.1339C5.1453 17.5726 3.0303 27.7989 13.9316 36.2926C16.1928 38.0589 19.3766 38.0364 21.6828 36.2364C22.6166 35.5051 23.3816 34.8526 24.0004 34.2339C24.3379 33.8964 24.8778 33.8964 25.2153 34.2339C25.5529 34.5714 25.5529 35.1114 25.2153 35.4489C24.5403 36.1126 23.7416 36.8214 22.7403 37.5864C21.2666 38.7339 19.5116 39.3076 17.7566 39.3076L17.7453 39.3189Z" fill="#EFDBC4"/>
<path d="M9.9276 45C9.7251 45 9.53385 44.9325 9.3651 44.7975C9.0051 44.4937 8.9601 43.9425 9.2751 43.5825C11.6152 40.8488 10.8389 35.7187 10.8277 35.6625C10.7939 35.415 10.8614 35.1562 11.0189 34.965C11.3227 34.6162 11.9189 34.5712 12.2564 34.8862C12.8414 35.415 13.3927 35.8875 13.9664 36.3263C16.1939 38.0588 19.3102 38.0588 21.5489 36.3263C22.1114 35.8875 22.6739 35.415 23.2589 34.8862C23.6077 34.5712 24.1926 34.6162 24.4964 34.965C24.6651 35.1562 24.7326 35.415 24.6989 35.6625C24.6989 35.7187 23.9002 40.8262 26.3302 43.5712C26.6452 43.9312 26.6114 44.4713 26.2627 44.7863C25.9027 45.1013 25.3627 45.0675 25.0477 44.7187C23.1689 42.6037 22.8314 39.5437 22.8427 37.5187C22.7639 37.5862 22.6852 37.6425 22.6064 37.6987C19.7602 39.915 15.7664 39.915 12.9202 37.6987C12.8414 37.6425 12.7627 37.575 12.6839 37.5187C12.7064 39.5437 12.3914 42.6038 10.5802 44.7075C10.4114 44.91 10.1639 45.0112 9.9276 45.0112V45Z" fill="#EFDBC4"/>
<path d="M38.7842 45H3.05422C2.58172 45 2.19922 44.6175 2.19922 44.145C2.19922 43.6725 2.58172 43.29 3.05422 43.29H38.7954C39.2679 43.29 39.6505 43.6725 39.6505 44.145C39.6505 44.6175 39.2679 45 38.7954 45H38.7842Z" fill="#EFDBC4"/>
<path d="M8.92403 21.4649C8.80028 21.4649 8.66528 21.4424 8.54153 21.3749C8.11403 21.1612 7.94528 20.6437 8.14778 20.2274L8.74403 19.0349C8.95778 18.6074 9.47528 18.4387 9.89153 18.6412C10.319 18.8549 10.4877 19.3724 10.2852 19.7887L9.70028 20.9812C9.55403 21.2849 9.25028 21.4649 8.92403 21.4649Z" fill="#EFDBC4"/>
<path d="M11.4696 22.6463C11.4696 22.6463 11.3796 22.6463 11.3346 22.6463C10.8621 22.5788 10.5471 22.1401 10.6146 21.6676L10.8958 19.8451C10.9633 19.3726 11.4021 19.0576 11.8746 19.1251C12.3471 19.1926 12.6621 19.6313 12.5946 20.1038L12.3133 21.9263C12.2458 22.3538 11.8858 22.6576 11.4583 22.6576L11.4696 22.6463Z" fill="#EFDBC4"/>
<path d="M14.4141 22.0501C14.0316 22.0501 13.6828 21.7913 13.5816 21.4088L13.2441 20.1263C13.1203 19.6651 13.4016 19.1926 13.8516 19.0688C14.3128 18.9451 14.7853 19.2263 14.9091 19.6763L15.2466 20.9588C15.3703 21.4201 15.1003 21.8926 14.6391 22.0163C14.5603 22.0388 14.4928 22.0501 14.4141 22.0501Z" fill="#EFDBC4"/>
<path d="M1.21925 17.3025C1.15175 17.3025 1.0955 17.3025 1.028 17.28C0.566752 17.1787 0.274252 16.7175 0.375502 16.245C2.738 5.8275 12.008 1.38375 14.798 0.27C15.473 0 16.2155 -0.0675 16.9243 0.0675C19.928 0.66375 30.1205 3.4425 35.2505 14.5125C35.453 14.94 35.2618 15.4575 34.8343 15.66C34.4068 15.8625 33.8893 15.6713 33.6868 15.2438C28.9055 4.91625 19.3993 2.30625 16.598 1.755C16.2043 1.67625 15.7993 1.72125 15.428 1.8675C12.8405 2.9025 4.23425 7.02 2.05175 16.6388C1.96175 17.0438 1.60175 17.3138 1.208 17.3138L1.21925 17.3025Z" fill="#EFDBC4"/>
<path d="M28.1534 33.5588C25.1722 33.5588 22.7422 31.1288 22.7422 28.1476C22.7422 25.1663 25.1722 22.7363 28.1534 22.7363C31.1347 22.7363 33.5647 25.1663 33.5647 28.1476C33.5647 31.1288 31.1347 33.5588 28.1534 33.5588ZM28.1534 24.4463C26.1172 24.4463 24.4634 26.1001 24.4634 28.1363C24.4634 30.1726 26.1172 31.8263 28.1534 31.8263C30.1897 31.8263 31.8434 30.1726 31.8434 28.1363C31.8434 26.1001 30.1897 24.4463 28.1534 24.4463Z" fill="#EFDBC4"/>
<path d="M28.1519 26.0099C27.6794 26.0099 27.2969 25.6274 27.2969 25.1549V21.7349C27.2969 21.2624 27.6794 20.8799 28.1519 20.8799C28.6244 20.8799 29.0069 21.2624 29.0069 21.7349V25.1549C29.0069 25.6274 28.6244 26.0099 28.1519 26.0099Z" fill="#EFDBC4"/>
<path d="M34.5539 28.8562H31.1339C30.6614 28.8562 30.2676 28.4737 30.2676 28.0012C30.2676 27.5287 30.6501 27.1462 31.1339 27.1462H34.5539C35.0264 27.1462 35.4089 27.5287 35.4089 28.0012C35.4089 28.4737 35.0264 28.8562 34.5539 28.8562Z" fill="#EFDBC4"/>
<path d="M28.1519 35.4037C27.6794 35.4037 27.2969 35.0212 27.2969 34.5487V31.1287C27.2969 30.6562 27.6794 30.2737 28.1519 30.2737C28.6244 30.2737 29.0069 30.6562 29.0069 31.1287V34.5487C29.0069 35.0212 28.6244 35.4037 28.1519 35.4037Z" fill="#EFDBC4"/>
<path d="M25.1578 29.1375H21.7378C21.2653 29.1375 20.8828 28.755 20.8828 28.2825C20.8828 27.81 21.2653 27.4275 21.7378 27.4275H25.1578C25.6303 27.4275 26.0128 27.81 26.0128 28.2825C26.0128 28.755 25.6303 29.1375 25.1578 29.1375Z" fill="#EFDBC4"/>
</g>
</g>
<defs>
<clipPath id="clip0_718_322">
<rect width="40" height="45" fill="white"/>
</clipPath>
</defs>
</svg>
