<svg width="49" height="45" viewBox="0 0 49 45" fill="none" xmlns="http://www.w3.org/2000/svg">
<g clip-path="url(#clip0_718_379)">
<mask id="mask0_718_379" style="mask-type:luminance" maskUnits="userSpaceOnUse" x="0" y="0" width="49" height="45">
<path d="M48.1867 0H0.8125V45H48.1867V0Z" fill="white"/>
</mask>
<g mask="url(#mask0_718_379)">
<path d="M22.1804 45.0001C10.395 45.0001 0.8125 35.4175 0.8125 23.6443C0.8125 11.8711 10.395 2.27637 22.1804 2.27637C23.9305 2.27637 25.6683 2.48442 27.3572 2.91276C27.8467 3.03514 28.1405 3.52467 28.0181 4.00196C27.8957 4.49149 27.4062 4.78521 26.9289 4.66282C25.3868 4.28344 23.7959 4.08763 22.1927 4.08763C11.3863 4.08763 2.62376 12.8624 2.62376 23.6443C2.62376 34.4262 11.3985 43.201 22.1804 43.201C32.9623 43.201 41.7371 34.4262 41.7371 23.6443C41.7371 23.1426 42.141 22.7387 42.6428 22.7387C43.1445 22.7387 43.5484 23.1426 43.5484 23.6443C43.5484 35.4175 33.9659 45.0123 22.1804 45.0123V45.0001Z" fill="#EFDBC4"/>
<path d="M22.1811 14.796C21.6793 14.796 21.2754 14.3921 21.2754 13.8903V10.121C21.2754 9.61919 21.6793 9.21533 22.1811 9.21533C22.6828 9.21533 23.0867 9.61919 23.0867 10.121V13.8903C23.0867 14.3921 22.6828 14.796 22.1811 14.796Z" fill="#EFDBC4"/>
<path d="M35.6907 24.5498H31.9213C31.4195 24.5498 31.0156 24.1459 31.0156 23.6442C31.0156 23.1424 31.4195 22.7385 31.9213 22.7385H35.6907C36.1924 22.7385 36.5963 23.1424 36.5963 23.6442C36.5963 24.1459 36.1924 24.5498 35.6907 24.5498Z" fill="#EFDBC4"/>
<path d="M31.7392 34.1079C31.5066 34.1079 31.2741 34.0222 31.1028 33.8386L29.3405 32.0763C28.9855 31.7214 28.9855 31.1462 29.3405 30.8035C29.6954 30.4486 30.2706 30.4486 30.6255 30.8035L32.3878 32.5658C32.7427 32.9208 32.7427 33.4959 32.3878 33.8509C32.2164 34.0222 31.9839 34.1201 31.7514 34.1201L31.7392 34.1079Z" fill="#EFDBC4"/>
<path d="M22.1811 38.0609C21.6793 38.0609 21.2754 37.657 21.2754 37.1552V33.3859C21.2754 32.8841 21.6793 32.4802 22.1811 32.4802C22.6828 32.4802 23.0867 32.8841 23.0867 33.3859V37.1552C23.0867 37.657 22.6828 38.0609 22.1811 38.0609Z" fill="#EFDBC4"/>
<path d="M12.6096 34.1079C12.3771 34.1079 12.1445 34.0222 11.9732 33.8386C11.6183 33.4837 11.6183 32.9085 11.9732 32.5536L13.7355 30.7913C14.0904 30.4364 14.6656 30.4364 15.0205 30.7913C15.3754 31.1462 15.3754 31.7214 15.0205 32.0641L13.2582 33.8264C13.0869 33.9977 12.8543 34.0957 12.6218 34.0957L12.6096 34.1079Z" fill="#EFDBC4"/>
<path d="M12.427 24.5498H8.65758C8.15581 24.5498 7.75195 24.1459 7.75195 23.6442C7.75195 23.1424 8.15581 22.7385 8.65758 22.7385H12.427C12.9287 22.7385 13.3326 23.1424 13.3326 23.6442C13.3326 24.1459 12.9287 24.5498 12.427 24.5498Z" fill="#EFDBC4"/>
<path d="M14.3856 16.7541C14.1531 16.7541 13.9205 16.6684 13.7492 16.4849L11.9869 14.7226C11.632 14.3676 11.632 13.7924 11.9869 13.4498C12.3418 13.0949 12.917 13.0949 13.2719 13.4498L15.0342 15.2121C15.3891 15.567 15.3891 16.1422 15.0342 16.4849C14.8629 16.6562 14.6304 16.7541 14.3978 16.7541H14.3856Z" fill="#EFDBC4"/>
<path d="M22.1803 41.3409C17.4564 41.3409 13.0139 39.5051 9.67287 36.1641C2.7705 29.2617 2.7705 18.0393 9.67287 11.1369C13.8706 6.93919 19.8551 5.12793 25.6805 6.30281C26.17 6.40071 26.4882 6.878 26.3903 7.36753C26.2924 7.85706 25.8151 8.17526 25.3256 8.07735C20.0876 7.02486 14.715 8.65255 10.9456 12.4219C4.7531 18.6145 4.7531 28.6988 10.9456 34.8913C13.944 37.8897 17.9337 39.5419 22.1803 39.5419C26.427 39.5419 30.4167 37.8897 33.415 34.8913C36.2543 32.0521 37.9065 28.2704 38.0533 24.2563C38.0778 23.7545 38.4817 23.3751 38.9957 23.3874C39.4974 23.4119 39.8891 23.828 39.8646 24.3297C39.6933 28.7967 37.8575 33.0066 34.7001 36.1763C31.359 39.5174 26.9165 41.3531 22.1926 41.3531L22.1803 41.3409Z" fill="#EFDBC4"/>
<path d="M22.1808 26.8262C21.3609 26.8262 20.5531 26.5202 19.929 25.8961C18.6929 24.66 18.6929 22.6407 19.929 21.3924C21.1651 20.1563 23.1844 20.1563 24.4327 21.3924C25.681 22.6284 25.6687 24.6478 24.4327 25.8961C23.8085 26.5202 23.0008 26.8262 22.1808 26.8262ZM22.1808 22.2735C21.8259 22.2735 21.471 22.4082 21.214 22.6774C20.6755 23.2159 20.6755 24.0848 21.214 24.6233C21.7525 25.1618 22.6214 25.1618 23.1599 24.6233C23.6984 24.0848 23.6984 23.2159 23.1599 22.6774C22.8907 22.4082 22.5357 22.2735 22.1808 22.2735Z" fill="#EFDBC4"/>
<path d="M22.1811 22.2614C21.6793 22.2614 21.2754 21.8575 21.2754 21.3557V18.1371C21.2754 17.6353 21.6793 17.2314 22.1811 17.2314C22.6828 17.2314 23.0867 17.6353 23.0867 18.1371V21.3557C23.0867 21.8575 22.6828 22.2614 22.1811 22.2614Z" fill="#EFDBC4"/>
<path d="M29.0213 24.5498H24.4564C23.9547 24.5498 23.5508 24.1459 23.5508 23.6442C23.5508 23.1424 23.9547 22.7385 24.4564 22.7385H29.0213C29.5231 22.7385 29.9269 23.1424 29.9269 23.6442C29.9269 24.1459 29.5231 24.5498 29.0213 24.5498Z" fill="#EFDBC4"/>
<path d="M43.5486 12.3361C43.1936 12.3361 42.8387 12.2994 42.4838 12.2137C42.031 12.1036 41.7373 11.6752 41.7985 11.2224C41.823 11.0756 41.8352 10.9165 41.8352 10.7574C41.8352 9.63145 41.3212 8.5912 40.4156 7.90585C40.2075 7.74676 40.0851 7.51423 40.0607 7.25723C40.0362 7.00022 40.1219 6.75546 40.3054 6.55965C40.8072 6.0334 41.0764 5.34806 41.0764 4.62601C41.0764 4.54034 41.0764 4.45467 41.0642 4.369C41.0275 3.98962 41.2355 3.63471 41.5782 3.47561C43.7688 2.4476 46.3389 3.26756 47.5505 5.3603C48.8355 7.57542 48.0645 10.4269 45.8493 11.6997C45.1395 12.1036 44.344 12.3239 43.5363 12.3239L43.5486 12.3361ZM42.1779 7.07365C43.059 8.016 43.573 9.22758 43.622 10.5248C44.087 10.5126 44.5399 10.378 44.9437 10.1455C46.3022 9.3622 46.7672 7.62437 45.984 6.27817C45.3476 5.18897 44.0626 4.66272 42.8632 4.9442C42.8143 5.70297 42.5695 6.43727 42.1779 7.07365Z" fill="#EFDBC4"/>
<path d="M43.536 18.4553C42.7528 18.4553 41.9573 18.2595 41.223 17.8311C40.2072 17.2437 39.4484 16.2891 39.1058 15.1632C38.9711 14.7226 39.1914 14.2453 39.6198 14.0617C40.7946 13.5722 41.6391 12.4708 41.7982 11.2102C41.8349 10.9532 41.9695 10.7329 42.1776 10.5861C42.3856 10.4392 42.6548 10.3903 42.8996 10.4515C43.6094 10.6228 44.3437 10.5127 44.9556 10.1577C45.0291 10.121 45.1025 10.0721 45.1637 10.0231C45.4696 9.80285 45.8857 9.80285 46.2039 10.0231C48.1865 11.4183 48.774 14.0495 47.5624 16.1422C46.7057 17.6231 45.1392 18.4675 43.536 18.4675V18.4553ZM41.1373 15.31C41.3821 15.7017 41.7125 16.0321 42.1286 16.2646C42.7895 16.644 43.5482 16.7419 44.2825 16.5461C45.0168 16.3503 45.6287 15.8852 46.0081 15.2244C46.6445 14.1229 46.4487 12.7523 45.6043 11.8589C44.9189 12.1893 44.1724 12.3484 43.4136 12.3239C43.0342 13.5477 42.2387 14.6125 41.1495 15.2978L41.1373 15.31Z" fill="#EFDBC4"/>
<path d="M38.2379 21.5149C35.6801 21.5149 33.5996 19.4344 33.5996 16.8766C33.5996 15.7017 34.0402 14.5635 34.8602 13.7069C35.1784 13.3642 35.7046 13.3275 36.0717 13.609C37.0875 14.3922 38.4582 14.5635 39.6331 14.074C39.8656 13.9761 40.1348 13.9761 40.3674 14.0863C40.5999 14.1964 40.7712 14.3922 40.8447 14.637C41.0527 15.3346 41.5055 15.9098 42.1297 16.2647C42.2031 16.3014 42.2765 16.3381 42.35 16.3748C42.6926 16.5339 42.9007 16.8888 42.864 17.2682C42.6559 19.6791 40.6611 21.5026 38.2379 21.5026V21.5149ZM35.7413 15.5426C35.521 15.9465 35.3986 16.4115 35.3986 16.8766C35.3986 18.4431 36.6714 19.7158 38.2379 19.7158C39.4985 19.7158 40.5999 18.8592 40.9548 17.6843C40.3184 17.256 39.8166 16.693 39.4495 16.0199C38.2012 16.3136 36.8672 16.1423 35.7413 15.5426Z" fill="#EFDBC4"/>
<path d="M40.9662 8.10165C40.7704 8.10165 40.5746 8.04046 40.4155 7.91808C39.3997 7.13483 38.0168 6.9635 36.8542 7.45302C36.6216 7.55093 36.3524 7.55093 36.1199 7.44079C35.8873 7.33064 35.716 7.13483 35.6426 6.89007C35.4345 6.19249 34.9817 5.61729 34.3576 5.26238C34.2841 5.22567 34.2107 5.18895 34.1373 5.15224C33.7946 4.99314 33.5865 4.63823 33.6233 4.25884C33.8313 1.84791 35.8261 0.0244141 38.2493 0.0244141C40.8071 0.0244141 42.8876 2.10491 42.8876 4.66271C42.8876 5.83758 42.4348 6.9635 41.6271 7.83241C41.4557 8.01598 41.211 8.11389 40.9662 8.11389V8.10165ZM38.2371 5.37252C39.1182 5.37252 39.9627 5.58057 40.7337 5.98444C40.954 5.58057 41.0764 5.11552 41.0764 4.65047C41.0764 3.08397 39.8036 1.8112 38.2371 1.8112C36.9765 1.8112 35.8751 2.66787 35.5202 3.84274C36.1566 4.25884 36.6583 4.83404 37.0255 5.50714C37.4171 5.40924 37.8332 5.37252 38.2371 5.37252Z" fill="#EFDBC4"/>
<path d="M30.7958 11.663C30.6122 11.663 30.4286 11.6018 30.2818 11.5039C28.2992 10.1088 27.7117 7.47753 28.9233 5.38479C30.2083 3.16967 33.0476 2.4109 35.2627 3.68368C36.2785 4.27111 37.0373 5.22569 37.3799 6.35161C37.5146 6.79219 37.2943 7.26948 36.8659 7.45305C35.6911 7.94258 34.8466 9.03179 34.6875 10.3046C34.6508 10.5616 34.5162 10.7819 34.3081 10.9287C34.1001 11.0756 33.8309 11.1245 33.5861 11.0633C32.8763 10.892 32.1542 11.0021 31.5301 11.3571C31.4566 11.3938 31.3832 11.4427 31.322 11.4917C31.1629 11.6018 30.9916 11.6508 30.808 11.6508L30.7958 11.663ZM32.9497 4.87078C31.9706 4.87078 31.0161 5.38479 30.4898 6.29042C29.8534 7.37962 30.0492 8.76254 30.8937 9.65594C31.579 9.3255 32.3255 9.15417 33.0843 9.19088C33.4637 7.96706 34.2592 6.90233 35.3484 6.21699C35.1036 5.82537 34.7732 5.49494 34.3571 5.26241C33.9165 5.00541 33.427 4.88302 32.9497 4.88302V4.87078Z" fill="#EFDBC4"/>
<path d="M32.9253 18.4675C31.3221 18.4675 29.7801 17.6231 28.9234 16.1422C28.2993 15.0653 28.1402 13.817 28.4584 12.6176C28.7766 11.4183 29.5476 10.4148 30.6246 9.80284C31.6526 9.21541 32.8397 9.03183 34.0023 9.30107C34.4551 9.41122 34.7488 9.83956 34.6877 10.2924C34.6632 10.4392 34.6509 10.5983 34.6509 10.7574C34.6509 11.8833 35.1649 12.9236 36.0706 13.6089C36.2786 13.768 36.401 14.0006 36.4255 14.2576C36.45 14.5146 36.3643 14.7593 36.1807 14.9551C35.679 15.4814 35.4097 16.1667 35.4097 16.8888C35.4097 16.9744 35.4097 17.0601 35.422 17.1335C35.4587 17.5129 35.2506 17.8678 34.9079 18.0269C34.2716 18.3207 33.5985 18.4675 32.9376 18.4675H32.9253ZM32.8519 10.9899C32.3869 11.0022 31.9341 11.1246 31.5302 11.3693C30.8693 11.7487 30.4043 12.3606 30.2085 13.0949C30.0126 13.8292 30.1106 14.588 30.4899 15.2489C31.1263 16.3381 32.4113 16.8643 33.6107 16.5828C33.6596 15.8241 33.9044 15.0898 34.296 14.4534C33.4149 13.511 32.9009 12.2994 32.8519 11.0022V10.9899Z" fill="#EFDBC4"/>
<path d="M38.2367 13.3887C36.7926 13.3887 35.6055 12.2138 35.6055 10.7574C35.6055 10.2557 36.0094 9.85181 36.5111 9.85181C37.0129 9.85181 37.4168 10.2557 37.4168 10.7574C37.4168 11.2103 37.7839 11.5774 38.2367 11.5774C38.6895 11.5774 39.0567 11.2103 39.0567 10.7574C39.0567 10.3046 38.6895 9.93748 38.2367 9.93748C37.735 9.93748 37.3311 9.53362 37.3311 9.03185C37.3311 8.53008 37.735 8.12622 38.2367 8.12622C39.6808 8.12622 40.8679 9.30109 40.8679 10.7574C40.8679 12.2138 39.6931 13.3887 38.2367 13.3887Z" fill="#EFDBC4"/>
</g>
</g>
<defs>
<clipPath id="clip0_718_379">
<rect width="49" height="45" fill="white"/>
</clipPath>
</defs>
</svg>
