<svg width="46" height="45" viewBox="0 0 46 45" fill="none" xmlns="http://www.w3.org/2000/svg">
<g clip-path="url(#clip0_24_484)">
<path d="M13.0663 8.01002C13.4263 7.96502 13.685 7.63877 13.64 7.27877C13.4713 5.86127 13.4263 4.68002 13.415 3.93752C13.415 3.81377 13.5163 3.72377 13.6288 3.71252C18.815 3.62252 21.65 2.18252 22.865 1.33877C22.9438 1.28252 23.0338 1.28252 23.1125 1.33877C24.3388 2.18252 27.1625 3.62252 32.3488 3.71252C32.4725 3.71252 32.5738 3.81377 32.5625 3.93752C32.5513 5.41127 32.3713 9.27002 31.0438 13.0613C29.4463 17.6288 26.7575 20.6325 23.0675 22.005C23.0113 22.0275 22.955 22.0275 22.91 22.005C17.2963 19.935 15.0125 14.355 14.09 10.0463C14.0113 9.68627 13.6625 9.46127 13.3025 9.54002C12.9425 9.61877 12.7175 9.96752 12.7963 10.3275C13.7975 14.9625 16.2725 20.97 22.4488 23.2425C22.6175 23.31 22.8088 23.3438 22.9888 23.3438C23.1688 23.3438 23.3488 23.31 23.5288 23.2425C27.6125 21.735 30.56 18.4613 32.2925 13.5C33.6313 9.66377 33.8675 5.87252 33.89 3.94877C33.89 3.10502 33.215 2.40752 32.3713 2.39627C27.3425 2.30627 24.7438 0.87752 23.855 0.25877C23.3375 -0.10123 22.6288 -0.10123 22.1113 0.25877C19.4563 2.10377 15.2713 2.36252 13.595 2.39627C12.7513 2.40752 12.0763 3.10502 12.0763 3.94877C12.0763 4.71377 12.1325 5.95127 12.3125 7.42502C12.3575 7.78502 12.6838 8.04377 13.0438 7.99877L13.0663 8.01002Z" fill="#000"/>
<path d="M24.1475 5.99634H21.8637C21.2562 5.99634 20.7612 6.49134 20.7612 7.09884V8.58384H19.2762C18.6687 8.58384 18.1737 9.07884 18.1737 9.68634V11.9701C18.1737 12.5776 18.6687 13.0726 19.2762 13.0726H20.7612V14.5576C20.7612 15.1651 21.2562 15.6601 21.8637 15.6601H24.1475C24.755 15.6601 25.25 15.1651 25.25 14.5576V13.0726H26.735C27.3425 13.0726 27.8375 12.5776 27.8375 11.9701V9.68634C27.8375 9.07884 27.3425 8.58384 26.735 8.58384H25.25V7.09884C25.25 6.49134 24.755 5.99634 24.1475 5.99634ZM26.51 9.90009V11.7451H24.5862C24.2262 11.7451 23.9225 12.0376 23.9225 12.4088V14.3326H22.0775V12.4088C22.0775 12.0488 21.785 11.7451 21.4137 11.7451H19.49V9.90009H21.4137C21.7737 9.90009 22.0775 9.60759 22.0775 9.23634V7.31259H23.9225V9.23634C23.9225 9.59634 24.215 9.90009 24.5862 9.90009H26.51Z" fill="#000"/>
<path d="M32.8325 17.4825C32.5175 17.6175 32.3037 17.9213 32.3037 18.2588C32.3037 18.5963 32.5062 18.9113 32.8212 19.035L33.4737 19.305C34.7562 19.8338 35.7912 20.8688 36.32 22.1513L36.59 22.8038C36.725 23.1188 37.0287 23.3325 37.3662 23.3325C37.7037 23.3325 38.0187 23.13 38.1425 22.815L38.4125 22.1625C38.9412 20.88 39.9762 19.845 41.2587 19.3163L41.9112 19.0463C42.2262 18.9113 42.44 18.6075 42.44 18.27C42.44 17.9325 42.2375 17.6175 41.9112 17.4938L41.2587 17.2238C39.9762 16.695 38.9412 15.66 38.4125 14.3775L38.1425 13.725C38.0075 13.41 37.7037 13.1963 37.3662 13.1963C37.0287 13.1963 36.7137 13.3988 36.59 13.7138L36.32 14.3663C35.7912 15.6488 34.7562 16.6838 33.4737 17.2125L32.8212 17.4825H32.8325ZM37.3887 15.2438C38.03 16.5488 39.0987 17.6288 40.4037 18.2588C39.0987 18.9 38.0187 19.9688 37.3887 21.2738C36.7475 19.9688 35.6787 18.8888 34.3737 18.2588C35.6787 17.6175 36.7587 16.5488 37.3887 15.2438Z" fill="#000"/>
<path d="M4.06623 19.0463L4.71873 19.3163C6.00123 19.845 7.03623 20.88 7.56498 22.1625L7.83498 22.815C7.96998 23.13 8.27373 23.3438 8.61123 23.3438C8.94873 23.3438 9.26373 23.1413 9.38748 22.8263L9.65748 22.1738C10.1862 20.8913 11.2212 19.8563 12.5037 19.3275L13.1562 19.0575C13.4712 18.9225 13.685 18.6188 13.685 18.2813C13.685 17.9438 13.4825 17.6288 13.1562 17.505L12.5037 17.235C11.2212 16.7063 10.1862 15.6713 9.65748 14.3888L9.38748 13.7363C9.25248 13.4213 8.94873 13.2075 8.61123 13.2075C8.27373 13.2075 7.95873 13.41 7.83498 13.725L7.56498 14.3775C7.03623 15.66 6.00123 16.695 4.71873 17.2238L4.06623 17.4938C3.75123 17.6288 3.53748 17.9325 3.53748 18.27C3.53748 18.6075 3.73998 18.9225 4.05498 19.0463H4.06623ZM8.62248 15.2438C9.26372 16.5488 10.3325 17.6288 11.6375 18.2588C10.3325 18.9 9.25248 19.9688 8.62248 21.2738C7.98123 19.9688 6.91248 18.8888 5.60748 18.2588C6.91248 17.6175 7.99248 16.5488 8.62248 15.2438Z" fill="#000"/>
<path d="M43.9588 24.9639H38.1538C37.7938 24.9639 37.49 25.2564 37.49 25.6276C37.49 25.9989 37.7825 26.2914 38.1538 26.2914H43.9588C44.0825 26.2914 44.1838 26.3926 44.1838 26.5164V28.8339H12.4362C12.0763 28.8339 11.7725 29.1264 11.7725 29.4976C11.7725 29.8689 12.065 30.1614 12.4362 30.1614H44.1838V32.4901C43.1263 32.8276 42.575 33.9414 42.0688 34.9539C41.5063 36.0901 41.1125 36.7876 40.4712 36.7876C39.83 36.7876 39.4475 36.0901 38.8737 34.9539C38.2775 33.7501 37.6025 32.3889 36.095 32.3889C34.5875 32.3889 33.9125 33.7501 33.3162 34.9539C32.7537 36.0901 32.36 36.7876 31.7188 36.7876C31.0775 36.7876 30.695 36.0901 30.1213 34.9539C29.525 33.7501 28.85 32.3889 27.3425 32.3889C25.835 32.3889 25.16 33.7501 24.5637 34.9539C24.0012 36.0901 23.6075 36.7876 22.9662 36.7876C22.325 36.7876 21.9425 36.0901 21.3687 34.9539C20.7725 33.7501 20.0975 32.3889 18.59 32.3889C17.0825 32.3889 16.4075 33.7501 15.8112 34.9539C15.2487 36.0901 14.855 36.7876 14.2137 36.7876C13.5725 36.7876 13.19 36.0901 12.6163 34.9539C12.02 33.7501 11.345 32.3889 9.8375 32.3889C8.33 32.3889 7.655 33.7501 7.05875 34.9539C6.49625 36.0901 6.1025 36.7876 5.46125 36.7876C4.82 36.7876 4.4375 36.0901 3.86375 34.9539C3.3575 33.9414 2.80625 32.8276 1.74875 32.4901V30.1614H9.48875C9.84875 30.1614 10.1525 29.8689 10.1525 29.4976C10.1525 29.1264 9.86 28.8339 9.48875 28.8339H1.81625V26.5164C1.81625 26.3926 1.9175 26.2914 2.04125 26.2914H35.2738C35.6338 26.2914 35.9375 25.9989 35.9375 25.6276C35.9375 25.2564 35.645 24.9639 35.2738 24.9639H2.04125C1.1975 24.9639 0.5 25.6501 0.5 26.5051V39.0714C0.5 42.3451 3.16625 45.0001 6.42875 45.0001H39.56C42.8338 45.0001 45.4888 42.3339 45.4888 39.0714V26.5051C45.4888 25.6614 44.8025 24.9639 43.9475 24.9639H43.9588ZM39.56 43.6839H6.42875C3.88625 43.6839 1.81625 41.6139 1.81625 39.0714V33.9864C2.13125 34.2901 2.40125 34.8189 2.75 35.5164C3.34625 36.7201 4.02125 38.0814 5.52875 38.0814C7.03625 38.0814 7.71125 36.7201 8.3075 35.5164C8.87 34.3801 9.26375 33.6826 9.905 33.6826C10.5462 33.6826 10.9288 34.3801 11.5025 35.5164C12.0988 36.7201 12.7738 38.0814 14.2812 38.0814C15.7887 38.0814 16.4637 36.7201 17.06 35.5164C17.6225 34.3801 18.0162 33.6826 18.6575 33.6826C19.2987 33.6826 19.6812 34.3801 20.255 35.5164C20.8512 36.7201 21.5263 38.0814 23.0338 38.0814C24.5413 38.0814 25.2162 36.7201 25.8125 35.5164C26.375 34.3801 26.7687 33.6826 27.41 33.6826C28.0513 33.6826 28.4338 34.3801 29.0075 35.5164C29.6038 36.7201 30.2787 38.0814 31.7862 38.0814C33.2938 38.0814 33.9688 36.7201 34.565 35.5164C35.1275 34.3801 35.5213 33.6826 36.1625 33.6826C36.8037 33.6826 37.1862 34.3801 37.76 35.5164C38.3562 36.7201 39.0312 38.0814 40.5387 38.0814C42.0462 38.0814 42.7213 36.7201 43.3175 35.5164C43.6663 34.8189 43.9475 34.2901 44.2513 33.9864V39.0714C44.2513 41.6139 42.1813 43.6839 39.6388 43.6839H39.56Z" fill="#000"/>
<path d="M41.0225 39.0825H39.92C39.56 39.0825 39.2562 39.375 39.2562 39.7463C39.2562 40.1175 39.5487 40.41 39.92 40.41H41.0225C41.3825 40.41 41.6862 40.1175 41.6862 39.7463C41.6862 39.375 41.3937 39.0825 41.0225 39.0825Z" fill="#000"/>
<path d="M32.2925 39.0825H31.19C30.83 39.0825 30.5262 39.375 30.5262 39.7463C30.5262 40.1175 30.8187 40.41 31.19 40.41H32.2925C32.6525 40.41 32.9562 40.1175 32.9562 39.7463C32.9562 39.375 32.6637 39.0825 32.2925 39.0825Z" fill="#000"/>
<path d="M23.5513 39.0825H22.4488C22.0888 39.0825 21.785 39.375 21.785 39.7463C21.785 40.1175 22.0775 40.41 22.4488 40.41H23.5513C23.9113 40.41 24.215 40.1175 24.215 39.7463C24.215 39.375 23.9225 39.0825 23.5513 39.0825Z" fill="#000"/>
<path d="M14.81 39.0825H13.7075C13.3475 39.0825 13.0437 39.375 13.0437 39.7463C13.0437 40.1175 13.3362 40.41 13.7075 40.41H14.81C15.17 40.41 15.4737 40.1175 15.4737 39.7463C15.4737 39.375 15.1812 39.0825 14.81 39.0825Z" fill="#000"/>
<path d="M6.07997 39.0825H4.97747C4.61747 39.0825 4.31372 39.375 4.31372 39.7463C4.31372 40.1175 4.60622 40.41 4.97747 40.41H6.07997C6.43997 40.41 6.74372 40.1175 6.74372 39.7463C6.74372 39.375 6.45122 39.0825 6.07997 39.0825Z" fill="#000"/>
<path d="M36.6575 40.9612H35.555C35.195 40.9612 34.8912 41.2537 34.8912 41.6249C34.8912 41.9962 35.1837 42.2887 35.555 42.2887H36.6575C37.0175 42.2887 37.3212 41.9962 37.3212 41.6249C37.3212 41.2537 37.0287 40.9612 36.6575 40.9612Z" fill="#000"/>
<path d="M27.9163 40.9612H26.8138C26.4538 40.9612 26.15 41.2537 26.15 41.6249C26.15 41.9962 26.4425 42.2887 26.8138 42.2887H27.9163C28.2763 42.2887 28.58 41.9962 28.58 41.6249C28.58 41.2537 28.2875 40.9612 27.9163 40.9612Z" fill="#000"/>
<path d="M19.1863 40.9612H18.0838C17.7238 40.9612 17.42 41.2537 17.42 41.6249C17.42 41.9962 17.7125 42.2887 18.0838 42.2887H19.1863C19.5463 42.2887 19.85 41.9962 19.85 41.6249C19.85 41.2537 19.5575 40.9612 19.1863 40.9612Z" fill="#000"/>
<path d="M10.445 40.9612H9.34246C8.98246 40.9612 8.67871 41.2537 8.67871 41.6249C8.67871 41.9962 8.97121 42.2887 9.34246 42.2887H10.445C10.805 42.2887 11.1087 41.9962 11.1087 41.6249C11.1087 41.2537 10.8162 40.9612 10.445 40.9612Z" fill="#000"/>
<path d="M9.89371 37.3612C10.2537 37.3612 10.5575 37.0687 10.5575 36.6974C10.5575 36.3262 10.265 36.0337 9.89371 36.0337C9.53371 36.0337 9.24121 36.3262 9.24121 36.6974C9.24121 37.0687 9.54496 37.3612 9.90496 37.3612H9.89371Z" fill="#000"/>
<path d="M18.635 37.3612C18.995 37.3612 19.2988 37.0687 19.2988 36.6974C19.2988 36.3262 19.0063 36.0337 18.635 36.0337C18.275 36.0337 17.9825 36.3262 17.9825 36.6974C17.9825 37.0687 18.2863 37.3612 18.6463 37.3612H18.635Z" fill="#000"/>
<path d="M27.3763 37.3612C27.7363 37.3612 28.04 37.0687 28.04 36.6974C28.04 36.3262 27.7475 36.0337 27.3763 36.0337C27.0163 36.0337 26.7238 36.3262 26.7238 36.6974C26.7238 37.0687 27.0275 37.3612 27.3875 37.3612H27.3763Z" fill="#000"/>
<path d="M36.1175 37.3612C36.4775 37.3612 36.7812 37.0687 36.7812 36.6974C36.7812 36.3262 36.4887 36.0337 36.1175 36.0337C35.7575 36.0337 35.465 36.3262 35.465 36.6974C35.465 37.0687 35.7687 37.3612 36.1287 37.3612H36.1175Z" fill="#000"/>
<path d="M5.51749 33.0637C5.15749 33.0637 4.86499 33.3562 4.86499 33.7275C4.86499 34.0987 5.16874 34.3912 5.52874 34.3912C5.88874 34.3912 6.19249 34.0987 6.19249 33.7275C6.19249 33.3562 5.89999 33.0637 5.52874 33.0637H5.51749Z" fill="#000"/>
<path d="M14.2701 34.38C14.6301 34.38 14.9338 34.0875 14.9338 33.7162C14.9338 33.345 14.6413 33.0525 14.2701 33.0525C13.9101 33.0525 13.6176 33.345 13.6176 33.7162C13.6176 34.0875 13.9213 34.38 14.2813 34.38H14.2701Z" fill="#000"/>
<path d="M23 34.38C23.36 34.38 23.6638 34.0875 23.6638 33.7162C23.6638 33.345 23.3713 33.0525 23 33.0525C22.64 33.0525 22.3475 33.345 22.3475 33.7162C22.3475 34.0875 22.6513 34.38 23.0113 34.38H23Z" fill="#000"/>
<path d="M31.7412 34.38C32.1012 34.38 32.405 34.0875 32.405 33.7162C32.405 33.345 32.1125 33.0525 31.7412 33.0525C31.3812 33.0525 31.0887 33.345 31.0887 33.7162C31.0887 34.0875 31.3925 34.38 31.7525 34.38H31.7412Z" fill="#000"/>
<path d="M40.4825 34.38C40.8425 34.38 41.1462 34.0875 41.1462 33.7162C41.1462 33.345 40.8537 33.0525 40.4825 33.0525C40.1225 33.0525 39.83 33.345 39.83 33.7162C39.83 34.0875 40.1337 34.38 40.4937 34.38H40.4825Z" fill="#000"/>
</g>
<defs>
<clipPath id="clip0_24_484">
<rect width="45" height="45" fill="white" transform="translate(0.5)"/>
</clipPath>
</defs>
</svg>
