<svg width="85" height="27" viewBox="0 0 85 27" fill="none" xmlns="http://www.w3.org/2000/svg">
<path d="M50.0059 11.8371C49.2692 10.5289 48.2335 9.51927 46.93 8.8363C45.6334 8.15756 44.1458 7.81396 42.5067 7.81396C41.199 7.81396 39.9738 8.08434 38.8653 8.61804C37.9924 9.03767 37.2164 9.59531 36.5512 10.2783V9.32635C36.5512 8.94051 36.4348 8.6279 36.2032 8.39554C35.9717 8.16461 35.6601 8.04773 35.2756 8.04773C34.9163 8.04773 34.6119 8.1632 34.3705 8.38991C34.1249 8.62227 34 8.93769 34 9.32635V25.3894C34 25.7542 34.1221 26.0625 34.3635 26.3033C34.6049 26.5455 34.9108 26.6695 35.2756 26.6695C35.6629 26.6695 35.9774 26.5441 36.2089 26.2976C36.4362 26.0554 36.5512 25.7513 36.5512 25.3894V15.2942C36.5512 14.3901 36.8108 13.5522 37.323 12.8031C37.838 12.0483 38.5579 11.4485 39.4589 11.0218C40.3696 10.5909 41.3954 10.3726 42.5067 10.3726C44.3071 10.3726 45.7834 10.9007 46.8949 11.9442C48.0006 12.982 48.5619 14.5197 48.5619 16.515V25.388C48.5619 25.7528 48.684 26.0611 48.9254 26.3019C49.1668 26.5441 49.4726 26.6681 49.8375 26.6681C50.201 26.6681 50.5069 26.5455 50.7482 26.3033C50.9896 26.0611 51.1117 25.7528 51.1117 25.3894V16.5164C51.1117 14.714 50.7399 13.1396 50.0059 11.8371Z" fill="#5F3AAC"/>
<path d="M61.8888 24.4713C61.6812 24.2333 61.402 24.1079 61.0791 24.1079H60.2568C59.6759 24.1079 59.2114 23.8319 58.8381 23.2644C58.4452 22.6674 58.2445 21.883 58.2445 20.9339V1.60669C58.2445 1.22085 58.128 0.908238 57.8965 0.675888C57.6649 0.444947 57.3535 0.32666 56.969 0.32666C56.6097 0.32666 56.3052 0.442131 56.0638 0.670256C55.8183 0.902604 55.6934 1.21804 55.6934 1.60669V20.9353C55.6934 22.6012 56.1185 23.9826 56.9563 25.0415C57.8095 26.1216 58.9195 26.6679 60.2568 26.6679H60.915C61.3023 26.6679 61.6166 26.5427 61.8481 26.2962C62.0755 26.0554 62.1892 25.7498 62.1892 25.388C62.1906 25.0091 62.0881 24.7022 61.8888 24.4713Z" fill="#5F3AAC"/>
<path d="M68.6621 4.30183C69.0129 3.94979 69.1912 3.50904 69.1912 2.99223C69.1912 2.42474 69.0087 1.97413 68.6509 1.65447C68.3015 1.34326 67.8776 1.18555 67.3907 1.18555C66.9052 1.18555 66.4772 1.34185 66.118 1.65166C65.7461 1.97131 65.5566 2.42333 65.5566 2.99365C65.5566 3.50904 65.7278 3.94839 66.0647 4.30043C66.4042 4.65529 66.8393 4.83413 67.3571 4.83413C67.8721 4.83132 68.3113 4.65389 68.6621 4.30183Z" fill="#5F3AAC"/>
<path d="M67.3907 8.04492C67.0316 8.04492 66.727 8.16039 66.4856 8.38711C66.24 8.61946 66.1152 8.93489 66.1152 9.32355V25.3866C66.1152 25.7513 66.2372 26.0597 66.4786 26.3005C66.72 26.5427 67.0259 26.6653 67.3893 26.6653C67.7766 26.6653 68.0911 26.5399 68.3226 26.2935C68.5499 26.0526 68.6635 25.7472 68.6635 25.3852V9.32495C68.6635 8.93911 68.547 8.6265 68.3155 8.39415C68.0868 8.16181 67.7752 8.04492 67.3907 8.04492Z" fill="#5F3AAC"/>
<path d="M79.9901 4.16118C80.6624 3.16983 81.7233 2.68822 83.2359 2.68822C83.5924 2.68822 83.8941 2.5812 84.1341 2.36857C84.3811 2.15031 84.5116 1.85176 84.5116 1.50817C84.5116 1.16458 84.3811 0.866049 84.1341 0.647781C83.8941 0.435147 83.5924 0.328125 83.2359 0.328125C80.9626 0.328125 79.2268 1.0646 78.0789 2.51643C76.9464 3.94713 76.3725 5.89464 76.3725 8.30403V8.70677H74.0978C73.7569 8.70677 73.4719 8.81801 73.2531 9.0391C73.0327 9.26018 72.9219 9.54463 72.9219 9.88822C72.9219 10.2304 73.0327 10.5163 73.2531 10.7359C73.4733 10.957 73.7569 11.0683 74.0978 11.0683H76.3725V25.3908C76.3725 25.7555 76.4946 26.064 76.736 26.3048C76.9773 26.5469 77.2833 26.6708 77.6482 26.6708C78.0327 26.6708 78.3512 26.5483 78.5926 26.3062C78.8339 26.064 78.9559 25.7555 78.9559 25.3922V11.0655H83.0058C83.3469 11.0655 83.6317 10.9542 83.8521 10.7331C84.0723 10.5121 84.1832 10.2276 84.1832 9.88541C84.1832 9.54323 84.0723 9.25736 83.8521 9.03628C83.6317 8.81519 83.3483 8.70395 83.0072 8.70395H78.9573V8.30122C78.9559 6.56634 79.304 5.17365 79.9901 4.16118Z" fill="#5F3AAC"/>
<path d="M28.8641 10.7669L25.5103 8.28993C25.2522 8.09982 24.9476 8.03223 24.6529 8.09842C24.3568 8.16319 24.1098 8.3547 23.9555 8.63775L21.9642 12.3074C21.6611 12.8665 21.8225 13.5987 22.3333 13.9761C22.5901 14.1663 22.8947 14.2353 23.1908 14.1691C23.4868 14.1029 23.7337 13.9113 23.8867 13.6297L24.3372 12.7989C24.3498 13.0256 24.3554 13.2524 24.3554 13.4805C24.3554 15.5294 23.8755 17.412 22.931 19.0751C21.9852 20.7368 20.6676 22.0604 19.0131 23.0081C17.3558 23.9572 15.4922 24.4374 13.4702 24.4374C11.427 24.4374 9.55076 23.9558 7.89349 23.0081C6.2376 22.0604 4.91992 20.7368 3.97551 19.0765C3.02969 17.4135 2.55117 15.5308 2.55117 13.4819C2.55117 11.4541 3.0311 9.58263 3.97551 7.91958C4.91992 6.25933 6.2376 4.93565 7.89349 3.98795C9.55076 3.03884 11.427 2.55865 13.4702 2.55865C15.4908 2.55865 17.3558 3.04025 19.0131 3.98795C20.3027 4.72584 21.393 5.69607 22.2519 6.8719L22.3895 7.05919L22.3923 7.05777L22.6617 7.41686L22.687 7.39714C22.9157 7.59147 23.2089 7.70271 23.5135 7.70271C24.2193 7.70271 24.7932 7.12678 24.7932 6.41847C24.7932 6.10444 24.6782 5.80168 24.4691 5.56651C23.3773 4.01048 21.9769 2.73327 20.3027 1.77008C18.2624 0.595659 15.9637 0 13.4702 0C10.954 0 8.64424 0.595659 6.60386 1.77008C4.56348 2.94449 2.93427 4.57938 1.76394 6.62687C0.59359 8.67435 0 10.981 0 13.4833C0 16.0082 0.59359 18.3259 1.76394 20.3734C2.93427 22.4209 4.56348 24.0558 6.60386 25.2302C8.64424 26.4047 10.954 27.0004 13.4702 27.0004C15.9637 27.0004 18.2624 26.4047 20.3027 25.2302C22.3431 24.0558 23.9723 22.4209 25.1426 20.3734C26.313 18.3259 26.9066 16.0082 26.9066 13.4833C26.9066 13.044 26.8869 12.6046 26.8505 12.1709L27.6813 12.7848C27.938 12.9749 28.2439 13.0425 28.5386 12.9763C28.8347 12.9101 29.0803 12.7186 29.2333 12.4384C29.5378 11.8766 29.375 11.1443 28.8641 10.7669Z" fill="#5F3AAC"/>
</svg>
