<svg width="17" height="17" viewBox="0 0 17 17" fill="none" xmlns="http://www.w3.org/2000/svg">
<path d="M1.16117 1.16313C1.26277 1.06127 1.38347 0.980457 1.51635 0.925317C1.64923 0.870178 1.79168 0.841797 1.93555 0.841797C2.07941 0.841797 2.22187 0.870178 2.35475 0.925317C2.48763 0.980457 2.60832 1.06127 2.70992 1.16313L8.49805 6.95344L14.2862 1.16313C14.3879 1.06143 14.5086 0.980767 14.6415 0.925732C14.7743 0.870696 14.9167 0.84237 15.0605 0.84237C15.2044 0.84237 15.3468 0.870696 15.4796 0.925732C15.6125 0.980767 15.7332 1.06143 15.8349 1.16313C15.9366 1.26482 16.0173 1.38554 16.0723 1.51841C16.1274 1.65128 16.1557 1.79369 16.1557 1.9375C16.1557 2.08132 16.1274 2.22372 16.0723 2.35659C16.0173 2.48946 15.9366 2.61018 15.8349 2.71188L10.0446 8.5L15.8349 14.2881C15.9366 14.3898 16.0173 14.5105 16.0723 14.6434C16.1274 14.7763 16.1557 14.9187 16.1557 15.0625C16.1557 15.2063 16.1274 15.3487 16.0723 15.4816C16.0173 15.6145 15.9366 15.7352 15.8349 15.8369C15.7332 15.9386 15.6125 16.0192 15.4796 16.0743C15.3468 16.1293 15.2044 16.1576 15.0605 16.1576C14.9167 16.1576 14.7743 16.1293 14.6415 16.0743C14.5086 16.0192 14.3879 15.9386 14.2862 15.8369L8.49805 10.0466L2.70992 15.8369C2.60823 15.9386 2.48751 16.0192 2.35464 16.0743C2.22177 16.1293 2.07936 16.1576 1.93555 16.1576C1.79173 16.1576 1.64933 16.1293 1.51646 16.0743C1.38359 16.0192 1.26287 15.9386 1.16117 15.8369C1.05948 15.7352 0.978814 15.6145 0.923778 15.4816C0.868743 15.3487 0.840416 15.2063 0.840416 15.0625C0.840416 14.9187 0.868743 14.7763 0.923778 14.6434C0.978814 14.5105 1.05948 14.3898 1.16117 14.2881L6.95149 8.5L1.16117 2.71188C1.05932 2.61028 0.978503 2.48958 0.923364 2.3567C0.868225 2.22382 0.839844 2.08137 0.839844 1.9375C0.839844 1.79364 0.868225 1.65118 0.923364 1.5183C0.978503 1.38542 1.05932 1.26473 1.16117 1.16313Z" fill="black"/>
</svg>
